<?xml version="1.0" encoding="UTF-8" standalone="no"?>
<svg width="0mm" height="0mm"
 xmlns:dunnart="http://www.dunnart.org/ns/dunnart"
 xmlns="http://www.w3.org/2000/svg" xmlns:xlink="http://www.w3.org/1999/xlink"  version="1.2" baseProfile="tiny">
<title>1X-tree.svg</title>
<desc>This SVG file was saved from Dunnart.  http://www.dunnart.org/</desc>
<defs>
</defs>
<g fill="none" stroke="black" stroke-width="1" fill-rule="evenodd" stroke-linecap="square" stroke-linejoin="bevel" >

<g fill="none" stroke="#000000" stroke-opacity="1" stroke-width="1" stroke-linecap="square" stroke-linejoin="bevel" transform="matrix(1,0,0,1,-149,321)"
font-family="Ubuntu" font-size="11" font-weight="400" font-style="normal" 
>
<path vector-effect="non-scaling-stroke" fill-rule="evenodd" d="M0,0 L5,-102 L0,0"/>
</g>
</g>
<g fill="none" stroke="black" stroke-width="1" fill-rule="evenodd" stroke-linecap="square" stroke-linejoin="bevel" >

<g fill="none" stroke="#000000" stroke-opacity="1" stroke-width="1" stroke-linecap="square" stroke-linejoin="bevel" transform="matrix(1,0,0,1,-144,219)"
font-family="Ubuntu" font-size="11" font-weight="400" font-style="normal" 
>
<path vector-effect="non-scaling-stroke" fill-rule="evenodd" d="M0,0 L5,-106 L0,0"/>
</g>
</g>
<g fill="none" stroke="black" stroke-width="1" fill-rule="evenodd" stroke-linecap="square" stroke-linejoin="bevel" >

<g fill="none" stroke="#000000" stroke-opacity="1" stroke-width="1" stroke-linecap="square" stroke-linejoin="bevel" transform="matrix(1,0,0,1,-139,113)"
font-family="Ubuntu" font-size="11" font-weight="400" font-style="normal" 
>
<path vector-effect="non-scaling-stroke" fill-rule="evenodd" d="M0,0 L128,-146 L0,0"/>
</g>
</g>
<g fill="none" stroke="black" stroke-width="1" fill-rule="evenodd" stroke-linecap="square" stroke-linejoin="bevel" >

<g fill="none" stroke="#000000" stroke-opacity="1" stroke-width="1" stroke-linecap="square" stroke-linejoin="bevel" transform="matrix(1,0,0,1,-11,-33)"
font-family="Ubuntu" font-size="11" font-weight="400" font-style="normal" 
>
<path vector-effect="non-scaling-stroke" fill-rule="evenodd" d="M0,0 L-253.5,-4 L0,0"/>
</g>
</g>
<g fill="none" stroke="black" stroke-width="1" fill-rule="evenodd" stroke-linecap="square" stroke-linejoin="bevel" >

<g fill="none" stroke="#000000" stroke-opacity="1" stroke-width="1" stroke-linecap="square" stroke-linejoin="bevel" transform="matrix(1,0,0,1,-264.5,-37)"
font-family="Ubuntu" font-size="11" font-weight="400" font-style="normal" 
>
<path vector-effect="non-scaling-stroke" fill-rule="evenodd" d="M0,0 L125.5,150 L0,0"/>
</g>
</g>
<g fill="none" stroke="black" stroke-width="1" fill-rule="evenodd" stroke-linecap="square" stroke-linejoin="bevel" >

<g fill="#f0f0d2" fill-opacity="1" stroke="#000000" stroke-opacity="1" stroke-width="1" stroke-linecap="square" stroke-linejoin="bevel" transform="matrix(1,0,0,1,-149,321)"
font-family="Ubuntu" font-size="11" font-weight="400" font-style="normal" 
>
<path vector-effect="non-scaling-stroke" fill-rule="evenodd" d="M24.5,0 C24.5,13.8071 13.531,25 0,25 C-13.531,25 -24.5,13.8071 -24.5,0 C-24.5,-13.8071 -13.531,-25 0,-25 C13.531,-25 24.5,-13.8071 24.5,0 "/>
</g>
</g>
<g fill="none" stroke="black" stroke-width="1" fill-rule="evenodd" stroke-linecap="square" stroke-linejoin="bevel" >

<g fill="#f0f0d2" fill-opacity="1" stroke="#000000" stroke-opacity="1" stroke-width="1" stroke-linecap="square" stroke-linejoin="bevel" transform="matrix(1,0,0,1,-144,219)"
font-family="Ubuntu" font-size="11" font-weight="400" font-style="normal" 
>
<path vector-effect="non-scaling-stroke" fill-rule="evenodd" d="M24.5,0 C24.5,13.8071 13.531,25 0,25 C-13.531,25 -24.5,13.8071 -24.5,0 C-24.5,-13.8071 -13.531,-25 0,-25 C13.531,-25 24.5,-13.8071 24.5,0 "/>
</g>
</g>
<g fill="none" stroke="black" stroke-width="1" fill-rule="evenodd" stroke-linecap="square" stroke-linejoin="bevel" >

<g fill="#f0f0d2" fill-opacity="1" stroke="#000000" stroke-opacity="1" stroke-width="1" stroke-linecap="square" stroke-linejoin="bevel" transform="matrix(1,0,0,1,-139,113)"
font-family="Ubuntu" font-size="11" font-weight="400" font-style="normal" 
>
<path vector-effect="non-scaling-stroke" fill-rule="evenodd" d="M24.5,0 C24.5,13.8071 13.531,25 0,25 C-13.531,25 -24.5,13.8071 -24.5,0 C-24.5,-13.8071 -13.531,-25 0,-25 C13.531,-25 24.5,-13.8071 24.5,0 "/>
</g>
</g>
<g fill="none" stroke="black" stroke-width="1" fill-rule="evenodd" stroke-linecap="square" stroke-linejoin="bevel" >

<g fill="#f0f0d2" fill-opacity="1" stroke="#000000" stroke-opacity="1" stroke-width="1" stroke-linecap="square" stroke-linejoin="bevel" transform="matrix(1,0,0,1,-11,-33)"
font-family="Ubuntu" font-size="11" font-weight="400" font-style="normal" 
>
<path vector-effect="non-scaling-stroke" fill-rule="evenodd" d="M24.5,0 C24.5,13.8071 13.531,25 0,25 C-13.531,25 -24.5,13.8071 -24.5,0 C-24.5,-13.8071 -13.531,-25 0,-25 C13.531,-25 24.5,-13.8071 24.5,0 "/>
</g>
</g>
<g fill="none" stroke="black" stroke-width="1" fill-rule="evenodd" stroke-linecap="square" stroke-linejoin="bevel" >

<g fill="#f0f0d2" fill-opacity="1" stroke="#000000" stroke-opacity="1" stroke-width="1" stroke-linecap="square" stroke-linejoin="bevel" transform="matrix(1,0,0,1,-264.5,-37)"
font-family="Ubuntu" font-size="11" font-weight="400" font-style="normal" 
>
<path vector-effect="non-scaling-stroke" fill-rule="evenodd" d="M24.5,0 C24.5,13.8071 13.531,25 0,25 C-13.531,25 -24.5,13.8071 -24.5,0 C-24.5,-13.8071 -13.531,-25 0,-25 C13.531,-25 24.5,-13.8071 24.5,0 "/>
</g>
</g>
<!-- Dunnart description -->
    <dunnart:options flowSeparation="0.5" automaticGraphLayout="0" routingBuffer="4" rubberBandRouting="0" layoutBeautify="0" colourInterferingConnectors="0" penaliseCrossings="0" layoutMode="0" preventOverlaps="0" defaultIdealConnectorLength="1" segmentPenalty="50" layoutMethod="0" avoidBuffer="0" pageBoundaryConstraints="0"/>
    <dunnart:node width="49" cx="-264.5" cy="-37" height="50" type="org.dunnart.shapes.ellipse" id="1"/>
    <dunnart:node width="49" cx="-11" cy="-33" height="50" type="org.dunnart.shapes.ellipse" id="2"/>
    <dunnart:node width="49" cx="-139" cy="113" height="50" type="org.dunnart.shapes.ellipse" id="3"/>
    <dunnart:node width="49" cx="-144" cy="219" height="50" type="org.dunnart.shapes.ellipse" id="4"/>
    <dunnart:node width="49" cx="-149" cy="321" height="50" type="org.dunnart.shapes.ellipse" id="5"/>
    <dunnart:node dstX="-139" srcX="-264.5" dstY="113" srcY="-37" srcID="1" type="connector" dstID="3" id="6"/>
    <dunnart:node dstX="-264.5" srcX="-11" dstY="-37" srcY="-33" srcID="2" type="connector" dstID="1" id="7"/>
    <dunnart:node dstX="-11" srcX="-139" dstY="-33" srcY="113" srcID="3" type="connector" dstID="2" id="8"/>
    <dunnart:node dstX="-139" srcX="-144" dstY="113" srcY="219" srcID="4" type="connector" dstID="3" id="9"/>
    <dunnart:node dstX="-144" srcX="-149" dstY="219" srcY="321" srcID="5" type="connector" dstID="4" id="10"/>
</svg>
