<?xml version="1.0" encoding="UTF-8" standalone="no"?>
<svg width="0mm" height="0mm"
 xmlns:dunnart="http://www.dunnart.org/ns/dunnart"
 xmlns="http://www.w3.org/2000/svg" xmlns:xlink="http://www.w3.org/1999/xlink"  version="1.2" baseProfile="tiny">
<title>c5.svg</title>
<desc>This SVG file was saved from Dunnart.  http://www.dunnart.org/</desc>
<defs>
</defs>
<g fill="none" stroke="black" stroke-width="1" fill-rule="evenodd" stroke-linecap="square" stroke-linejoin="bevel" >

<g fill="none" stroke="#000000" stroke-opacity="1" stroke-width="1" stroke-linecap="square" stroke-linejoin="bevel" transform="matrix(1,0,0,1,153.177,-113.366)"
font-family="Ubuntu" font-size="11" font-weight="400" font-style="normal" 
>
<path vector-effect="non-scaling-stroke" fill-rule="evenodd" d="M0,0 L-176.806,-128.655 L0,0"/>
</g>
</g>
<g fill="none" stroke="black" stroke-width="1" fill-rule="evenodd" stroke-linecap="square" stroke-linejoin="bevel" >

<g fill="none" stroke="#000000" stroke-opacity="1" stroke-width="1" stroke-linecap="square" stroke-linejoin="bevel" transform="matrix(1,0,0,1,85.5257,94.5946)"
font-family="Ubuntu" font-size="11" font-weight="400" font-style="normal" 
>
<path vector-effect="non-scaling-stroke" fill-rule="evenodd" d="M0,0 L67.6515,-207.961 L0,0"/>
</g>
</g>
<g fill="none" stroke="black" stroke-width="1" fill-rule="evenodd" stroke-linecap="square" stroke-linejoin="bevel" >

<g fill="none" stroke="#000000" stroke-opacity="1" stroke-width="1" stroke-linecap="square" stroke-linejoin="bevel" transform="matrix(1,0,0,1,-133.139,94.4787)"
font-family="Ubuntu" font-size="11" font-weight="400" font-style="normal" 
>
<path vector-effect="non-scaling-stroke" fill-rule="evenodd" d="M0,0 L218.665,0.115954 L0,0"/>
</g>
</g>
<g fill="none" stroke="black" stroke-width="1" fill-rule="evenodd" stroke-linecap="square" stroke-linejoin="bevel" >

<g fill="none" stroke="#000000" stroke-opacity="1" stroke-width="1" stroke-linecap="square" stroke-linejoin="bevel" transform="matrix(1,0,0,1,-200.571,-113.554)"
font-family="Ubuntu" font-size="11" font-weight="400" font-style="normal" 
>
<path vector-effect="non-scaling-stroke" fill-rule="evenodd" d="M0,0 L67.4311,208.032 L0,0"/>
</g>
</g>
<g fill="none" stroke="black" stroke-width="1" fill-rule="evenodd" stroke-linecap="square" stroke-linejoin="bevel" >

<g fill="none" stroke="#000000" stroke-opacity="1" stroke-width="1" stroke-linecap="square" stroke-linejoin="bevel" transform="matrix(1,0,0,1,-23.6285,-242.021)"
font-family="Ubuntu" font-size="11" font-weight="400" font-style="normal" 
>
<path vector-effect="non-scaling-stroke" fill-rule="evenodd" d="M0,0 L-176.942,128.467 L0,0"/>
</g>
</g>
<g fill="none" stroke="black" stroke-width="1" fill-rule="evenodd" stroke-linecap="square" stroke-linejoin="bevel" >

<g fill="#f0f0d2" fill-opacity="1" stroke="#000000" stroke-opacity="1" stroke-width="1" stroke-linecap="square" stroke-linejoin="bevel" transform="matrix(1,0,0,1,153.177,-113.366)"
font-family="Ubuntu" font-size="11" font-weight="400" font-style="normal" 
>
<path vector-effect="non-scaling-stroke" fill-rule="evenodd" d="M24.5,0 C24.5,13.8071 13.531,25 0,25 C-13.531,25 -24.5,13.8071 -24.5,0 C-24.5,-13.8071 -13.531,-25 0,-25 C13.531,-25 24.5,-13.8071 24.5,0 "/>
</g>
</g>
<g fill="none" stroke="black" stroke-width="1" fill-rule="evenodd" stroke-linecap="square" stroke-linejoin="bevel" >

<g fill="#f0f0d2" fill-opacity="1" stroke="#000000" stroke-opacity="1" stroke-width="1" stroke-linecap="square" stroke-linejoin="bevel" transform="matrix(1,0,0,1,85.5257,94.5946)"
font-family="Ubuntu" font-size="11" font-weight="400" font-style="normal" 
>
<path vector-effect="non-scaling-stroke" fill-rule="evenodd" d="M24.5,0 C24.5,13.8071 13.531,25 0,25 C-13.531,25 -24.5,13.8071 -24.5,0 C-24.5,-13.8071 -13.531,-25 0,-25 C13.531,-25 24.5,-13.8071 24.5,0 "/>
</g>
</g>
<g fill="none" stroke="black" stroke-width="1" fill-rule="evenodd" stroke-linecap="square" stroke-linejoin="bevel" >

<g fill="#f0f0d2" fill-opacity="1" stroke="#000000" stroke-opacity="1" stroke-width="1" stroke-linecap="square" stroke-linejoin="bevel" transform="matrix(1,0,0,1,-133.139,94.4787)"
font-family="Ubuntu" font-size="11" font-weight="400" font-style="normal" 
>
<path vector-effect="non-scaling-stroke" fill-rule="evenodd" d="M24.5,0 C24.5,13.8071 13.531,25 0,25 C-13.531,25 -24.5,13.8071 -24.5,0 C-24.5,-13.8071 -13.531,-25 0,-25 C13.531,-25 24.5,-13.8071 24.5,0 "/>
</g>
</g>
<g fill="none" stroke="black" stroke-width="1" fill-rule="evenodd" stroke-linecap="square" stroke-linejoin="bevel" >

<g fill="#f0f0d2" fill-opacity="1" stroke="#000000" stroke-opacity="1" stroke-width="1" stroke-linecap="square" stroke-linejoin="bevel" transform="matrix(1,0,0,1,-200.571,-113.554)"
font-family="Ubuntu" font-size="11" font-weight="400" font-style="normal" 
>
<path vector-effect="non-scaling-stroke" fill-rule="evenodd" d="M24.5,0 C24.5,13.8071 13.531,25 0,25 C-13.531,25 -24.5,13.8071 -24.5,0 C-24.5,-13.8071 -13.531,-25 0,-25 C13.531,-25 24.5,-13.8071 24.5,0 "/>
</g>
</g>
<g fill="none" stroke="black" stroke-width="1" fill-rule="evenodd" stroke-linecap="square" stroke-linejoin="bevel" >

<g fill="#f0f0d2" fill-opacity="1" stroke="#000000" stroke-opacity="1" stroke-width="1" stroke-linecap="square" stroke-linejoin="bevel" transform="matrix(1,0,0,1,-23.6285,-242.021)"
font-family="Ubuntu" font-size="11" font-weight="400" font-style="normal" 
>
<path vector-effect="non-scaling-stroke" fill-rule="evenodd" d="M24.5,0 C24.5,13.8071 13.531,25 0,25 C-13.531,25 -24.5,13.8071 -24.5,0 C-24.5,-13.8071 -13.531,-25 0,-25 C13.531,-25 24.5,-13.8071 24.5,0 "/>
</g>
</g>
<!-- Dunnart description -->
    <dunnart:options flowSeparation="0.5" automaticGraphLayout="1" routingBuffer="4" rubberBandRouting="0" layoutBeautify="0" colourInterferingConnectors="0" penaliseCrossings="0" layoutMode="0" preventOverlaps="0" defaultIdealConnectorLength="2" segmentPenalty="50" layoutMethod="0" avoidBuffer="0" pageBoundaryConstraints="0"/>
    <dunnart:node width="49" cx="-23.6285" cy="-242.021" height="50" type="org.dunnart.shapes.ellipse" id="1"/>
    <dunnart:node width="49" cx="-200.571" cy="-113.554" height="50" type="org.dunnart.shapes.ellipse" id="2"/>
    <dunnart:node width="49" cx="-133.139" cy="94.4787" height="50" type="org.dunnart.shapes.ellipse" id="3"/>
    <dunnart:node width="49" cx="85.5257" cy="94.5946" height="50" type="org.dunnart.shapes.ellipse" id="4"/>
    <dunnart:node width="49" cx="153.177" cy="-113.366" height="50" type="org.dunnart.shapes.ellipse" id="5"/>
    <dunnart:node dstX="-200.571" srcX="-23.6285" dstY="-113.554" srcY="-242.021" srcID="1" type="connector" dstID="2" id="6"/>
    <dunnart:node dstX="-133.139" srcX="-200.571" dstY="94.4787" srcY="-113.554" srcID="2" type="connector" dstID="3" id="7"/>
    <dunnart:node dstX="85.5257" srcX="-133.139" dstY="94.5946" srcY="94.4787" srcID="3" type="connector" dstID="4" id="8"/>
    <dunnart:node dstX="153.177" srcX="85.5257" dstY="-113.366" srcY="94.5946" srcID="4" type="connector" dstID="5" id="9"/>
    <dunnart:node dstX="-23.6285" srcX="153.177" dstY="-242.021" srcY="-113.366" srcID="5" type="connector" dstID="1" id="10"/>
</svg>
