<?xml version="1.0" encoding="UTF-8" standalone="no"?>
<svg width="0mm" height="0mm"
 xmlns:dunnart="http://www.dunnart.org/ns/dunnart"
 xmlns="http://www.w3.org/2000/svg" xmlns:xlink="http://www.w3.org/1999/xlink"  version="1.2" baseProfile="tiny">
<title>loop.svg</title>
<desc>This SVG file was saved from Dunnart.  http://www.dunnart.org/</desc>
<defs>
</defs>
<g fill="none" stroke="black" stroke-width="1" fill-rule="evenodd" stroke-linecap="square" stroke-linejoin="bevel" >

<g fill="none" stroke="#000000" stroke-opacity="1" stroke-width="1" stroke-linecap="square" stroke-linejoin="bevel" transform="matrix(1,0,0,1,188,286)"
font-family="Ubuntu" font-size="11" font-weight="400" font-style="normal" 
>
<path vector-effect="non-scaling-stroke" fill-rule="evenodd" d="M0,0 L4,-139 L0,0"/>
</g>
</g>
<g fill="none" stroke="black" stroke-width="1" fill-rule="evenodd" stroke-linecap="square" stroke-linejoin="bevel" >

<g fill="none" stroke="#000000" stroke-opacity="1" stroke-width="1" stroke-linecap="square" stroke-linejoin="bevel" transform="matrix(1,0,0,1,26,293)"
font-family="Ubuntu" font-size="11" font-weight="400" font-style="normal" 
>
<path vector-effect="non-scaling-stroke" fill-rule="evenodd" d="M0,0 L162,-7 L0,0"/>
</g>
</g>
<g fill="none" stroke="black" stroke-width="1" fill-rule="evenodd" stroke-linecap="square" stroke-linejoin="bevel" >

<g fill="none" stroke="#000000" stroke-opacity="1" stroke-width="1" stroke-linecap="square" stroke-linejoin="bevel" transform="matrix(1,0,0,1,-187,283)"
font-family="Ubuntu" font-size="11" font-weight="400" font-style="normal" 
>
<path vector-effect="non-scaling-stroke" fill-rule="evenodd" d="M0,0 L213,10 L0,0"/>
</g>
</g>
<g fill="none" stroke="black" stroke-width="1" fill-rule="evenodd" stroke-linecap="square" stroke-linejoin="bevel" >

<g fill="none" stroke="#000000" stroke-opacity="1" stroke-width="1" stroke-linecap="square" stroke-linejoin="bevel" transform="matrix(1,0,0,1,-373,274)"
font-family="Ubuntu" font-size="11" font-weight="400" font-style="normal" 
>
<path vector-effect="non-scaling-stroke" fill-rule="evenodd" d="M0,0 L186,9 L0,0"/>
</g>
</g>
<g fill="none" stroke="black" stroke-width="1" fill-rule="evenodd" stroke-linecap="square" stroke-linejoin="bevel" >

<g fill="none" stroke="#000000" stroke-opacity="1" stroke-width="1" stroke-linecap="square" stroke-linejoin="bevel" transform="matrix(1,0,0,1,-378,113)"
font-family="Ubuntu" font-size="11" font-weight="400" font-style="normal" 
>
<path vector-effect="non-scaling-stroke" fill-rule="evenodd" d="M0,0 L5,161 L0,0"/>
</g>
</g>
<g fill="none" stroke="black" stroke-width="1" fill-rule="evenodd" stroke-linecap="square" stroke-linejoin="bevel" >

<g fill="none" stroke="#000000" stroke-opacity="1" stroke-width="1" stroke-linecap="square" stroke-linejoin="bevel" transform="matrix(1,0,0,1,-383,-78)"
font-family="Ubuntu" font-size="11" font-weight="400" font-style="normal" 
>
<path vector-effect="non-scaling-stroke" fill-rule="evenodd" d="M0,0 L5,191 L0,0"/>
</g>
</g>
<g fill="none" stroke="black" stroke-width="1" fill-rule="evenodd" stroke-linecap="square" stroke-linejoin="bevel" >

<g fill="none" stroke="#000000" stroke-opacity="1" stroke-width="1" stroke-linecap="square" stroke-linejoin="bevel" transform="matrix(1,0,0,1,-392,-259)"
font-family="Ubuntu" font-size="11" font-weight="400" font-style="normal" 
>
<path vector-effect="non-scaling-stroke" fill-rule="evenodd" d="M0,0 L9,181 L0,0"/>
</g>
</g>
<g fill="none" stroke="black" stroke-width="1" fill-rule="evenodd" stroke-linecap="square" stroke-linejoin="bevel" >

<g fill="none" stroke="#000000" stroke-opacity="1" stroke-width="1" stroke-linecap="square" stroke-linejoin="bevel" transform="matrix(1,0,0,1,-388.5,-433)"
font-family="Ubuntu" font-size="11" font-weight="400" font-style="normal" 
>
<path vector-effect="non-scaling-stroke" fill-rule="evenodd" d="M0,0 L-3.5,174 L0,0"/>
</g>
</g>
<g fill="none" stroke="black" stroke-width="1" fill-rule="evenodd" stroke-linecap="square" stroke-linejoin="bevel" >

<g fill="none" stroke="#000000" stroke-opacity="1" stroke-width="1" stroke-linecap="square" stroke-linejoin="bevel" transform="matrix(1,0,0,1,183,-26)"
font-family="Ubuntu" font-size="11" font-weight="400" font-style="normal" 
>
<path vector-effect="non-scaling-stroke" fill-rule="evenodd" d="M0,0 L9,173 L0,0"/>
</g>
</g>
<g fill="none" stroke="black" stroke-width="1" fill-rule="evenodd" stroke-linecap="square" stroke-linejoin="bevel" >

<g fill="none" stroke="#000000" stroke-opacity="1" stroke-width="1" stroke-linecap="square" stroke-linejoin="bevel" transform="matrix(1,0,0,1,164,-264)"
font-family="Ubuntu" font-size="11" font-weight="400" font-style="normal" 
>
<path vector-effect="non-scaling-stroke" fill-rule="evenodd" d="M0,0 L19,238 L0,0"/>
</g>
</g>
<g fill="none" stroke="black" stroke-width="1" fill-rule="evenodd" stroke-linecap="square" stroke-linejoin="bevel" >

<g fill="none" stroke="#000000" stroke-opacity="1" stroke-width="1" stroke-linecap="square" stroke-linejoin="bevel" transform="matrix(1,0,0,1,163,-468)"
font-family="Ubuntu" font-size="11" font-weight="400" font-style="normal" 
>
<path vector-effect="non-scaling-stroke" fill-rule="evenodd" d="M0,0 L1,204 L0,0"/>
</g>
</g>
<g fill="none" stroke="black" stroke-width="1" fill-rule="evenodd" stroke-linecap="square" stroke-linejoin="bevel" >

<g fill="none" stroke="#000000" stroke-opacity="1" stroke-width="1" stroke-linecap="square" stroke-linejoin="bevel" transform="matrix(1,0,0,1,16,-469)"
font-family="Ubuntu" font-size="11" font-weight="400" font-style="normal" 
>
<path vector-effect="non-scaling-stroke" fill-rule="evenodd" d="M0,0 L147,1 L0,0"/>
</g>
</g>
<g fill="none" stroke="black" stroke-width="1" fill-rule="evenodd" stroke-linecap="square" stroke-linejoin="bevel" >

<g fill="none" stroke="#000000" stroke-opacity="1" stroke-width="1" stroke-linecap="square" stroke-linejoin="bevel" transform="matrix(1,0,0,1,-181,-465)"
font-family="Ubuntu" font-size="11" font-weight="400" font-style="normal" 
>
<path vector-effect="non-scaling-stroke" fill-rule="evenodd" d="M0,0 L197,-4 L0,0"/>
</g>
</g>
<g fill="none" stroke="black" stroke-width="1" fill-rule="evenodd" stroke-linecap="square" stroke-linejoin="bevel" >

<g fill="none" stroke="#000000" stroke-opacity="1" stroke-width="1" stroke-linecap="square" stroke-linejoin="bevel" transform="matrix(1,0,0,1,-388.5,-433)"
font-family="Ubuntu" font-size="11" font-weight="400" font-style="normal" 
>
<path vector-effect="non-scaling-stroke" fill-rule="evenodd" d="M0,0 L207.5,-32 L0,0"/>
</g>
</g>
<g fill="none" stroke="black" stroke-width="1" fill-rule="evenodd" stroke-linecap="square" stroke-linejoin="bevel" >

<g fill="#f0f0d2" fill-opacity="1" stroke="#000000" stroke-opacity="1" stroke-width="1" stroke-linecap="square" stroke-linejoin="bevel" transform="matrix(1,0,0,1,-181,-465)"
font-family="Ubuntu" font-size="11" font-weight="400" font-style="normal" 
>
<path vector-effect="non-scaling-stroke" fill-rule="evenodd" d="M-25.5,-25 L25.5,-25 L25.5,25 L-25.5,25 L-25.5,-25"/>
</g>
</g>
<g fill="none" stroke="black" stroke-width="1" fill-rule="evenodd" stroke-linecap="square" stroke-linejoin="bevel" >

<g fill="#f0f0d2" fill-opacity="1" stroke="#000000" stroke-opacity="1" stroke-width="1" stroke-linecap="square" stroke-linejoin="bevel" transform="matrix(1,0,0,1,16,-469)"
font-family="Ubuntu" font-size="11" font-weight="400" font-style="normal" 
>
<path vector-effect="non-scaling-stroke" fill-rule="evenodd" d="M-25.5,-25 L25.5,-25 L25.5,25 L-25.5,25 L-25.5,-25"/>
</g>
</g>
<g fill="none" stroke="black" stroke-width="1" fill-rule="evenodd" stroke-linecap="square" stroke-linejoin="bevel" >

<g fill="#f0f0d2" fill-opacity="1" stroke="#000000" stroke-opacity="1" stroke-width="1" stroke-linecap="square" stroke-linejoin="bevel" transform="matrix(1,0,0,1,163,-468)"
font-family="Ubuntu" font-size="11" font-weight="400" font-style="normal" 
>
<path vector-effect="non-scaling-stroke" fill-rule="evenodd" d="M-25.5,-25 L25.5,-25 L25.5,25 L-25.5,25 L-25.5,-25"/>
</g>
</g>
<g fill="none" stroke="black" stroke-width="1" fill-rule="evenodd" stroke-linecap="square" stroke-linejoin="bevel" >

<g fill="#f0f0d2" fill-opacity="1" stroke="#000000" stroke-opacity="1" stroke-width="1" stroke-linecap="square" stroke-linejoin="bevel" transform="matrix(1,0,0,1,164,-264)"
font-family="Ubuntu" font-size="11" font-weight="400" font-style="normal" 
>
<path vector-effect="non-scaling-stroke" fill-rule="evenodd" d="M-25.5,-25 L25.5,-25 L25.5,25 L-25.5,25 L-25.5,-25"/>
</g>
</g>
<g fill="none" stroke="black" stroke-width="1" fill-rule="evenodd" stroke-linecap="square" stroke-linejoin="bevel" >

<g fill="#f0f0d2" fill-opacity="1" stroke="#000000" stroke-opacity="1" stroke-width="1" stroke-linecap="square" stroke-linejoin="bevel" transform="matrix(1,0,0,1,183,-26)"
font-family="Ubuntu" font-size="11" font-weight="400" font-style="normal" 
>
<path vector-effect="non-scaling-stroke" fill-rule="evenodd" d="M-25.5,-25 L25.5,-25 L25.5,25 L-25.5,25 L-25.5,-25"/>
</g>
</g>
<g fill="none" stroke="black" stroke-width="1" fill-rule="evenodd" stroke-linecap="square" stroke-linejoin="bevel" >

<g fill="#f0f0d2" fill-opacity="1" stroke="#000000" stroke-opacity="1" stroke-width="1" stroke-linecap="square" stroke-linejoin="bevel" transform="matrix(1,0,0,1,192,147)"
font-family="Ubuntu" font-size="11" font-weight="400" font-style="normal" 
>
<path vector-effect="non-scaling-stroke" fill-rule="evenodd" d="M-25.5,-25 L25.5,-25 L25.5,25 L-25.5,25 L-25.5,-25"/>
</g>
</g>
<g fill="none" stroke="black" stroke-width="1" fill-rule="evenodd" stroke-linecap="square" stroke-linejoin="bevel" >

<g fill="#f0f0d2" fill-opacity="1" stroke="#000000" stroke-opacity="1" stroke-width="1" stroke-linecap="square" stroke-linejoin="bevel" transform="matrix(1,0,0,1,188,286)"
font-family="Ubuntu" font-size="11" font-weight="400" font-style="normal" 
>
<path vector-effect="non-scaling-stroke" fill-rule="evenodd" d="M-25.5,-25 L25.5,-25 L25.5,25 L-25.5,25 L-25.5,-25"/>
</g>
</g>
<g fill="none" stroke="black" stroke-width="1" fill-rule="evenodd" stroke-linecap="square" stroke-linejoin="bevel" >

<g fill="#f0f0d2" fill-opacity="1" stroke="#000000" stroke-opacity="1" stroke-width="1" stroke-linecap="square" stroke-linejoin="bevel" transform="matrix(1,0,0,1,26,293)"
font-family="Ubuntu" font-size="11" font-weight="400" font-style="normal" 
>
<path vector-effect="non-scaling-stroke" fill-rule="evenodd" d="M-25.5,-25 L25.5,-25 L25.5,25 L-25.5,25 L-25.5,-25"/>
</g>
</g>
<g fill="none" stroke="black" stroke-width="1" fill-rule="evenodd" stroke-linecap="square" stroke-linejoin="bevel" >

<g fill="#f0f0d2" fill-opacity="1" stroke="#000000" stroke-opacity="1" stroke-width="1" stroke-linecap="square" stroke-linejoin="bevel" transform="matrix(1,0,0,1,-187,283)"
font-family="Ubuntu" font-size="11" font-weight="400" font-style="normal" 
>
<path vector-effect="non-scaling-stroke" fill-rule="evenodd" d="M-25.5,-25 L25.5,-25 L25.5,25 L-25.5,25 L-25.5,-25"/>
</g>
</g>
<g fill="none" stroke="black" stroke-width="1" fill-rule="evenodd" stroke-linecap="square" stroke-linejoin="bevel" >

<g fill="#f0f0d2" fill-opacity="1" stroke="#000000" stroke-opacity="1" stroke-width="1" stroke-linecap="square" stroke-linejoin="bevel" transform="matrix(1,0,0,1,-373,274)"
font-family="Ubuntu" font-size="11" font-weight="400" font-style="normal" 
>
<path vector-effect="non-scaling-stroke" fill-rule="evenodd" d="M-25.5,-25 L25.5,-25 L25.5,25 L-25.5,25 L-25.5,-25"/>
</g>
</g>
<g fill="none" stroke="black" stroke-width="1" fill-rule="evenodd" stroke-linecap="square" stroke-linejoin="bevel" >

<g fill="#f0f0d2" fill-opacity="1" stroke="#000000" stroke-opacity="1" stroke-width="1" stroke-linecap="square" stroke-linejoin="bevel" transform="matrix(1,0,0,1,-378,113)"
font-family="Ubuntu" font-size="11" font-weight="400" font-style="normal" 
>
<path vector-effect="non-scaling-stroke" fill-rule="evenodd" d="M-25.5,-25 L25.5,-25 L25.5,25 L-25.5,25 L-25.5,-25"/>
</g>
</g>
<g fill="none" stroke="black" stroke-width="1" fill-rule="evenodd" stroke-linecap="square" stroke-linejoin="bevel" >

<g fill="#f0f0d2" fill-opacity="1" stroke="#000000" stroke-opacity="1" stroke-width="1" stroke-linecap="square" stroke-linejoin="bevel" transform="matrix(1,0,0,1,-383,-78)"
font-family="Ubuntu" font-size="11" font-weight="400" font-style="normal" 
>
<path vector-effect="non-scaling-stroke" fill-rule="evenodd" d="M-25.5,-25 L25.5,-25 L25.5,25 L-25.5,25 L-25.5,-25"/>
</g>
</g>
<g fill="none" stroke="black" stroke-width="1" fill-rule="evenodd" stroke-linecap="square" stroke-linejoin="bevel" >

<g fill="#f0f0d2" fill-opacity="1" stroke="#000000" stroke-opacity="1" stroke-width="1" stroke-linecap="square" stroke-linejoin="bevel" transform="matrix(1,0,0,1,-392,-259)"
font-family="Ubuntu" font-size="11" font-weight="400" font-style="normal" 
>
<path vector-effect="non-scaling-stroke" fill-rule="evenodd" d="M-25.5,-25 L25.5,-25 L25.5,25 L-25.5,25 L-25.5,-25"/>
</g>
</g>
<g fill="none" stroke="black" stroke-width="1" fill-rule="evenodd" stroke-linecap="square" stroke-linejoin="bevel" >

<g fill="#f0f0d2" fill-opacity="1" stroke="#000000" stroke-opacity="1" stroke-width="1" stroke-linecap="square" stroke-linejoin="bevel" transform="matrix(1,0,0,1,-388.5,-433)"
font-family="Ubuntu" font-size="11" font-weight="400" font-style="normal" 
>
<path vector-effect="non-scaling-stroke" fill-rule="evenodd" d="M-25.5,-25 L25.5,-25 L25.5,25 L-25.5,25 L-25.5,-25"/>
</g>
</g>
<!-- Dunnart description -->
    <dunnart:options flowSeparation="0.5" automaticGraphLayout="0" routingBuffer="4" rubberBandRouting="0" layoutBeautify="0" colourInterferingConnectors="0" penaliseCrossings="0" layoutMode="0" preventOverlaps="0" defaultIdealConnectorLength="1" segmentPenalty="50" layoutMethod="0" avoidBuffer="0" pageBoundaryConstraints="0"/>
    <dunnart:node width="51" cx="-388.5" cy="-433" height="50" type="org.dunnart.shapes.rect" id="1"/>
    <dunnart:node width="51" cx="-392" cy="-259" height="50" type="org.dunnart.shapes.rect" id="2"/>
    <dunnart:node width="51" cx="-383" cy="-78" height="50" type="org.dunnart.shapes.rect" id="3"/>
    <dunnart:node width="51" cx="-378" cy="113" height="50" type="org.dunnart.shapes.rect" id="4"/>
    <dunnart:node width="51" cx="-373" cy="274" height="50" type="org.dunnart.shapes.rect" id="5"/>
    <dunnart:node width="51" cx="-187" cy="283" height="50" type="org.dunnart.shapes.rect" id="6"/>
    <dunnart:node width="51" cx="26" cy="293" height="50" type="org.dunnart.shapes.rect" id="7"/>
    <dunnart:node width="51" cx="188" cy="286" height="50" type="org.dunnart.shapes.rect" id="8"/>
    <dunnart:node width="51" cx="192" cy="147" height="50" type="org.dunnart.shapes.rect" id="9"/>
    <dunnart:node width="51" cx="183" cy="-26" height="50" type="org.dunnart.shapes.rect" id="10"/>
    <dunnart:node width="51" cx="164" cy="-264" height="50" type="org.dunnart.shapes.rect" id="11"/>
    <dunnart:node width="51" cx="163" cy="-468" height="50" type="org.dunnart.shapes.rect" id="12"/>
    <dunnart:node width="51" cx="16" cy="-469" height="50" type="org.dunnart.shapes.rect" id="13"/>
    <dunnart:node width="51" cx="-181" cy="-465" height="50" type="org.dunnart.shapes.rect" id="14"/>
    <dunnart:node dstX="-181" srcX="-388.5" dstY="-465" srcY="-433" srcID="1" type="connector" dstID="14" id="15"/>
    <dunnart:node dstX="16" srcX="-181" dstY="-469" srcY="-465" srcID="14" type="connector" dstID="13" id="16"/>
    <dunnart:node dstX="163" srcX="16" dstY="-468" srcY="-469" srcID="13" type="connector" dstID="12" id="17"/>
    <dunnart:node dstX="164" srcX="163" dstY="-264" srcY="-468" srcID="12" type="connector" dstID="11" id="18"/>
    <dunnart:node dstX="183" srcX="164" dstY="-26" srcY="-264" srcID="11" type="connector" dstID="10" id="19"/>
    <dunnart:node dstX="192" srcX="183" dstY="147" srcY="-26" srcID="10" type="connector" dstID="9" id="20"/>
    <dunnart:node dstX="-392" srcX="-388.5" dstY="-259" srcY="-433" srcID="1" type="connector" dstID="2" id="21"/>
    <dunnart:node dstX="-383" srcX="-392" dstY="-78" srcY="-259" srcID="2" type="connector" dstID="3" id="22"/>
    <dunnart:node dstX="-378" srcX="-383" dstY="113" srcY="-78" srcID="3" type="connector" dstID="4" id="23"/>
    <dunnart:node dstX="-373" srcX="-378" dstY="274" srcY="113" srcID="4" type="connector" dstID="5" id="24"/>
    <dunnart:node dstX="-187" srcX="-373" dstY="283" srcY="274" srcID="5" type="connector" dstID="6" id="25"/>
    <dunnart:node dstX="26" srcX="-187" dstY="293" srcY="283" srcID="6" type="connector" dstID="7" id="26"/>
    <dunnart:node dstX="188" srcX="26" dstY="286" srcY="293" srcID="7" type="connector" dstID="8" id="27"/>
    <dunnart:node dstX="192" srcX="188" dstY="147" srcY="286" srcID="8" type="connector" dstID="9" id="28"/>
</svg>
