<?xml version="1.0" encoding="UTF-8" standalone="no"?>
<svg width="0mm" height="0mm"
 xmlns:dunnart="http://www.dunnart.org/ns/dunnart"
 xmlns="http://www.w3.org/2000/svg" xmlns:xlink="http://www.w3.org/1999/xlink"  version="1.2" baseProfile="tiny">
<title>sample1.svg</title>
<desc>This SVG file was saved from Dunnart.  http://www.dunnart.org/</desc>
<defs>
</defs>
<g fill="none" stroke="black" stroke-width="1" fill-rule="evenodd" stroke-linecap="square" stroke-linejoin="bevel" >

<g fill="none" stroke="#000000" stroke-opacity="1" stroke-width="1" stroke-linecap="square" stroke-linejoin="bevel" transform="matrix(1,0,0,1,503.747,289.607)"
font-family="Lucida Grande" font-size="13" font-weight="400" font-style="normal" 
>
<path vector-effect="non-scaling-stroke" fill-rule="evenodd" d="M0,0 L7.41731,-168.792 L0,0"/>
</g>
</g>
<g fill="none" stroke="black" stroke-width="1" fill-rule="evenodd" stroke-linecap="square" stroke-linejoin="bevel" >

<g fill="none" stroke="#000000" stroke-opacity="1" stroke-width="1" stroke-linecap="square" stroke-linejoin="bevel" transform="matrix(1,0,0,1,666.045,202.735)"
font-family="Lucida Grande" font-size="13" font-weight="400" font-style="normal" 
>
<path vector-effect="non-scaling-stroke" fill-rule="evenodd" d="M0,0 L-154.881,-81.9194 L0,0"/>
</g>
</g>
<g fill="none" stroke="black" stroke-width="1" fill-rule="evenodd" stroke-linecap="square" stroke-linejoin="bevel" >

<g fill="none" stroke="#000000" stroke-opacity="1" stroke-width="1" stroke-linecap="square" stroke-linejoin="bevel" transform="matrix(1,0,0,1,635.607,17.3464)"
font-family="Lucida Grande" font-size="13" font-weight="400" font-style="normal" 
>
<path vector-effect="non-scaling-stroke" fill-rule="evenodd" d="M0,0 L-124.443,103.469 L0,0"/>
</g>
</g>
<g fill="none" stroke="black" stroke-width="1" fill-rule="evenodd" stroke-linecap="square" stroke-linejoin="bevel" >

<g fill="none" stroke="#000000" stroke-opacity="1" stroke-width="1" stroke-linecap="square" stroke-linejoin="bevel" transform="matrix(1,0,0,1,511.164,120.816)"
font-family="Lucida Grande" font-size="13" font-weight="400" font-style="normal" 
>
<path vector-effect="non-scaling-stroke" fill-rule="evenodd" d="M0,0 L-158.911,-117.419 L0,0"/>
</g>
</g>
<g fill="none" stroke="black" stroke-width="1" fill-rule="evenodd" stroke-linecap="square" stroke-linejoin="bevel" >

<g fill="none" stroke="#000000" stroke-opacity="1" stroke-width="1" stroke-linecap="square" stroke-linejoin="bevel" transform="matrix(1,0,0,1,410.432,-256.032)"
font-family="Lucida Grande" font-size="13" font-weight="400" font-style="normal" 
>
<path vector-effect="non-scaling-stroke" fill-rule="evenodd" d="M0,0 L-147.771,67.4826 L0,0"/>
</g>
</g>
<g fill="none" stroke="black" stroke-width="1" fill-rule="evenodd" stroke-linecap="square" stroke-linejoin="bevel" >

<g fill="none" stroke="#000000" stroke-opacity="1" stroke-width="1" stroke-linecap="square" stroke-linejoin="bevel" transform="matrix(1,0,0,1,290.434,-362.288)"
font-family="Lucida Grande" font-size="13" font-weight="400" font-style="normal" 
>
<path vector-effect="non-scaling-stroke" fill-rule="evenodd" d="M0,0 L-27.7734,173.738 L0,0"/>
</g>
</g>
<g fill="none" stroke="black" stroke-width="1" fill-rule="evenodd" stroke-linecap="square" stroke-linejoin="bevel" >

<g fill="none" stroke="#000000" stroke-opacity="1" stroke-width="1" stroke-linecap="square" stroke-linejoin="bevel" transform="matrix(1,0,0,1,56.2345,-225.221)"
font-family="Lucida Grande" font-size="13" font-weight="400" font-style="normal" 
>
<path vector-effect="non-scaling-stroke" fill-rule="evenodd" d="M0,0 L206.427,36.671 L0,0"/>
</g>
</g>
<g fill="none" stroke="black" stroke-width="1" fill-rule="evenodd" stroke-linecap="square" stroke-linejoin="bevel" >

<g fill="none" stroke="#000000" stroke-opacity="1" stroke-width="1" stroke-linecap="square" stroke-linejoin="bevel" transform="matrix(1,0,0,1,262.661,-188.55)"
font-family="Lucida Grande" font-size="13" font-weight="400" font-style="normal" 
>
<path vector-effect="non-scaling-stroke" fill-rule="evenodd" d="M0,0 L89.5918,191.946 L0,0"/>
</g>
</g>
<g fill="none" stroke="black" stroke-width="1" fill-rule="evenodd" stroke-linecap="square" stroke-linejoin="bevel" >

<g fill="none" stroke="#000000" stroke-opacity="1" stroke-width="1" stroke-linecap="square" stroke-linejoin="bevel" transform="matrix(1,0,0,1,352.253,3.39653)"
font-family="Lucida Grande" font-size="13" font-weight="400" font-style="normal" 
>
<path vector-effect="non-scaling-stroke" fill-rule="evenodd" d="M0,0 L-128.687,118.379 L0,0"/>
</g>
</g>
<g fill="none" stroke="black" stroke-width="1" fill-rule="evenodd" stroke-linecap="square" stroke-linejoin="bevel" >

<g fill="none" stroke="#000000" stroke-opacity="1" stroke-width="1" stroke-linecap="square" stroke-linejoin="bevel" transform="matrix(1,0,0,1,223.566,121.775)"
font-family="Lucida Grande" font-size="13" font-weight="400" font-style="normal" 
>
<path vector-effect="non-scaling-stroke" fill-rule="evenodd" d="M0,0 L-169.933,30.9111 L0,0"/>
</g>
</g>
<g fill="none" stroke="black" stroke-width="1" fill-rule="evenodd" stroke-linecap="square" stroke-linejoin="bevel" >

<g fill="none" stroke="#000000" stroke-opacity="1" stroke-width="1" stroke-linecap="square" stroke-linejoin="bevel" transform="matrix(1,0,0,1,53.6328,152.686)"
font-family="Lucida Grande" font-size="13" font-weight="400" font-style="normal" 
>
<path vector-effect="non-scaling-stroke" fill-rule="evenodd" d="M0,0 L-119.38,-123.49 L0,0"/>
</g>
</g>
<g fill="none" stroke="black" stroke-width="1" fill-rule="evenodd" stroke-linecap="square" stroke-linejoin="bevel" >

<g fill="none" stroke="#000000" stroke-opacity="1" stroke-width="1" stroke-linecap="square" stroke-linejoin="bevel" transform="matrix(1,0,0,1,-111.416,-137.658)"
font-family="Lucida Grande" font-size="13" font-weight="400" font-style="normal" 
>
<path vector-effect="non-scaling-stroke" fill-rule="evenodd" d="M0,0 L45.6687,166.855 L0,0"/>
</g>
</g>
<g fill="none" stroke="black" stroke-width="1" fill-rule="evenodd" stroke-linecap="square" stroke-linejoin="bevel" >

<g fill="none" stroke="#000000" stroke-opacity="1" stroke-width="1" stroke-linecap="square" stroke-linejoin="bevel" transform="matrix(1,0,0,1,-65.7474,29.1969)"
font-family="Lucida Grande" font-size="13" font-weight="400" font-style="normal" 
>
<path vector-effect="non-scaling-stroke" fill-rule="evenodd" d="M0,0 L94.7504,-111.762 L0,0"/>
</g>
</g>
<g fill="none" stroke="black" stroke-width="1" fill-rule="evenodd" stroke-linecap="square" stroke-linejoin="bevel" >

<g fill="none" stroke="#000000" stroke-opacity="1" stroke-width="1" stroke-linecap="square" stroke-linejoin="bevel" transform="matrix(1,0,0,1,-111.416,-137.658)"
font-family="Lucida Grande" font-size="13" font-weight="400" font-style="normal" 
>
<path vector-effect="non-scaling-stroke" fill-rule="evenodd" d="M0,0 L-134.145,-94.3713 L0,0"/>
</g>
</g>
<g fill="none" stroke="black" stroke-width="1" fill-rule="evenodd" stroke-linecap="square" stroke-linejoin="bevel" >

<g fill="none" stroke="#000000" stroke-opacity="1" stroke-width="1" stroke-linecap="square" stroke-linejoin="bevel" transform="matrix(1,0,0,1,29.003,-82.5647)"
font-family="Lucida Grande" font-size="13" font-weight="400" font-style="normal" 
>
<path vector-effect="non-scaling-stroke" fill-rule="evenodd" d="M0,0 L27.2315,-142.656 L0,0"/>
</g>
</g>
<g fill="none" stroke="black" stroke-width="1" fill-rule="evenodd" stroke-linecap="square" stroke-linejoin="bevel" >

<g fill="none" stroke="#000000" stroke-opacity="1" stroke-width="1" stroke-linecap="square" stroke-linejoin="bevel" transform="matrix(1,0,0,1,-111.416,-137.658)"
font-family="Lucida Grande" font-size="13" font-weight="400" font-style="normal" 
>
<path vector-effect="non-scaling-stroke" fill-rule="evenodd" d="M0,0 L167.651,-87.5624 L0,0"/>
</g>
</g>
<g fill="none" stroke="black" stroke-width="1" fill-rule="evenodd" stroke-linecap="square" stroke-linejoin="bevel" >

<g fill="none" stroke="#000000" stroke-opacity="1" stroke-width="1" stroke-linecap="square" stroke-linejoin="bevel" transform="matrix(1,0,0,1,56.2345,-225.221)"
font-family="Lucida Grande" font-size="13" font-weight="400" font-style="normal" 
>
<path vector-effect="non-scaling-stroke" fill-rule="evenodd" d="M0,0 L-99.2063,-144.947 L0,0"/>
</g>
</g>
<g fill="none" stroke="black" stroke-width="1" fill-rule="evenodd" stroke-linecap="square" stroke-linejoin="bevel" >

<g fill="none" stroke="#000000" stroke-opacity="1" stroke-width="1" stroke-linecap="square" stroke-linejoin="bevel" transform="matrix(1,0,0,1,-42.9719,-370.168)"
font-family="Lucida Grande" font-size="13" font-weight="400" font-style="normal" 
>
<path vector-effect="non-scaling-stroke" fill-rule="evenodd" d="M0,0 L-163.136,-16.6612 L0,0"/>
</g>
</g>
<g fill="none" stroke="black" stroke-width="1" fill-rule="evenodd" stroke-linecap="square" stroke-linejoin="bevel" >

<g fill="none" stroke="#000000" stroke-opacity="1" stroke-width="1" stroke-linecap="square" stroke-linejoin="bevel" transform="matrix(1,0,0,1,-206.108,-386.829)"
font-family="Lucida Grande" font-size="13" font-weight="400" font-style="normal" 
>
<path vector-effect="non-scaling-stroke" fill-rule="evenodd" d="M0,0 L-39.4536,154.799 L0,0"/>
</g>
</g>
<g fill="none" stroke="black" stroke-width="1" fill-rule="evenodd" stroke-linecap="square" stroke-linejoin="bevel" >

<g fill="none" stroke="#000000" stroke-opacity="1" stroke-width="1" stroke-linecap="square" stroke-linejoin="bevel" transform="matrix(1,0,0,1,-307.737,-501.928)"
font-family="Lucida Grande" font-size="13" font-weight="400" font-style="normal" 
>
<path vector-effect="non-scaling-stroke" fill-rule="evenodd" d="M0,0 L101.629,115.099 L0,0"/>
</g>
</g>
<g fill="none" stroke="black" stroke-width="1" fill-rule="evenodd" stroke-linecap="square" stroke-linejoin="bevel" >

<g fill="#f0f0d2" fill-opacity="1" stroke="#000000" stroke-opacity="1" stroke-width="1" stroke-linecap="square" stroke-linejoin="bevel" transform="matrix(1,0,0,1,503.747,289.607)"
font-family="Lucida Grande" font-size="13" font-weight="400" font-style="normal" 
>
<path vector-effect="non-scaling-stroke" fill-rule="evenodd" d="M-26.5,0 C-26.5,-13.8071 -15.3071,-25 -1.5,-25 L1.5,-25 C15.3071,-25 26.5,-13.8071 26.5,0 C26.5,13.8071 15.3071,25 1.5,25 L-1.5,25 C-15.3071,25 -26.5,13.8071 -26.5,0 "/>
</g>
</g>
<g fill="none" stroke="black" stroke-width="1" fill-rule="evenodd" stroke-linecap="square" stroke-linejoin="bevel" >

<g fill="#f0f0d2" fill-opacity="1" stroke="#000000" stroke-opacity="1" stroke-width="1" stroke-linecap="square" stroke-linejoin="bevel" transform="matrix(1,0,0,1,666.045,202.735)"
font-family="Lucida Grande" font-size="13" font-weight="400" font-style="normal" 
>
<path vector-effect="non-scaling-stroke" fill-rule="evenodd" d="M-26.5,0 C-26.5,-13.8071 -15.3071,-25 -1.5,-25 L1.5,-25 C15.3071,-25 26.5,-13.8071 26.5,0 C26.5,13.8071 15.3071,25 1.5,25 L-1.5,25 C-15.3071,25 -26.5,13.8071 -26.5,0 "/>
</g>
</g>
<g fill="none" stroke="black" stroke-width="1" fill-rule="evenodd" stroke-linecap="square" stroke-linejoin="bevel" >

<g fill="#f0f0d2" fill-opacity="1" stroke="#000000" stroke-opacity="1" stroke-width="1" stroke-linecap="square" stroke-linejoin="bevel" transform="matrix(1,0,0,1,635.607,17.3464)"
font-family="Lucida Grande" font-size="13" font-weight="400" font-style="normal" 
>
<path vector-effect="non-scaling-stroke" fill-rule="evenodd" d="M-26.5,0 C-26.5,-13.8071 -15.3071,-25 -1.5,-25 L1.5,-25 C15.3071,-25 26.5,-13.8071 26.5,0 C26.5,13.8071 15.3071,25 1.5,25 L-1.5,25 C-15.3071,25 -26.5,13.8071 -26.5,0 "/>
</g>
</g>
<g fill="none" stroke="black" stroke-width="1" fill-rule="evenodd" stroke-linecap="square" stroke-linejoin="bevel" >

<g fill="#f0f0d2" fill-opacity="1" stroke="#000000" stroke-opacity="1" stroke-width="1" stroke-linecap="square" stroke-linejoin="bevel" transform="matrix(1,0,0,1,511.164,120.816)"
font-family="Lucida Grande" font-size="13" font-weight="400" font-style="normal" 
>
<path vector-effect="non-scaling-stroke" fill-rule="evenodd" d="M-26.5,0 C-26.5,-13.8071 -15.3071,-25 -1.5,-25 L1.5,-25 C15.3071,-25 26.5,-13.8071 26.5,0 C26.5,13.8071 15.3071,25 1.5,25 L-1.5,25 C-15.3071,25 -26.5,13.8071 -26.5,0 "/>
</g>
</g>
<g fill="none" stroke="black" stroke-width="1" fill-rule="evenodd" stroke-linecap="square" stroke-linejoin="bevel" >

<g fill="#f0f0d2" fill-opacity="1" stroke="#000000" stroke-opacity="1" stroke-width="1" stroke-linecap="square" stroke-linejoin="bevel" transform="matrix(1,0,0,1,352.253,3.39653)"
font-family="Lucida Grande" font-size="13" font-weight="400" font-style="normal" 
>
<path vector-effect="non-scaling-stroke" fill-rule="evenodd" d="M-26.5,0 C-26.5,-13.8071 -15.3071,-25 -1.5,-25 L1.5,-25 C15.3071,-25 26.5,-13.8071 26.5,0 C26.5,13.8071 15.3071,25 1.5,25 L-1.5,25 C-15.3071,25 -26.5,13.8071 -26.5,0 "/>
</g>
</g>
<g fill="none" stroke="black" stroke-width="1" fill-rule="evenodd" stroke-linecap="square" stroke-linejoin="bevel" >

<g fill="#f0f0d2" fill-opacity="1" stroke="#000000" stroke-opacity="1" stroke-width="1" stroke-linecap="square" stroke-linejoin="bevel" transform="matrix(1,0,0,1,223.566,121.775)"
font-family="Lucida Grande" font-size="13" font-weight="400" font-style="normal" 
>
<path vector-effect="non-scaling-stroke" fill-rule="evenodd" d="M-26.5,0 C-26.5,-13.8071 -15.3071,-25 -1.5,-25 L1.5,-25 C15.3071,-25 26.5,-13.8071 26.5,0 C26.5,13.8071 15.3071,25 1.5,25 L-1.5,25 C-15.3071,25 -26.5,13.8071 -26.5,0 "/>
</g>
</g>
<g fill="none" stroke="black" stroke-width="1" fill-rule="evenodd" stroke-linecap="square" stroke-linejoin="bevel" >

<g fill="#f0f0d2" fill-opacity="1" stroke="#000000" stroke-opacity="1" stroke-width="1" stroke-linecap="square" stroke-linejoin="bevel" transform="matrix(1,0,0,1,53.6328,152.686)"
font-family="Lucida Grande" font-size="13" font-weight="400" font-style="normal" 
>
<path vector-effect="non-scaling-stroke" fill-rule="evenodd" d="M-26.5,0 C-26.5,-13.8071 -15.3071,-25 -1.5,-25 L1.5,-25 C15.3071,-25 26.5,-13.8071 26.5,0 C26.5,13.8071 15.3071,25 1.5,25 L-1.5,25 C-15.3071,25 -26.5,13.8071 -26.5,0 "/>
</g>
</g>
<g fill="none" stroke="black" stroke-width="1" fill-rule="evenodd" stroke-linecap="square" stroke-linejoin="bevel" >

<g fill="#f0f0d2" fill-opacity="1" stroke="#000000" stroke-opacity="1" stroke-width="1" stroke-linecap="square" stroke-linejoin="bevel" transform="matrix(1,0,0,1,410.432,-256.032)"
font-family="Lucida Grande" font-size="13" font-weight="400" font-style="normal" 
>
<path vector-effect="non-scaling-stroke" fill-rule="evenodd" d="M-26.5,0 C-26.5,-13.8071 -15.3071,-25 -1.5,-25 L1.5,-25 C15.3071,-25 26.5,-13.8071 26.5,0 C26.5,13.8071 15.3071,25 1.5,25 L-1.5,25 C-15.3071,25 -26.5,13.8071 -26.5,0 "/>
</g>
</g>
<g fill="none" stroke="black" stroke-width="1" fill-rule="evenodd" stroke-linecap="square" stroke-linejoin="bevel" >

<g fill="#f0f0d2" fill-opacity="1" stroke="#000000" stroke-opacity="1" stroke-width="1" stroke-linecap="square" stroke-linejoin="bevel" transform="matrix(1,0,0,1,290.434,-362.288)"
font-family="Lucida Grande" font-size="13" font-weight="400" font-style="normal" 
>
<path vector-effect="non-scaling-stroke" fill-rule="evenodd" d="M-26.5,0 C-26.5,-13.8071 -15.3071,-25 -1.5,-25 L1.5,-25 C15.3071,-25 26.5,-13.8071 26.5,0 C26.5,13.8071 15.3071,25 1.5,25 L-1.5,25 C-15.3071,25 -26.5,13.8071 -26.5,0 "/>
</g>
</g>
<g fill="none" stroke="black" stroke-width="1" fill-rule="evenodd" stroke-linecap="square" stroke-linejoin="bevel" >

<g fill="#f0f0d2" fill-opacity="1" stroke="#000000" stroke-opacity="1" stroke-width="1" stroke-linecap="square" stroke-linejoin="bevel" transform="matrix(1,0,0,1,262.661,-188.55)"
font-family="Lucida Grande" font-size="13" font-weight="400" font-style="normal" 
>
<path vector-effect="non-scaling-stroke" fill-rule="evenodd" d="M-26.5,0 C-26.5,-13.8071 -15.3071,-25 -1.5,-25 L1.5,-25 C15.3071,-25 26.5,-13.8071 26.5,0 C26.5,13.8071 15.3071,25 1.5,25 L-1.5,25 C-15.3071,25 -26.5,13.8071 -26.5,0 "/>
</g>
</g>
<g fill="none" stroke="black" stroke-width="1" fill-rule="evenodd" stroke-linecap="square" stroke-linejoin="bevel" >

<g fill="#f0f0d2" fill-opacity="1" stroke="#000000" stroke-opacity="1" stroke-width="1" stroke-linecap="square" stroke-linejoin="bevel" transform="matrix(1,0,0,1,56.2345,-225.221)"
font-family="Lucida Grande" font-size="13" font-weight="400" font-style="normal" 
>
<path vector-effect="non-scaling-stroke" fill-rule="evenodd" d="M-26.5,0 C-26.5,-13.8071 -15.3071,-25 -1.5,-25 L1.5,-25 C15.3071,-25 26.5,-13.8071 26.5,0 C26.5,13.8071 15.3071,25 1.5,25 L-1.5,25 C-15.3071,25 -26.5,13.8071 -26.5,0 "/>
</g>
</g>
<g fill="none" stroke="black" stroke-width="1" fill-rule="evenodd" stroke-linecap="square" stroke-linejoin="bevel" >

<g fill="#f0f0d2" fill-opacity="1" stroke="#000000" stroke-opacity="1" stroke-width="1" stroke-linecap="square" stroke-linejoin="bevel" transform="matrix(1,0,0,1,29.003,-82.5647)"
font-family="Lucida Grande" font-size="13" font-weight="400" font-style="normal" 
>
<path vector-effect="non-scaling-stroke" fill-rule="evenodd" d="M-26.5,0 C-26.5,-13.8071 -15.3071,-25 -1.5,-25 L1.5,-25 C15.3071,-25 26.5,-13.8071 26.5,0 C26.5,13.8071 15.3071,25 1.5,25 L-1.5,25 C-15.3071,25 -26.5,13.8071 -26.5,0 "/>
</g>
</g>
<g fill="none" stroke="black" stroke-width="1" fill-rule="evenodd" stroke-linecap="square" stroke-linejoin="bevel" >

<g fill="#f0f0d2" fill-opacity="1" stroke="#000000" stroke-opacity="1" stroke-width="1" stroke-linecap="square" stroke-linejoin="bevel" transform="matrix(1,0,0,1,-65.7474,29.1969)"
font-family="Lucida Grande" font-size="13" font-weight="400" font-style="normal" 
>
<path vector-effect="non-scaling-stroke" fill-rule="evenodd" d="M-26.5,0 C-26.5,-13.8071 -15.3071,-25 -1.5,-25 L1.5,-25 C15.3071,-25 26.5,-13.8071 26.5,0 C26.5,13.8071 15.3071,25 1.5,25 L-1.5,25 C-15.3071,25 -26.5,13.8071 -26.5,0 "/>
</g>
</g>
<g fill="none" stroke="black" stroke-width="1" fill-rule="evenodd" stroke-linecap="square" stroke-linejoin="bevel" >

<g fill="#f0f0d2" fill-opacity="1" stroke="#000000" stroke-opacity="1" stroke-width="1" stroke-linecap="square" stroke-linejoin="bevel" transform="matrix(1,0,0,1,-111.416,-137.658)"
font-family="Lucida Grande" font-size="13" font-weight="400" font-style="normal" 
>
<path vector-effect="non-scaling-stroke" fill-rule="evenodd" d="M-26.5,0 C-26.5,-13.8071 -15.3071,-25 -1.5,-25 L1.5,-25 C15.3071,-25 26.5,-13.8071 26.5,0 C26.5,13.8071 15.3071,25 1.5,25 L-1.5,25 C-15.3071,25 -26.5,13.8071 -26.5,0 "/>
</g>
</g>
<g fill="none" stroke="black" stroke-width="1" fill-rule="evenodd" stroke-linecap="square" stroke-linejoin="bevel" >

<g fill="#f0f0d2" fill-opacity="1" stroke="#000000" stroke-opacity="1" stroke-width="1" stroke-linecap="square" stroke-linejoin="bevel" transform="matrix(1,0,0,1,-245.562,-232.03)"
font-family="Lucida Grande" font-size="13" font-weight="400" font-style="normal" 
>
<path vector-effect="non-scaling-stroke" fill-rule="evenodd" d="M-26.5,0 C-26.5,-13.8071 -15.3071,-25 -1.5,-25 L1.5,-25 C15.3071,-25 26.5,-13.8071 26.5,0 C26.5,13.8071 15.3071,25 1.5,25 L-1.5,25 C-15.3071,25 -26.5,13.8071 -26.5,0 "/>
</g>
</g>
<g fill="none" stroke="black" stroke-width="1" fill-rule="evenodd" stroke-linecap="square" stroke-linejoin="bevel" >

<g fill="#f0f0d2" fill-opacity="1" stroke="#000000" stroke-opacity="1" stroke-width="1" stroke-linecap="square" stroke-linejoin="bevel" transform="matrix(1,0,0,1,-42.9719,-370.168)"
font-family="Lucida Grande" font-size="13" font-weight="400" font-style="normal" 
>
<path vector-effect="non-scaling-stroke" fill-rule="evenodd" d="M-26.5,0 C-26.5,-13.8071 -15.3071,-25 -1.5,-25 L1.5,-25 C15.3071,-25 26.5,-13.8071 26.5,0 C26.5,13.8071 15.3071,25 1.5,25 L-1.5,25 C-15.3071,25 -26.5,13.8071 -26.5,0 "/>
</g>
</g>
<g fill="none" stroke="black" stroke-width="1" fill-rule="evenodd" stroke-linecap="square" stroke-linejoin="bevel" >

<g fill="#f0f0d2" fill-opacity="1" stroke="#000000" stroke-opacity="1" stroke-width="1" stroke-linecap="square" stroke-linejoin="bevel" transform="matrix(1,0,0,1,-206.108,-386.829)"
font-family="Lucida Grande" font-size="13" font-weight="400" font-style="normal" 
>
<path vector-effect="non-scaling-stroke" fill-rule="evenodd" d="M-26.5,0 C-26.5,-13.8071 -15.3071,-25 -1.5,-25 L1.5,-25 C15.3071,-25 26.5,-13.8071 26.5,0 C26.5,13.8071 15.3071,25 1.5,25 L-1.5,25 C-15.3071,25 -26.5,13.8071 -26.5,0 "/>
</g>
</g>
<g fill="none" stroke="black" stroke-width="1" fill-rule="evenodd" stroke-linecap="square" stroke-linejoin="bevel" >

<g fill="#f0f0d2" fill-opacity="1" stroke="#000000" stroke-opacity="1" stroke-width="1" stroke-linecap="square" stroke-linejoin="bevel" transform="matrix(1,0,0,1,-307.737,-501.928)"
font-family="Lucida Grande" font-size="13" font-weight="400" font-style="normal" 
>
<path vector-effect="non-scaling-stroke" fill-rule="evenodd" d="M-26.5,0 C-26.5,-13.8071 -15.3071,-25 -1.5,-25 L1.5,-25 C15.3071,-25 26.5,-13.8071 26.5,0 C26.5,13.8071 15.3071,25 1.5,25 L-1.5,25 C-15.3071,25 -26.5,13.8071 -26.5,0 "/>
</g>
</g>
<!-- Dunnart description -->
    <dunnart:options flowSeparation="0.5" automaticGraphLayout="1" routingBuffer="4" rubberBandRouting="0" layoutBeautify="0" colourInterferingConnectors="0" penaliseCrossings="0" layoutMode="0" preventOverlaps="0" defaultIdealConnectorLength="1.44" segmentPenalty="50" layoutMethod="0" avoidBuffer="0" pageBoundaryConstraints="0"/>
    <dunnart:node width="53" cx="-307.737" cy="-501.928" height="50" type="org.dunnart.shapes.roundedRect" id="1"/>
    <dunnart:node width="53" cx="-206.108" cy="-386.829" height="50" type="org.dunnart.shapes.roundedRect" id="2"/>
    <dunnart:node width="53" cx="-42.9719" cy="-370.168" height="50" type="org.dunnart.shapes.roundedRect" id="3"/>
    <dunnart:node width="53" cx="-245.562" cy="-232.03" height="50" type="org.dunnart.shapes.roundedRect" id="4"/>
    <dunnart:node width="53" cx="-111.416" cy="-137.658" height="50" type="org.dunnart.shapes.roundedRect" id="5"/>
    <dunnart:node width="53" cx="-65.7474" cy="29.1969" height="50" type="org.dunnart.shapes.roundedRect" id="6"/>
    <dunnart:node width="53" cx="29.003" cy="-82.5647" height="50" type="org.dunnart.shapes.roundedRect" id="7"/>
    <dunnart:node width="53" cx="56.2345" cy="-225.221" height="50" type="org.dunnart.shapes.roundedRect" id="8"/>
    <dunnart:node width="53" cx="262.661" cy="-188.55" height="50" type="org.dunnart.shapes.roundedRect" id="9"/>
    <dunnart:node width="53" cx="290.434" cy="-362.288" height="50" type="org.dunnart.shapes.roundedRect" id="10"/>
    <dunnart:node width="53" cx="410.432" cy="-256.032" height="50" type="org.dunnart.shapes.roundedRect" id="11"/>
    <dunnart:node width="53" cx="53.6328" cy="152.686" height="50" type="org.dunnart.shapes.roundedRect" id="12"/>
    <dunnart:node width="53" cx="223.566" cy="121.775" height="50" type="org.dunnart.shapes.roundedRect" id="13"/>
    <dunnart:node width="53" cx="352.253" cy="3.39653" height="50" type="org.dunnart.shapes.roundedRect" id="14"/>
    <dunnart:node width="53" cx="511.164" cy="120.816" height="50" type="org.dunnart.shapes.roundedRect" id="15"/>
    <dunnart:node width="53" cx="635.607" cy="17.3464" height="50" type="org.dunnart.shapes.roundedRect" id="16"/>
    <dunnart:node width="53" cx="666.045" cy="202.735" height="50" type="org.dunnart.shapes.roundedRect" id="17"/>
    <dunnart:node width="53" cx="503.747" cy="289.607" height="50" type="org.dunnart.shapes.roundedRect" id="18"/>
    <dunnart:node dstX="-206.108" srcX="-307.737" dstY="-386.829" srcY="-501.928" srcID="1" type="connector" dstID="2" id="19"/>
    <dunnart:node dstX="-245.562" srcX="-206.108" dstY="-232.03" srcY="-386.829" srcID="2" type="connector" dstID="4" id="21"/>
    <dunnart:node dstX="-206.108" srcX="-42.9719" dstY="-386.829" srcY="-370.168" srcID="3" type="connector" dstID="2" id="22"/>
    <dunnart:node dstX="-42.9719" srcX="56.2345" dstY="-370.168" srcY="-225.221" srcID="8" type="connector" dstID="3" id="23"/>
    <dunnart:node dstX="56.2345" srcX="-111.416" dstY="-225.221" srcY="-137.658" srcID="5" type="connector" dstID="8" id="24"/>
    <dunnart:node dstX="56.2345" srcX="29.003" dstY="-225.221" srcY="-82.5647" srcID="7" type="connector" dstID="8" id="25"/>
    <dunnart:node dstX="-245.562" srcX="-111.416" dstY="-232.03" srcY="-137.658" srcID="5" type="connector" dstID="4" id="26"/>
    <dunnart:node dstX="29.003" srcX="-65.7474" dstY="-82.5647" srcY="29.1969" srcID="6" type="connector" dstID="7" id="27"/>
    <dunnart:node dstX="-65.7474" srcX="-111.416" dstY="29.1969" srcY="-137.658" srcID="5" type="connector" dstID="6" id="28"/>
    <dunnart:node dstX="-65.7474" srcX="53.6328" dstY="29.1969" srcY="152.686" srcID="12" type="connector" dstID="6" id="29"/>
    <dunnart:node dstX="53.6328" srcX="223.566" dstY="152.686" srcY="121.775" srcID="13" type="connector" dstID="12" id="30"/>
    <dunnart:node dstX="223.566" srcX="352.253" dstY="121.775" srcY="3.39653" srcID="14" type="connector" dstID="13" id="31"/>
    <dunnart:node dstX="352.253" srcX="262.661" dstY="3.39653" srcY="-188.55" srcID="9" type="connector" dstID="14" id="32"/>
    <dunnart:node dstX="262.661" srcX="56.2345" dstY="-188.55" srcY="-225.221" srcID="8" type="connector" dstID="9" id="33"/>
    <dunnart:node dstX="262.661" srcX="290.434" dstY="-188.55" srcY="-362.288" srcID="10" type="connector" dstID="9" id="34"/>
    <dunnart:node dstX="262.661" srcX="410.432" dstY="-188.55" srcY="-256.032" srcID="11" type="connector" dstID="9" id="35"/>
    <dunnart:node dstX="352.253" srcX="511.164" dstY="3.39653" srcY="120.816" srcID="15" type="connector" dstID="14" id="36"/>
    <dunnart:node dstX="511.164" srcX="635.607" dstY="120.816" srcY="17.3464" srcID="16" type="connector" dstID="15" id="37"/>
    <dunnart:node dstX="511.164" srcX="666.045" dstY="120.816" srcY="202.735" srcID="17" type="connector" dstID="15" id="38"/>
    <dunnart:node dstX="511.164" srcX="503.747" dstY="120.816" srcY="289.607" srcID="18" type="connector" dstID="15" id="39"/>
</svg>
