<?xml version="1.0" encoding="UTF-8" standalone="no"?>
<svg width="0mm" height="0mm"
 xmlns:dunnart="http://www.dunnart.org/ns/dunnart"
 xmlns="http://www.w3.org/2000/svg" xmlns:xlink="http://www.w3.org/1999/xlink"  version="1.2" baseProfile="tiny">
<title>stressExample2.svg</title>
<desc>This SVG file was saved from Dunnart.  http://www.dunnart.org/</desc>
<defs>
</defs>
<g fill="none" stroke="black" stroke-width="1" fill-rule="evenodd" stroke-linecap="square" stroke-linejoin="bevel" >

<g fill="none" stroke="#000000" stroke-opacity="1" stroke-width="1" stroke-linecap="square" stroke-linejoin="bevel" transform="matrix(1,0,0,1,-352.749,-150.122)"
font-family="Lucida Grande" font-size="13" font-weight="400" font-style="normal" 
>
<path vector-effect="non-scaling-stroke" fill-rule="evenodd" d="M0,0 L87.5219,-71.3158 L0,0"/>
</g>
</g>
<g fill="none" stroke="black" stroke-width="1" fill-rule="evenodd" stroke-linecap="square" stroke-linejoin="bevel" >

<g fill="none" stroke="#000000" stroke-opacity="1" stroke-width="1" stroke-linecap="square" stroke-linejoin="bevel" transform="matrix(1,0,0,1,-340.686,-306.368)"
font-family="Lucida Grande" font-size="13" font-weight="400" font-style="normal" 
>
<path vector-effect="non-scaling-stroke" fill-rule="evenodd" d="M0,0 L75.4588,84.9295 L0,0"/>
</g>
</g>
<g fill="none" stroke="black" stroke-width="1" fill-rule="evenodd" stroke-linecap="square" stroke-linejoin="bevel" >

<g fill="none" stroke="#000000" stroke-opacity="1" stroke-width="1" stroke-linecap="square" stroke-linejoin="bevel" transform="matrix(1,0,0,1,-265.227,-221.438)"
font-family="Lucida Grande" font-size="13" font-weight="400" font-style="normal" 
>
<path vector-effect="non-scaling-stroke" fill-rule="evenodd" d="M0,0 L125.162,11.7943 L0,0"/>
</g>
</g>
<g fill="none" stroke="black" stroke-width="1" fill-rule="evenodd" stroke-linecap="square" stroke-linejoin="bevel" >

<g fill="none" stroke="#000000" stroke-opacity="1" stroke-width="1" stroke-linecap="square" stroke-linejoin="bevel" transform="matrix(1,0,0,1,-140.065,-209.644)"
font-family="Lucida Grande" font-size="13" font-weight="400" font-style="normal" 
>
<path vector-effect="non-scaling-stroke" fill-rule="evenodd" d="M0,0 L131.641,5.53099 L0,0"/>
</g>
</g>
<g fill="none" stroke="black" stroke-width="1" fill-rule="evenodd" stroke-linecap="square" stroke-linejoin="bevel" >

<g fill="none" stroke="#000000" stroke-opacity="1" stroke-width="1" stroke-linecap="square" stroke-linejoin="bevel" transform="matrix(1,0,0,1,-40.0996,33.2041)"
font-family="Lucida Grande" font-size="13" font-weight="400" font-style="normal" 
>
<path vector-effect="non-scaling-stroke" fill-rule="evenodd" d="M0,0 L46.9324,-106.42 L0,0"/>
</g>
</g>
<g fill="none" stroke="black" stroke-width="1" fill-rule="evenodd" stroke-linecap="square" stroke-linejoin="bevel" >

<g fill="none" stroke="#000000" stroke-opacity="1" stroke-width="1" stroke-linecap="square" stroke-linejoin="bevel" transform="matrix(1,0,0,1,92.4555,6.67452)"
font-family="Lucida Grande" font-size="13" font-weight="400" font-style="normal" 
>
<path vector-effect="non-scaling-stroke" fill-rule="evenodd" d="M0,0 L-85.6227,-79.8907 L0,0"/>
</g>
</g>
<g fill="none" stroke="black" stroke-width="1" fill-rule="evenodd" stroke-linecap="square" stroke-linejoin="bevel" >

<g fill="none" stroke="#000000" stroke-opacity="1" stroke-width="1" stroke-linecap="square" stroke-linejoin="bevel" transform="matrix(1,0,0,1,232.241,-238.065)"
font-family="Lucida Grande" font-size="13" font-weight="400" font-style="normal" 
>
<path vector-effect="non-scaling-stroke" fill-rule="evenodd" d="M0,0 L-113.942,18.7488 L0,0"/>
</g>
</g>
<g fill="none" stroke="black" stroke-width="1" fill-rule="evenodd" stroke-linecap="square" stroke-linejoin="bevel" >

<g fill="none" stroke="#000000" stroke-opacity="1" stroke-width="1" stroke-linecap="square" stroke-linejoin="bevel" transform="matrix(1,0,0,1,118.299,-219.316)"
font-family="Lucida Grande" font-size="13" font-weight="400" font-style="normal" 
>
<path vector-effect="non-scaling-stroke" fill-rule="evenodd" d="M0,0 L-126.723,15.2029 L0,0"/>
</g>
</g>
<g fill="none" stroke="black" stroke-width="1" fill-rule="evenodd" stroke-linecap="square" stroke-linejoin="bevel" >

<g fill="none" stroke="#000000" stroke-opacity="1" stroke-width="1" stroke-linecap="square" stroke-linejoin="bevel" transform="matrix(1,0,0,1,6.83275,-73.2162)"
font-family="Lucida Grande" font-size="13" font-weight="400" font-style="normal" 
>
<path vector-effect="non-scaling-stroke" fill-rule="evenodd" d="M0,0 L-15.2568,-130.897 L0,0"/>
</g>
</g>
<g fill="none" stroke="black" stroke-width="1" fill-rule="evenodd" stroke-linecap="square" stroke-linejoin="bevel" >

<g fill="none" stroke="#000000" stroke-opacity="1" stroke-width="1" stroke-linecap="square" stroke-linejoin="bevel" transform="matrix(1,0,0,1,-8.42401,-204.113)"
font-family="Lucida Grande" font-size="13" font-weight="400" font-style="normal" 
>
<path vector-effect="non-scaling-stroke" fill-rule="evenodd" d="M0,0 L3.52185,-127.025 L0,0"/>
</g>
</g>
<g fill="none" stroke="black" stroke-width="1" fill-rule="evenodd" stroke-linecap="square" stroke-linejoin="bevel" >

<g fill="none" stroke="#000000" stroke-opacity="1" stroke-width="1" stroke-linecap="square" stroke-linejoin="bevel" transform="matrix(1,0,0,1,10.824,-445.459)"
font-family="Lucida Grande" font-size="13" font-weight="400" font-style="normal" 
>
<path vector-effect="non-scaling-stroke" fill-rule="evenodd" d="M0,0 L-15.7262,114.321 L0,0"/>
</g>
</g>
<g fill="none" stroke="black" stroke-width="1" fill-rule="evenodd" stroke-linecap="square" stroke-linejoin="bevel" >

<g fill="#f0f0d2" fill-opacity="1" stroke="#000000" stroke-opacity="1" stroke-width="1" stroke-linecap="square" stroke-linejoin="bevel" transform="matrix(1,0,0,1,-352.749,-150.122)"
font-family="Lucida Grande" font-size="13" font-weight="400" font-style="normal" 
>
<path vector-effect="non-scaling-stroke" fill-rule="evenodd" d="M-25.5,0 C-25.5,-13.8071 -14.3071,-25 -0.5,-25 L0.5,-25 C14.3071,-25 25.5,-13.8071 25.5,0 C25.5,13.8071 14.3071,25 0.5,25 L-0.5,25 C-14.3071,25 -25.5,13.8071 -25.5,0 "/>
</g>
</g>
<g fill="none" stroke="black" stroke-width="1" fill-rule="evenodd" stroke-linecap="square" stroke-linejoin="bevel" >

<g fill="#f0f0d2" fill-opacity="1" stroke="#000000" stroke-opacity="1" stroke-width="1" stroke-linecap="square" stroke-linejoin="bevel" transform="matrix(1,0,0,1,-340.686,-306.368)"
font-family="Lucida Grande" font-size="13" font-weight="400" font-style="normal" 
>
<path vector-effect="non-scaling-stroke" fill-rule="evenodd" d="M-25.5,0 C-25.5,-13.8071 -14.3071,-25 -0.5,-25 L0.5,-25 C14.3071,-25 25.5,-13.8071 25.5,0 C25.5,13.8071 14.3071,25 0.5,25 L-0.5,25 C-14.3071,25 -25.5,13.8071 -25.5,0 "/>
</g>
</g>
<g fill="none" stroke="black" stroke-width="1" fill-rule="evenodd" stroke-linecap="square" stroke-linejoin="bevel" >

<g fill="#f0f0d2" fill-opacity="1" stroke="#000000" stroke-opacity="1" stroke-width="1" stroke-linecap="square" stroke-linejoin="bevel" transform="matrix(1,0,0,1,-265.227,-221.438)"
font-family="Lucida Grande" font-size="13" font-weight="400" font-style="normal" 
>
<path vector-effect="non-scaling-stroke" fill-rule="evenodd" d="M-25.5,0 C-25.5,-13.8071 -14.3071,-25 -0.5,-25 L0.5,-25 C14.3071,-25 25.5,-13.8071 25.5,0 C25.5,13.8071 14.3071,25 0.5,25 L-0.5,25 C-14.3071,25 -25.5,13.8071 -25.5,0 "/>
</g>
</g>
<g fill="none" stroke="black" stroke-width="1" fill-rule="evenodd" stroke-linecap="square" stroke-linejoin="bevel" >

<g fill="#f0f0d2" fill-opacity="1" stroke="#000000" stroke-opacity="1" stroke-width="1" stroke-linecap="square" stroke-linejoin="bevel" transform="matrix(1,0,0,1,-140.065,-209.644)"
font-family="Lucida Grande" font-size="13" font-weight="400" font-style="normal" 
>
<path vector-effect="non-scaling-stroke" fill-rule="evenodd" d="M-25.5,0 C-25.5,-13.8071 -14.3071,-25 -0.5,-25 L0.5,-25 C14.3071,-25 25.5,-13.8071 25.5,0 C25.5,13.8071 14.3071,25 0.5,25 L-0.5,25 C-14.3071,25 -25.5,13.8071 -25.5,0 "/>
</g>
</g>
<g fill="none" stroke="black" stroke-width="1" fill-rule="evenodd" stroke-linecap="square" stroke-linejoin="bevel" >

<g fill="#f0f0d2" fill-opacity="1" stroke="#000000" stroke-opacity="1" stroke-width="1" stroke-linecap="square" stroke-linejoin="bevel" transform="matrix(1,0,0,1,92.4555,6.67452)"
font-family="Lucida Grande" font-size="13" font-weight="400" font-style="normal" 
>
<path vector-effect="non-scaling-stroke" fill-rule="evenodd" d="M-25.5,0 C-25.5,-13.8071 -14.3071,-25 -0.5,-25 L0.5,-25 C14.3071,-25 25.5,-13.8071 25.5,0 C25.5,13.8071 14.3071,25 0.5,25 L-0.5,25 C-14.3071,25 -25.5,13.8071 -25.5,0 "/>
</g>
</g>
<g fill="none" stroke="black" stroke-width="1" fill-rule="evenodd" stroke-linecap="square" stroke-linejoin="bevel" >

<g fill="#f0f0d2" fill-opacity="1" stroke="#000000" stroke-opacity="1" stroke-width="1" stroke-linecap="square" stroke-linejoin="bevel" transform="matrix(1,0,0,1,-40.0996,33.2041)"
font-family="Lucida Grande" font-size="13" font-weight="400" font-style="normal" 
>
<path vector-effect="non-scaling-stroke" fill-rule="evenodd" d="M-25.5,0 C-25.5,-13.8071 -14.3071,-25 -0.5,-25 L0.5,-25 C14.3071,-25 25.5,-13.8071 25.5,0 C25.5,13.8071 14.3071,25 0.5,25 L-0.5,25 C-14.3071,25 -25.5,13.8071 -25.5,0 "/>
</g>
</g>
<g fill="none" stroke="black" stroke-width="1" fill-rule="evenodd" stroke-linecap="square" stroke-linejoin="bevel" >

<g fill="#f0f0d2" fill-opacity="1" stroke="#000000" stroke-opacity="1" stroke-width="1" stroke-linecap="square" stroke-linejoin="bevel" transform="matrix(1,0,0,1,6.83275,-73.2162)"
font-family="Lucida Grande" font-size="13" font-weight="400" font-style="normal" 
>
<path vector-effect="non-scaling-stroke" fill-rule="evenodd" d="M-25.5,0 C-25.5,-13.8071 -14.3071,-25 -0.5,-25 L0.5,-25 C14.3071,-25 25.5,-13.8071 25.5,0 C25.5,13.8071 14.3071,25 0.5,25 L-0.5,25 C-14.3071,25 -25.5,13.8071 -25.5,0 "/>
</g>
</g>
<g fill="none" stroke="black" stroke-width="1" fill-rule="evenodd" stroke-linecap="square" stroke-linejoin="bevel" >

<g fill="#f0f0d2" fill-opacity="1" stroke="#000000" stroke-opacity="1" stroke-width="1" stroke-linecap="square" stroke-linejoin="bevel" transform="matrix(1,0,0,1,232.241,-238.065)"
font-family="Lucida Grande" font-size="13" font-weight="400" font-style="normal" 
>
<path vector-effect="non-scaling-stroke" fill-rule="evenodd" d="M-25.5,0 C-25.5,-13.8071 -14.3071,-25 -0.5,-25 L0.5,-25 C14.3071,-25 25.5,-13.8071 25.5,0 C25.5,13.8071 14.3071,25 0.5,25 L-0.5,25 C-14.3071,25 -25.5,13.8071 -25.5,0 "/>
</g>
</g>
<g fill="none" stroke="black" stroke-width="1" fill-rule="evenodd" stroke-linecap="square" stroke-linejoin="bevel" >

<g fill="#f0f0d2" fill-opacity="1" stroke="#000000" stroke-opacity="1" stroke-width="1" stroke-linecap="square" stroke-linejoin="bevel" transform="matrix(1,0,0,1,118.299,-219.316)"
font-family="Lucida Grande" font-size="13" font-weight="400" font-style="normal" 
>
<path vector-effect="non-scaling-stroke" fill-rule="evenodd" d="M-25.5,0 C-25.5,-13.8071 -14.3071,-25 -0.5,-25 L0.5,-25 C14.3071,-25 25.5,-13.8071 25.5,0 C25.5,13.8071 14.3071,25 0.5,25 L-0.5,25 C-14.3071,25 -25.5,13.8071 -25.5,0 "/>
</g>
</g>
<g fill="none" stroke="black" stroke-width="1" fill-rule="evenodd" stroke-linecap="square" stroke-linejoin="bevel" >

<g fill="#f0f0d2" fill-opacity="1" stroke="#000000" stroke-opacity="1" stroke-width="1" stroke-linecap="square" stroke-linejoin="bevel" transform="matrix(1,0,0,1,10.824,-445.459)"
font-family="Lucida Grande" font-size="13" font-weight="400" font-style="normal" 
>
<path vector-effect="non-scaling-stroke" fill-rule="evenodd" d="M-25.5,0 C-25.5,-13.8071 -14.3071,-25 -0.5,-25 L0.5,-25 C14.3071,-25 25.5,-13.8071 25.5,0 C25.5,13.8071 14.3071,25 0.5,25 L-0.5,25 C-14.3071,25 -25.5,13.8071 -25.5,0 "/>
</g>
</g>
<g fill="none" stroke="black" stroke-width="1" fill-rule="evenodd" stroke-linecap="square" stroke-linejoin="bevel" >

<g fill="#f0f0d2" fill-opacity="1" stroke="#000000" stroke-opacity="1" stroke-width="1" stroke-linecap="square" stroke-linejoin="bevel" transform="matrix(1,0,0,1,-4.90216,-331.138)"
font-family="Lucida Grande" font-size="13" font-weight="400" font-style="normal" 
>
<path vector-effect="non-scaling-stroke" fill-rule="evenodd" d="M-25.5,0 C-25.5,-13.8071 -14.3071,-25 -0.5,-25 L0.5,-25 C14.3071,-25 25.5,-13.8071 25.5,0 C25.5,13.8071 14.3071,25 0.5,25 L-0.5,25 C-14.3071,25 -25.5,13.8071 -25.5,0 "/>
</g>
</g>
<g fill="none" stroke="black" stroke-width="1" fill-rule="evenodd" stroke-linecap="square" stroke-linejoin="bevel" >

<g fill="#f0f0d2" fill-opacity="1" stroke="#000000" stroke-opacity="1" stroke-width="1" stroke-linecap="square" stroke-linejoin="bevel" transform="matrix(1,0,0,1,-8.42401,-204.113)"
font-family="Lucida Grande" font-size="13" font-weight="400" font-style="normal" 
>
<path vector-effect="non-scaling-stroke" fill-rule="evenodd" d="M-25.5,0 C-25.5,-13.8071 -14.3071,-25 -0.5,-25 L0.5,-25 C14.3071,-25 25.5,-13.8071 25.5,0 C25.5,13.8071 14.3071,25 0.5,25 L-0.5,25 C-14.3071,25 -25.5,13.8071 -25.5,0 "/>
</g>
</g>
<!-- Dunnart description -->
    <dunnart:options flowSeparation="0.5" automaticGraphLayout="1" routingBuffer="4" rubberBandRouting="0" layoutBeautify="0" colourInterferingConnectors="0" penaliseCrossings="0" layoutMode="0" preventOverlaps="0" defaultIdealConnectorLength="1" segmentPenalty="50" layoutMethod="0" avoidBuffer="0" pageBoundaryConstraints="0"/>
    <dunnart:node width="51" cx="-8.42401" cy="-204.113" height="50" type="org.dunnart.shapes.roundedRect" id="1"/>
    <dunnart:node width="51" cx="-4.90216" cy="-331.138" height="50" type="org.dunnart.shapes.roundedRect" id="2"/>
    <dunnart:node width="51" cx="10.824" cy="-445.459" height="50" type="org.dunnart.shapes.roundedRect" id="3"/>
    <dunnart:node width="51" cx="118.299" cy="-219.316" height="50" type="org.dunnart.shapes.roundedRect" id="4"/>
    <dunnart:node width="51" cx="232.241" cy="-238.065" height="50" type="org.dunnart.shapes.roundedRect" id="5"/>
    <dunnart:node width="51" cx="6.83275" cy="-73.2162" height="50" type="org.dunnart.shapes.roundedRect" id="6"/>
    <dunnart:node width="51" cx="-40.0996" cy="33.2041" height="50" type="org.dunnart.shapes.roundedRect" id="7"/>
    <dunnart:node width="51" cx="92.4555" cy="6.67452" height="50" type="org.dunnart.shapes.roundedRect" id="8"/>
    <dunnart:node width="51" cx="-140.065" cy="-209.644" height="50" type="org.dunnart.shapes.roundedRect" id="9"/>
    <dunnart:node width="51" cx="-265.227" cy="-221.438" height="50" type="org.dunnart.shapes.roundedRect" id="10"/>
    <dunnart:node width="51" cx="-340.686" cy="-306.368" height="50" type="org.dunnart.shapes.roundedRect" id="11"/>
    <dunnart:node width="51" cx="-352.749" cy="-150.122" height="50" type="org.dunnart.shapes.roundedRect" id="12"/>
    <dunnart:node dstX="-4.90216" srcX="10.824" dstY="-331.138" srcY="-445.459" srcID="3" type="connector" dstID="2" id="13"/>
    <dunnart:node dstX="-4.90216" srcX="-8.42401" dstY="-331.138" srcY="-204.113" srcID="1" type="connector" dstID="2" id="14"/>
    <dunnart:node dstX="-8.42401" srcX="6.83275" dstY="-204.113" srcY="-73.2162" srcID="6" type="connector" dstID="1" id="15"/>
    <dunnart:node dstX="-8.42401" srcX="118.299" dstY="-204.113" srcY="-219.316" srcID="4" type="connector" dstID="1" id="16"/>
    <dunnart:node dstX="118.299" srcX="232.241" dstY="-219.316" srcY="-238.065" srcID="5" type="connector" dstID="4" id="17"/>
    <dunnart:node dstX="6.83275" srcX="92.4555" dstY="-73.2162" srcY="6.67452" srcID="8" type="connector" dstID="6" id="18"/>
    <dunnart:node dstX="6.83275" srcX="-40.0996" dstY="-73.2162" srcY="33.2041" srcID="7" type="connector" dstID="6" id="19"/>
    <dunnart:node dstX="-8.42401" srcX="-140.065" dstY="-204.113" srcY="-209.644" srcID="9" type="connector" dstID="1" id="20"/>
    <dunnart:node dstX="-140.065" srcX="-265.227" dstY="-209.644" srcY="-221.438" srcID="10" type="connector" dstID="9" id="21"/>
    <dunnart:node dstX="-265.227" srcX="-340.686" dstY="-221.438" srcY="-306.368" srcID="11" type="connector" dstID="10" id="22"/>
    <dunnart:node dstX="-265.227" srcX="-352.749" dstY="-221.438" srcY="-150.122" srcID="12" type="connector" dstID="10" id="23"/>
</svg>
