<?xml version="1.0" encoding="UTF-8" standalone="no"?>
<svg width="0mm" height="0mm"
 xmlns:dunnart="http://www.dunnart.org/ns/dunnart"
 xmlns="http://www.w3.org/2000/svg" xmlns:xlink="http://www.w3.org/1999/xlink"  version="1.2" baseProfile="tiny">
<title>tesseract.svg</title>
<desc>This SVG file was saved from Dunnart.  http://www.dunnart.org/</desc>
<defs>
</defs>
<g fill="none" stroke="black" stroke-width="1" fill-rule="evenodd" stroke-linecap="square" stroke-linejoin="bevel" >

<g fill="none" stroke="#000000" stroke-opacity="1" stroke-width="1" stroke-linecap="square" stroke-linejoin="bevel" transform="matrix(1,0,0,1,-271,-237)"
font-family="Ubuntu" font-size="11" font-weight="400" font-style="normal" 
>
<path vector-effect="non-scaling-stroke" fill-rule="evenodd" d="M0,0 L106,104 L0,0"/>
</g>
</g>
<g fill="none" stroke="black" stroke-width="1" fill-rule="evenodd" stroke-linecap="square" stroke-linejoin="bevel" >

<g fill="none" stroke="#000000" stroke-opacity="1" stroke-width="1" stroke-linecap="square" stroke-linejoin="bevel" transform="matrix(1,0,0,1,-283,206)"
font-family="Ubuntu" font-size="11" font-weight="400" font-style="normal" 
>
<path vector-effect="non-scaling-stroke" fill-rule="evenodd" d="M0,0 L113,-126 L0,0"/>
</g>
</g>
<g fill="none" stroke="black" stroke-width="1" fill-rule="evenodd" stroke-linecap="square" stroke-linejoin="bevel" >

<g fill="none" stroke="#000000" stroke-opacity="1" stroke-width="1" stroke-linecap="square" stroke-linejoin="bevel" transform="matrix(1,0,0,1,156,208)"
font-family="Ubuntu" font-size="11" font-weight="400" font-style="normal" 
>
<path vector-effect="non-scaling-stroke" fill-rule="evenodd" d="M0,0 L-131,-135 L0,0"/>
</g>
</g>
<g fill="none" stroke="black" stroke-width="1" fill-rule="evenodd" stroke-linecap="square" stroke-linejoin="bevel" >

<g fill="none" stroke="#000000" stroke-opacity="1" stroke-width="1" stroke-linecap="square" stroke-linejoin="bevel" transform="matrix(1,0,0,1,126,-239)"
font-family="Ubuntu" font-size="11" font-weight="400" font-style="normal" 
>
<path vector-effect="non-scaling-stroke" fill-rule="evenodd" d="M0,0 L-110,98 L0,0"/>
</g>
</g>
<g fill="none" stroke="black" stroke-width="1" fill-rule="evenodd" stroke-linecap="square" stroke-linejoin="bevel" >

<g fill="none" stroke="#000000" stroke-opacity="1" stroke-width="1" stroke-linecap="square" stroke-linejoin="bevel" transform="matrix(1,0,0,1,-165,-133)"
font-family="Ubuntu" font-size="11" font-weight="400" font-style="normal" 
>
<path vector-effect="non-scaling-stroke" fill-rule="evenodd" d="M0,0 L-5,213 L0,0"/>
</g>
</g>
<g fill="none" stroke="black" stroke-width="1" fill-rule="evenodd" stroke-linecap="square" stroke-linejoin="bevel" >

<g fill="none" stroke="#000000" stroke-opacity="1" stroke-width="1" stroke-linecap="square" stroke-linejoin="bevel" transform="matrix(1,0,0,1,-170,80)"
font-family="Ubuntu" font-size="11" font-weight="400" font-style="normal" 
>
<path vector-effect="non-scaling-stroke" fill-rule="evenodd" d="M0,0 L195,-7 L0,0"/>
</g>
</g>
<g fill="none" stroke="black" stroke-width="1" fill-rule="evenodd" stroke-linecap="square" stroke-linejoin="bevel" >

<g fill="none" stroke="#000000" stroke-opacity="1" stroke-width="1" stroke-linecap="square" stroke-linejoin="bevel" transform="matrix(1,0,0,1,25,73)"
font-family="Ubuntu" font-size="11" font-weight="400" font-style="normal" 
>
<path vector-effect="non-scaling-stroke" fill-rule="evenodd" d="M0,0 L-9,-214 L0,0"/>
</g>
</g>
<g fill="none" stroke="black" stroke-width="1" fill-rule="evenodd" stroke-linecap="square" stroke-linejoin="bevel" >

<g fill="none" stroke="#000000" stroke-opacity="1" stroke-width="1" stroke-linecap="square" stroke-linejoin="bevel" transform="matrix(1,0,0,1,-165,-133)"
font-family="Ubuntu" font-size="11" font-weight="400" font-style="normal" 
>
<path vector-effect="non-scaling-stroke" fill-rule="evenodd" d="M0,0 L181,-8 L0,0"/>
</g>
</g>
<g fill="none" stroke="black" stroke-width="1" fill-rule="evenodd" stroke-linecap="square" stroke-linejoin="bevel" >

<g fill="none" stroke="#000000" stroke-opacity="1" stroke-width="1" stroke-linecap="square" stroke-linejoin="bevel" transform="matrix(1,0,0,1,-271,-237)"
font-family="Ubuntu" font-size="11" font-weight="400" font-style="normal" 
>
<path vector-effect="non-scaling-stroke" fill-rule="evenodd" d="M0,0 L397,-2 L0,0"/>
</g>
</g>
<g fill="none" stroke="black" stroke-width="1" fill-rule="evenodd" stroke-linecap="square" stroke-linejoin="bevel" >

<g fill="none" stroke="#000000" stroke-opacity="1" stroke-width="1" stroke-linecap="square" stroke-linejoin="bevel" transform="matrix(1,0,0,1,126,-239)"
font-family="Ubuntu" font-size="11" font-weight="400" font-style="normal" 
>
<path vector-effect="non-scaling-stroke" fill-rule="evenodd" d="M0,0 L30,447 L0,0"/>
</g>
</g>
<g fill="none" stroke="black" stroke-width="1" fill-rule="evenodd" stroke-linecap="square" stroke-linejoin="bevel" >

<g fill="none" stroke="#000000" stroke-opacity="1" stroke-width="1" stroke-linecap="square" stroke-linejoin="bevel" transform="matrix(1,0,0,1,156,208)"
font-family="Ubuntu" font-size="11" font-weight="400" font-style="normal" 
>
<path vector-effect="non-scaling-stroke" fill-rule="evenodd" d="M0,0 L-439,-2 L0,0"/>
</g>
</g>
<g fill="none" stroke="black" stroke-width="1" fill-rule="evenodd" stroke-linecap="square" stroke-linejoin="bevel" >

<g fill="none" stroke="#000000" stroke-opacity="1" stroke-width="1" stroke-linecap="square" stroke-linejoin="bevel" transform="matrix(1,0,0,1,-271,-237)"
font-family="Ubuntu" font-size="11" font-weight="400" font-style="normal" 
>
<path vector-effect="non-scaling-stroke" fill-rule="evenodd" d="M0,0 L-12,443 L0,0"/>
</g>
</g>
<g fill="none" stroke="black" stroke-width="1" fill-rule="evenodd" stroke-linecap="square" stroke-linejoin="bevel" >

<g fill="#f0f0d2" fill-opacity="1" stroke="#000000" stroke-opacity="1" stroke-width="1" stroke-linecap="square" stroke-linejoin="bevel" transform="matrix(1,0,0,1,-165,-133)"
font-family="Ubuntu" font-size="11" font-weight="400" font-style="normal" 
>
<path vector-effect="non-scaling-stroke" fill-rule="evenodd" d="M-35,-25 L35,-25 L35,25 L-35,25 L-35,-25"/>
</g>
</g>
<g fill="none" stroke="black" stroke-width="1" fill-rule="evenodd" stroke-linecap="square" stroke-linejoin="bevel" >

<g fill="#f0f0d2" fill-opacity="1" stroke="#000000" stroke-opacity="1" stroke-width="1" stroke-linecap="square" stroke-linejoin="bevel" transform="matrix(1,0,0,1,16,-141)"
font-family="Ubuntu" font-size="11" font-weight="400" font-style="normal" 
>
<path vector-effect="non-scaling-stroke" fill-rule="evenodd" d="M-35,-25 L35,-25 L35,25 L-35,25 L-35,-25"/>
</g>
</g>
<g fill="none" stroke="black" stroke-width="1" fill-rule="evenodd" stroke-linecap="square" stroke-linejoin="bevel" >

<g fill="#f0f0d2" fill-opacity="1" stroke="#000000" stroke-opacity="1" stroke-width="1" stroke-linecap="square" stroke-linejoin="bevel" transform="matrix(1,0,0,1,25,73)"
font-family="Ubuntu" font-size="11" font-weight="400" font-style="normal" 
>
<path vector-effect="non-scaling-stroke" fill-rule="evenodd" d="M-35,-25 L35,-25 L35,25 L-35,25 L-35,-25"/>
</g>
</g>
<g fill="none" stroke="black" stroke-width="1" fill-rule="evenodd" stroke-linecap="square" stroke-linejoin="bevel" >

<g fill="#f0f0d2" fill-opacity="1" stroke="#000000" stroke-opacity="1" stroke-width="1" stroke-linecap="square" stroke-linejoin="bevel" transform="matrix(1,0,0,1,-170,80)"
font-family="Ubuntu" font-size="11" font-weight="400" font-style="normal" 
>
<path vector-effect="non-scaling-stroke" fill-rule="evenodd" d="M-35,-25 L35,-25 L35,25 L-35,25 L-35,-25"/>
</g>
</g>
<g fill="none" stroke="black" stroke-width="1" fill-rule="evenodd" stroke-linecap="square" stroke-linejoin="bevel" >

<g fill="#f0f0d2" fill-opacity="1" stroke="#000000" stroke-opacity="1" stroke-width="1" stroke-linecap="square" stroke-linejoin="bevel" transform="matrix(1,0,0,1,156,208)"
font-family="Ubuntu" font-size="11" font-weight="400" font-style="normal" 
>
<path vector-effect="non-scaling-stroke" fill-rule="evenodd" d="M-35,-25 L35,-25 L35,25 L-35,25 L-35,-25"/>
</g>
</g>
<g fill="none" stroke="black" stroke-width="1" fill-rule="evenodd" stroke-linecap="square" stroke-linejoin="bevel" >

<g fill="#f0f0d2" fill-opacity="1" stroke="#000000" stroke-opacity="1" stroke-width="1" stroke-linecap="square" stroke-linejoin="bevel" transform="matrix(1,0,0,1,-283,206)"
font-family="Ubuntu" font-size="11" font-weight="400" font-style="normal" 
>
<path vector-effect="non-scaling-stroke" fill-rule="evenodd" d="M-35,-25 L35,-25 L35,25 L-35,25 L-35,-25"/>
</g>
</g>
<g fill="none" stroke="black" stroke-width="1" fill-rule="evenodd" stroke-linecap="square" stroke-linejoin="bevel" >

<g fill="#f0f0d2" fill-opacity="1" stroke="#000000" stroke-opacity="1" stroke-width="1" stroke-linecap="square" stroke-linejoin="bevel" transform="matrix(1,0,0,1,126,-239)"
font-family="Ubuntu" font-size="11" font-weight="400" font-style="normal" 
>
<path vector-effect="non-scaling-stroke" fill-rule="evenodd" d="M-35,-25 L35,-25 L35,25 L-35,25 L-35,-25"/>
</g>
</g>
<g fill="none" stroke="black" stroke-width="1" fill-rule="evenodd" stroke-linecap="square" stroke-linejoin="bevel" >

<g fill="#f0f0d2" fill-opacity="1" stroke="#000000" stroke-opacity="1" stroke-width="1" stroke-linecap="square" stroke-linejoin="bevel" transform="matrix(1,0,0,1,-271,-237)"
font-family="Ubuntu" font-size="11" font-weight="400" font-style="normal" 
>
<path vector-effect="non-scaling-stroke" fill-rule="evenodd" d="M-35,-25 L35,-25 L35,25 L-35,25 L-35,-25"/>
</g>
</g>
<!-- Dunnart description -->
    <dunnart:options flowSeparation="0.5" automaticGraphLayout="0" routingBuffer="4" rubberBandRouting="0" layoutBeautify="0" colourInterferingConnectors="0" penaliseCrossings="0" layoutMode="0" preventOverlaps="0" defaultIdealConnectorLength="1" segmentPenalty="50" layoutMethod="0" avoidBuffer="0" pageBoundaryConstraints="0"/>
    <dunnart:node width="70" cx="-271" cy="-237" height="50" type="org.dunnart.shapes.rect" id="1"/>
    <dunnart:node width="70" cx="126" cy="-239" height="50" type="org.dunnart.shapes.rect" id="2"/>
    <dunnart:node width="70" cx="-283" cy="206" height="50" type="org.dunnart.shapes.rect" id="3"/>
    <dunnart:node width="70" cx="156" cy="208" height="50" type="org.dunnart.shapes.rect" id="4"/>
    <dunnart:node width="70" cx="-170" cy="80" height="50" type="org.dunnart.shapes.rect" id="5"/>
    <dunnart:node width="70" cx="25" cy="73" height="50" type="org.dunnart.shapes.rect" id="6"/>
    <dunnart:node width="70" cx="16" cy="-141" height="50" type="org.dunnart.shapes.rect" id="7"/>
    <dunnart:node width="70" cx="-165" cy="-133" height="50" type="org.dunnart.shapes.rect" id="8"/>
    <dunnart:node dstX="-283" srcX="-271" dstY="206" srcY="-237" srcID="1" type="connector" dstID="3" id="9"/>
    <dunnart:node dstX="-283" srcX="156" dstY="206" srcY="208" srcID="4" type="connector" dstID="3" id="10"/>
    <dunnart:node dstX="156" srcX="126" dstY="208" srcY="-239" srcID="2" type="connector" dstID="4" id="11"/>
    <dunnart:node dstX="126" srcX="-271" dstY="-239" srcY="-237" srcID="1" type="connector" dstID="2" id="12"/>
    <dunnart:node dstX="16" srcX="-165" dstY="-141" srcY="-133" srcID="8" type="connector" dstID="7" id="13"/>
    <dunnart:node dstX="16" srcX="25" dstY="-141" srcY="73" srcID="6" type="connector" dstID="7" id="14"/>
    <dunnart:node dstX="25" srcX="-170" dstY="73" srcY="80" srcID="5" type="connector" dstID="6" id="15"/>
    <dunnart:node dstX="-170" srcX="-165" dstY="80" srcY="-133" srcID="8" type="connector" dstID="5" id="16"/>
    <dunnart:node dstX="16" srcX="126" dstY="-141" srcY="-239" srcID="2" type="connector" dstID="7" id="17"/>
    <dunnart:node dstX="25" srcX="156" dstY="73" srcY="208" srcID="4" type="connector" dstID="6" id="18"/>
    <dunnart:node dstX="-170" srcX="-283" dstY="80" srcY="206" srcID="3" type="connector" dstID="5" id="19"/>
    <dunnart:node dstX="-165" srcX="-271" dstY="-133" srcY="-237" srcID="1" type="connector" dstID="8" id="20"/>
</svg>
