<?xml version="1.0" encoding="UTF-8" standalone="no"?>
<svg width="0mm" height="0mm"
 xmlns:dunnart="http://www.dunnart.org/ns/dunnart"
 xmlns="http://www.w3.org/2000/svg" xmlns:xlink="http://www.w3.org/1999/xlink"  version="1.2" baseProfile="tiny">
<title>treeAndBCs3-metagraph.svg</title>
<desc>This SVG file was saved from Dunnart.  http://www.dunnart.org/</desc>
<defs>
</defs>
<g fill="none" stroke="black" stroke-width="1" fill-rule="evenodd" stroke-linecap="square" stroke-linejoin="bevel" >

<g fill="none" stroke="#000000" stroke-opacity="1" stroke-width="1" stroke-linecap="square" stroke-linejoin="bevel" transform="matrix(1,0,0,1,105,-340)"
font-family="Lucida Grande" font-size="13" font-weight="400" font-style="normal" 
>
<path vector-effect="non-scaling-stroke" fill-rule="evenodd" d="M0,0 L-65,-54 L0,0"/>
</g>
</g>
<g fill="none" stroke="black" stroke-width="1" fill-rule="evenodd" stroke-linecap="square" stroke-linejoin="bevel" >

<g fill="none" stroke="#000000" stroke-opacity="1" stroke-width="1" stroke-linecap="square" stroke-linejoin="bevel" transform="matrix(1,0,0,1,110,-441)"
font-family="Lucida Grande" font-size="13" font-weight="400" font-style="normal" 
>
<path vector-effect="non-scaling-stroke" fill-rule="evenodd" d="M0,0 L-70,47 L0,0"/>
</g>
</g>
<g fill="none" stroke="black" stroke-width="1" fill-rule="evenodd" stroke-linecap="square" stroke-linejoin="bevel" >

<g fill="none" stroke="#000000" stroke-opacity="1" stroke-width="1" stroke-linecap="square" stroke-linejoin="bevel" transform="matrix(1,0,0,1,40,-394)"
font-family="Lucida Grande" font-size="13" font-weight="400" font-style="normal" 
>
<path vector-effect="non-scaling-stroke" fill-rule="evenodd" d="M0,0 L-110,-18 L0,0"/>
</g>
</g>
<g fill="none" stroke="black" stroke-width="1" fill-rule="evenodd" stroke-linecap="square" stroke-linejoin="bevel" >

<g fill="none" stroke="#000000" stroke-opacity="1" stroke-width="1" stroke-linecap="square" stroke-linejoin="bevel" transform="matrix(1,0,0,1,-72,-545)"
font-family="Lucida Grande" font-size="13" font-weight="400" font-style="normal" 
>
<path vector-effect="non-scaling-stroke" fill-rule="evenodd" d="M0,0 L2,133 L0,0"/>
</g>
</g>
<g fill="none" stroke="black" stroke-width="1" fill-rule="evenodd" stroke-linecap="square" stroke-linejoin="bevel" >

<g fill="none" stroke="#000000" stroke-opacity="1" stroke-width="1" stroke-linecap="square" stroke-linejoin="bevel" transform="matrix(1,0,0,1,-70,-412)"
font-family="Lucida Grande" font-size="13" font-weight="400" font-style="normal" 
>
<path vector-effect="non-scaling-stroke" fill-rule="evenodd" d="M0,0 L-168,99.5 L0,0"/>
</g>
</g>
<g fill="none" stroke="black" stroke-width="1" fill-rule="evenodd" stroke-linecap="square" stroke-linejoin="bevel" >

<g fill="none" stroke="#000000" stroke-opacity="1" stroke-width="1" stroke-linecap="square" stroke-linejoin="bevel" transform="matrix(1,0,0,1,-257,-119)"
font-family="Lucida Grande" font-size="13" font-weight="400" font-style="normal" 
>
<path vector-effect="non-scaling-stroke" fill-rule="evenodd" d="M0,0 L19,-193.5 L0,0"/>
</g>
</g>
<g fill="none" stroke="black" stroke-width="1" fill-rule="evenodd" stroke-linecap="square" stroke-linejoin="bevel" >

<g fill="none" stroke="#000000" stroke-opacity="1" stroke-width="1" stroke-linecap="square" stroke-linejoin="bevel" transform="matrix(1,0,0,1,-238,-312.5)"
font-family="Lucida Grande" font-size="13" font-weight="400" font-style="normal" 
>
<path vector-effect="non-scaling-stroke" fill-rule="evenodd" d="M0,0 L-148.5,-116 L0,0"/>
</g>
</g>
<g fill="none" stroke="black" stroke-width="1" fill-rule="evenodd" stroke-linecap="square" stroke-linejoin="bevel" >

<g fill="#f0f0d2" fill-opacity="1" stroke="#000000" stroke-opacity="1" stroke-width="1" stroke-linecap="square" stroke-linejoin="bevel" transform="matrix(1,0,0,1,-257,-119)"
font-family="Lucida Grande" font-size="13" font-weight="400" font-style="normal" 
>
<path vector-effect="non-scaling-stroke" fill-rule="evenodd" d="M52.5,0 C52.5,27.8904 28.9949,50.5 0,50.5 C-28.9949,50.5 -52.5,27.8904 -52.5,0 C-52.5,-27.8904 -28.9949,-50.5 0,-50.5 C28.9949,-50.5 52.5,-27.8904 52.5,0 "/>
</g>
</g>
<g fill="none" stroke="black" stroke-width="1" fill-rule="evenodd" stroke-linecap="square" stroke-linejoin="bevel" >

<g fill="#f0f0d2" fill-opacity="1" stroke="#000000" stroke-opacity="1" stroke-width="1" stroke-linecap="square" stroke-linejoin="bevel" transform="matrix(1,0,0,1,105,-340)"
font-family="Lucida Grande" font-size="13" font-weight="400" font-style="normal" 
>
<path vector-effect="non-scaling-stroke" fill-rule="evenodd" d="M21,0 C21,11.3218 11.598,20.5 0,20.5 C-11.598,20.5 -21,11.3218 -21,0 C-21,-11.3218 -11.598,-20.5 0,-20.5 C11.598,-20.5 21,-11.3218 21,0 "/>
</g>
</g>
<g fill="none" stroke="black" stroke-width="1" fill-rule="evenodd" stroke-linecap="square" stroke-linejoin="bevel" >

<g fill="#f0f0d2" fill-opacity="1" stroke="#000000" stroke-opacity="1" stroke-width="1" stroke-linecap="square" stroke-linejoin="bevel" transform="matrix(1,0,0,1,110,-441)"
font-family="Lucida Grande" font-size="13" font-weight="400" font-style="normal" 
>
<path vector-effect="non-scaling-stroke" fill-rule="evenodd" d="M21,0 C21,11.3218 11.598,20.5 0,20.5 C-11.598,20.5 -21,11.3218 -21,0 C-21,-11.3218 -11.598,-20.5 0,-20.5 C11.598,-20.5 21,-11.3218 21,0 "/>
</g>
</g>
<g fill="none" stroke="black" stroke-width="1" fill-rule="evenodd" stroke-linecap="square" stroke-linejoin="bevel" >

<g fill="#f0f0d2" fill-opacity="1" stroke="#000000" stroke-opacity="1" stroke-width="1" stroke-linecap="square" stroke-linejoin="bevel" transform="matrix(1,0,0,1,40,-394)"
font-family="Lucida Grande" font-size="13" font-weight="400" font-style="normal" 
>
<path vector-effect="non-scaling-stroke" fill-rule="evenodd" d="M21,0 C21,11.3218 11.598,20.5 0,20.5 C-11.598,20.5 -21,11.3218 -21,0 C-21,-11.3218 -11.598,-20.5 0,-20.5 C11.598,-20.5 21,-11.3218 21,0 "/>
</g>
</g>
<g fill="none" stroke="black" stroke-width="1" fill-rule="evenodd" stroke-linecap="square" stroke-linejoin="bevel" >

<g fill="#f0f0d2" fill-opacity="1" stroke="#000000" stroke-opacity="1" stroke-width="1" stroke-linecap="square" stroke-linejoin="bevel" transform="matrix(1,0,0,1,-72,-545)"
font-family="Lucida Grande" font-size="13" font-weight="400" font-style="normal" 
>
<path vector-effect="non-scaling-stroke" fill-rule="evenodd" d="M21,0 C21,11.3218 11.598,20.5 0,20.5 C-11.598,20.5 -21,11.3218 -21,0 C-21,-11.3218 -11.598,-20.5 0,-20.5 C11.598,-20.5 21,-11.3218 21,0 "/>
</g>
</g>
<g fill="none" stroke="black" stroke-width="1" fill-rule="evenodd" stroke-linecap="square" stroke-linejoin="bevel" >

<g fill="#f0f0d2" fill-opacity="1" stroke="#000000" stroke-opacity="1" stroke-width="1" stroke-linecap="square" stroke-linejoin="bevel" transform="matrix(1,0,0,1,-70,-412)"
font-family="Lucida Grande" font-size="13" font-weight="400" font-style="normal" 
>
<path vector-effect="non-scaling-stroke" fill-rule="evenodd" d="M21,0 C21,11.3218 11.598,20.5 0,20.5 C-11.598,20.5 -21,11.3218 -21,0 C-21,-11.3218 -11.598,-20.5 0,-20.5 C11.598,-20.5 21,-11.3218 21,0 "/>
</g>
</g>
<g fill="none" stroke="black" stroke-width="1" fill-rule="evenodd" stroke-linecap="square" stroke-linejoin="bevel" >

<g fill="#f0f0d2" fill-opacity="1" stroke="#000000" stroke-opacity="1" stroke-width="1" stroke-linecap="square" stroke-linejoin="bevel" transform="matrix(1,0,0,1,-238,-312.5)"
font-family="Lucida Grande" font-size="13" font-weight="400" font-style="normal" 
>
<path vector-effect="non-scaling-stroke" fill-rule="evenodd" d="M21,0 C21,11.3218 11.598,20.5 0,20.5 C-11.598,20.5 -21,11.3218 -21,0 C-21,-11.3218 -11.598,-20.5 0,-20.5 C11.598,-20.5 21,-11.3218 21,0 "/>
</g>
</g>
<g fill="none" stroke="black" stroke-width="1" fill-rule="evenodd" stroke-linecap="square" stroke-linejoin="bevel" >

<g fill="#f0f0d2" fill-opacity="1" stroke="#000000" stroke-opacity="1" stroke-width="1" stroke-linecap="square" stroke-linejoin="bevel" transform="matrix(1,0,0,1,-386.5,-428.5)"
font-family="Lucida Grande" font-size="13" font-weight="400" font-style="normal" 
>
<path vector-effect="non-scaling-stroke" fill-rule="evenodd" d="M52.5,0 C52.5,27.8904 28.9949,50.5 0,50.5 C-28.9949,50.5 -52.5,27.8904 -52.5,0 C-52.5,-27.8904 -28.9949,-50.5 0,-50.5 C28.9949,-50.5 52.5,-27.8904 52.5,0 "/>
</g>
</g>
<!-- Dunnart description -->
    <dunnart:options flowSeparation="0.5" automaticGraphLayout="0" routingBuffer="4" rubberBandRouting="0" layoutBeautify="0" colourInterferingConnectors="0" penaliseCrossings="0" layoutMode="0" preventOverlaps="0" defaultIdealConnectorLength="1" segmentPenalty="50" layoutMethod="0" avoidBuffer="0" pageBoundaryConstraints="0"/>
    <dunnart:node width="105" cx="-386.5" cy="-428.5" height="101" type="org.dunnart.shapes.ellipse" id="1"/>
    <dunnart:node width="42" cx="-238" cy="-312.5" height="41" type="org.dunnart.shapes.ellipse" id="2"/>
    <dunnart:node width="42" cx="-70" cy="-412" height="41" type="org.dunnart.shapes.ellipse" id="3"/>
    <dunnart:node width="42" cx="-72" cy="-545" height="41" type="org.dunnart.shapes.ellipse" id="4"/>
    <dunnart:node width="42" cx="40" cy="-394" height="41" type="org.dunnart.shapes.ellipse" id="5"/>
    <dunnart:node width="42" cx="110" cy="-441" height="41" type="org.dunnart.shapes.ellipse" id="6"/>
    <dunnart:node width="42" cx="105" cy="-340" height="41" type="org.dunnart.shapes.ellipse" id="7"/>
    <dunnart:node width="105" cx="-257" cy="-119" height="101" type="org.dunnart.shapes.ellipse" id="8"/>
    <dunnart:node dstX="-386.5" srcX="-238" dstY="-428.5" srcY="-312.5" srcID="2" type="connector" dstID="1" id="9"/>
    <dunnart:node dstX="-238" srcX="-257" dstY="-312.5" srcY="-119" srcID="8" type="connector" dstID="2" id="10"/>
    <dunnart:node dstX="-238" srcX="-70" dstY="-312.5" srcY="-412" srcID="3" type="connector" dstID="2" id="11"/>
    <dunnart:node dstX="-70" srcX="-72" dstY="-412" srcY="-545" srcID="4" type="connector" dstID="3" id="13"/>
    <dunnart:node dstX="-70" srcX="40" dstY="-412" srcY="-394" srcID="5" type="connector" dstID="3" id="14"/>
    <dunnart:node dstX="40" srcX="110" dstY="-394" srcY="-441" srcID="6" type="connector" dstID="5" id="15"/>
    <dunnart:node dstX="40" srcX="105" dstY="-394" srcY="-340" srcID="7" type="connector" dstID="5" id="16"/>
</svg>
