<?xml version="1.0" encoding="UTF-8" standalone="no"?>
<svg width="0mm" height="0mm"
 xmlns:dunnart="http://www.dunnart.org/ns/dunnart"
 xmlns="http://www.w3.org/2000/svg" xmlns:xlink="http://www.w3.org/1999/xlink"  version="1.2" baseProfile="tiny">
<title>tree1.svg</title>
<desc>This SVG file was saved from Dunnart.  http://www.dunnart.org/</desc>
<defs>
</defs>
<g fill="none" stroke="black" stroke-width="1" fill-rule="evenodd" stroke-linecap="square" stroke-linejoin="bevel" >

<g fill="none" stroke="#000000" stroke-opacity="1" stroke-width="1" stroke-linecap="square" stroke-linejoin="bevel" transform="matrix(1,0,0,1,300,-169)"
font-family="Lucida Grande" font-size="13" font-weight="400" font-style="normal" 
>
<path vector-effect="non-scaling-stroke" fill-rule="evenodd" d="M0,0 L-58,-75 L0,0"/>
</g>
</g>
<g fill="none" stroke="black" stroke-width="1" fill-rule="evenodd" stroke-linecap="square" stroke-linejoin="bevel" >

<g fill="none" stroke="#000000" stroke-opacity="1" stroke-width="1" stroke-linecap="square" stroke-linejoin="bevel" transform="matrix(1,0,0,1,-105,40)"
font-family="Lucida Grande" font-size="13" font-weight="400" font-style="normal" 
>
<path vector-effect="non-scaling-stroke" fill-rule="evenodd" d="M0,0 L-25,-89 L0,0"/>
</g>
</g>
<g fill="none" stroke="black" stroke-width="1" fill-rule="evenodd" stroke-linecap="square" stroke-linejoin="bevel" >

<g fill="none" stroke="#000000" stroke-opacity="1" stroke-width="1" stroke-linecap="square" stroke-linejoin="bevel" transform="matrix(1,0,0,1,-130,-49)"
font-family="Lucida Grande" font-size="13" font-weight="400" font-style="normal" 
>
<path vector-effect="non-scaling-stroke" fill-rule="evenodd" d="M0,0 L-45,-92 L0,0"/>
</g>
</g>
<g fill="none" stroke="black" stroke-width="1" fill-rule="evenodd" stroke-linecap="square" stroke-linejoin="bevel" >

<g fill="none" stroke="#000000" stroke-opacity="1" stroke-width="1" stroke-linecap="square" stroke-linejoin="bevel" transform="matrix(1,0,0,1,-273,-100)"
font-family="Lucida Grande" font-size="13" font-weight="400" font-style="normal" 
>
<path vector-effect="non-scaling-stroke" fill-rule="evenodd" d="M0,0 L98,-41 L0,0"/>
</g>
</g>
<g fill="none" stroke="black" stroke-width="1" fill-rule="evenodd" stroke-linecap="square" stroke-linejoin="bevel" >

<g fill="none" stroke="#000000" stroke-opacity="1" stroke-width="1" stroke-linecap="square" stroke-linejoin="bevel" transform="matrix(1,0,0,1,-175,-141)"
font-family="Lucida Grande" font-size="13" font-weight="400" font-style="normal" 
>
<path vector-effect="non-scaling-stroke" fill-rule="evenodd" d="M0,0 L64,-73 L0,0"/>
</g>
</g>
<g fill="none" stroke="black" stroke-width="1" fill-rule="evenodd" stroke-linecap="square" stroke-linejoin="bevel" >

<g fill="none" stroke="#000000" stroke-opacity="1" stroke-width="1" stroke-linecap="square" stroke-linejoin="bevel" transform="matrix(1,0,0,1,-111,-214)"
font-family="Lucida Grande" font-size="13" font-weight="400" font-style="normal" 
>
<path vector-effect="non-scaling-stroke" fill-rule="evenodd" d="M0,0 L43,-98 L0,0"/>
</g>
</g>
<g fill="none" stroke="black" stroke-width="1" fill-rule="evenodd" stroke-linecap="square" stroke-linejoin="bevel" >

<g fill="none" stroke="#000000" stroke-opacity="1" stroke-width="1" stroke-linecap="square" stroke-linejoin="bevel" transform="matrix(1,0,0,1,242,-244)"
font-family="Lucida Grande" font-size="13" font-weight="400" font-style="normal" 
>
<path vector-effect="non-scaling-stroke" fill-rule="evenodd" d="M0,0 L-84,-67 L0,0"/>
</g>
</g>
<g fill="none" stroke="black" stroke-width="1" fill-rule="evenodd" stroke-linecap="square" stroke-linejoin="bevel" >

<g fill="none" stroke="#000000" stroke-opacity="1" stroke-width="1" stroke-linecap="square" stroke-linejoin="bevel" transform="matrix(1,0,0,1,243,-448)"
font-family="Lucida Grande" font-size="13" font-weight="400" font-style="normal" 
>
<path vector-effect="non-scaling-stroke" fill-rule="evenodd" d="M0,0 L-45,77 L0,0"/>
</g>
</g>
<g fill="none" stroke="black" stroke-width="1" fill-rule="evenodd" stroke-linecap="square" stroke-linejoin="bevel" >

<g fill="none" stroke="#000000" stroke-opacity="1" stroke-width="1" stroke-linecap="square" stroke-linejoin="bevel" transform="matrix(1,0,0,1,198,-371)"
font-family="Lucida Grande" font-size="13" font-weight="400" font-style="normal" 
>
<path vector-effect="non-scaling-stroke" fill-rule="evenodd" d="M0,0 L-40,60 L0,0"/>
</g>
</g>
<g fill="none" stroke="black" stroke-width="1" fill-rule="evenodd" stroke-linecap="square" stroke-linejoin="bevel" >

<g fill="none" stroke="#000000" stroke-opacity="1" stroke-width="1" stroke-linecap="square" stroke-linejoin="bevel" transform="matrix(1,0,0,1,158,-311)"
font-family="Lucida Grande" font-size="13" font-weight="400" font-style="normal" 
>
<path vector-effect="non-scaling-stroke" fill-rule="evenodd" d="M0,0 L-98,4 L0,0"/>
</g>
</g>
<g fill="none" stroke="black" stroke-width="1" fill-rule="evenodd" stroke-linecap="square" stroke-linejoin="bevel" >

<g fill="none" stroke="#000000" stroke-opacity="1" stroke-width="1" stroke-linecap="square" stroke-linejoin="bevel" transform="matrix(1,0,0,1,60,-307)"
font-family="Lucida Grande" font-size="13" font-weight="400" font-style="normal" 
>
<path vector-effect="non-scaling-stroke" fill-rule="evenodd" d="M0,0 L-128,-5 L0,0"/>
</g>
</g>
<g fill="none" stroke="black" stroke-width="1" fill-rule="evenodd" stroke-linecap="square" stroke-linejoin="bevel" >

<g fill="none" stroke="#000000" stroke-opacity="1" stroke-width="1" stroke-linecap="square" stroke-linejoin="bevel" transform="matrix(1,0,0,1,-68,-312)"
font-family="Lucida Grande" font-size="13" font-weight="400" font-style="normal" 
>
<path vector-effect="non-scaling-stroke" fill-rule="evenodd" d="M0,0 L-101,-34 L0,0"/>
</g>
</g>
<g fill="none" stroke="black" stroke-width="1" fill-rule="evenodd" stroke-linecap="square" stroke-linejoin="bevel" >

<g fill="none" stroke="#000000" stroke-opacity="1" stroke-width="1" stroke-linecap="square" stroke-linejoin="bevel" transform="matrix(1,0,0,1,-169,-346)"
font-family="Lucida Grande" font-size="13" font-weight="400" font-style="normal" 
>
<path vector-effect="non-scaling-stroke" fill-rule="evenodd" d="M0,0 L-106,-30 L0,0"/>
</g>
</g>
<g fill="none" stroke="black" stroke-width="1" fill-rule="evenodd" stroke-linecap="square" stroke-linejoin="bevel" >

<g fill="none" stroke="#000000" stroke-opacity="1" stroke-width="1" stroke-linecap="square" stroke-linejoin="bevel" transform="matrix(1,0,0,1,-384.5,-431)"
font-family="Lucida Grande" font-size="13" font-weight="400" font-style="normal" 
>
<path vector-effect="non-scaling-stroke" fill-rule="evenodd" d="M0,0 L109.5,55 L0,0"/>
</g>
</g>
<g fill="none" stroke="black" stroke-width="1" fill-rule="evenodd" stroke-linecap="square" stroke-linejoin="bevel" >

<g fill="#f0f0d2" fill-opacity="1" stroke="#000000" stroke-opacity="1" stroke-width="1" stroke-linecap="square" stroke-linejoin="bevel" transform="matrix(1,0,0,1,300,-169)"
font-family="Lucida Grande" font-size="13" font-weight="400" font-style="normal" 
>
<path vector-effect="non-scaling-stroke" fill-rule="evenodd" d="M24.5,0 C24.5,13.8071 13.531,25 0,25 C-13.531,25 -24.5,13.8071 -24.5,0 C-24.5,-13.8071 -13.531,-25 0,-25 C13.531,-25 24.5,-13.8071 24.5,0 "/>
</g>
</g>
<g fill="none" stroke="black" stroke-width="1" fill-rule="evenodd" stroke-linecap="square" stroke-linejoin="bevel" >

<g fill="#f0f0d2" fill-opacity="1" stroke="#000000" stroke-opacity="1" stroke-width="1" stroke-linecap="square" stroke-linejoin="bevel" transform="matrix(1,0,0,1,242,-244)"
font-family="Lucida Grande" font-size="13" font-weight="400" font-style="normal" 
>
<path vector-effect="non-scaling-stroke" fill-rule="evenodd" d="M24.5,0 C24.5,13.8071 13.531,25 0,25 C-13.531,25 -24.5,13.8071 -24.5,0 C-24.5,-13.8071 -13.531,-25 0,-25 C13.531,-25 24.5,-13.8071 24.5,0 "/>
</g>
</g>
<g fill="none" stroke="black" stroke-width="1" fill-rule="evenodd" stroke-linecap="square" stroke-linejoin="bevel" >

<g fill="#f0f0d2" fill-opacity="1" stroke="#000000" stroke-opacity="1" stroke-width="1" stroke-linecap="square" stroke-linejoin="bevel" transform="matrix(1,0,0,1,243,-448)"
font-family="Lucida Grande" font-size="13" font-weight="400" font-style="normal" 
>
<path vector-effect="non-scaling-stroke" fill-rule="evenodd" d="M24.5,0 C24.5,13.8071 13.531,25 0,25 C-13.531,25 -24.5,13.8071 -24.5,0 C-24.5,-13.8071 -13.531,-25 0,-25 C13.531,-25 24.5,-13.8071 24.5,0 "/>
</g>
</g>
<g fill="none" stroke="black" stroke-width="1" fill-rule="evenodd" stroke-linecap="square" stroke-linejoin="bevel" >

<g fill="#f0f0d2" fill-opacity="1" stroke="#000000" stroke-opacity="1" stroke-width="1" stroke-linecap="square" stroke-linejoin="bevel" transform="matrix(1,0,0,1,198,-371)"
font-family="Lucida Grande" font-size="13" font-weight="400" font-style="normal" 
>
<path vector-effect="non-scaling-stroke" fill-rule="evenodd" d="M24.5,0 C24.5,13.8071 13.531,25 0,25 C-13.531,25 -24.5,13.8071 -24.5,0 C-24.5,-13.8071 -13.531,-25 0,-25 C13.531,-25 24.5,-13.8071 24.5,0 "/>
</g>
</g>
<g fill="none" stroke="black" stroke-width="1" fill-rule="evenodd" stroke-linecap="square" stroke-linejoin="bevel" >

<g fill="#f0f0d2" fill-opacity="1" stroke="#000000" stroke-opacity="1" stroke-width="1" stroke-linecap="square" stroke-linejoin="bevel" transform="matrix(1,0,0,1,158,-311)"
font-family="Lucida Grande" font-size="13" font-weight="400" font-style="normal" 
>
<path vector-effect="non-scaling-stroke" fill-rule="evenodd" d="M24.5,0 C24.5,13.8071 13.531,25 0,25 C-13.531,25 -24.5,13.8071 -24.5,0 C-24.5,-13.8071 -13.531,-25 0,-25 C13.531,-25 24.5,-13.8071 24.5,0 "/>
</g>
</g>
<g fill="none" stroke="black" stroke-width="1" fill-rule="evenodd" stroke-linecap="square" stroke-linejoin="bevel" >

<g fill="#f0f0d2" fill-opacity="1" stroke="#000000" stroke-opacity="1" stroke-width="1" stroke-linecap="square" stroke-linejoin="bevel" transform="matrix(1,0,0,1,60,-307)"
font-family="Lucida Grande" font-size="13" font-weight="400" font-style="normal" 
>
<path vector-effect="non-scaling-stroke" fill-rule="evenodd" d="M24.5,0 C24.5,13.8071 13.531,25 0,25 C-13.531,25 -24.5,13.8071 -24.5,0 C-24.5,-13.8071 -13.531,-25 0,-25 C13.531,-25 24.5,-13.8071 24.5,0 "/>
</g>
</g>
<g fill="none" stroke="black" stroke-width="1" fill-rule="evenodd" stroke-linecap="square" stroke-linejoin="bevel" >

<g fill="#f0f0d2" fill-opacity="1" stroke="#000000" stroke-opacity="1" stroke-width="1" stroke-linecap="square" stroke-linejoin="bevel" transform="matrix(1,0,0,1,-105,40)"
font-family="Lucida Grande" font-size="13" font-weight="400" font-style="normal" 
>
<path vector-effect="non-scaling-stroke" fill-rule="evenodd" d="M24.5,0 C24.5,13.8071 13.531,25 0,25 C-13.531,25 -24.5,13.8071 -24.5,0 C-24.5,-13.8071 -13.531,-25 0,-25 C13.531,-25 24.5,-13.8071 24.5,0 "/>
</g>
</g>
<g fill="none" stroke="black" stroke-width="1" fill-rule="evenodd" stroke-linecap="square" stroke-linejoin="bevel" >

<g fill="#f0f0d2" fill-opacity="1" stroke="#000000" stroke-opacity="1" stroke-width="1" stroke-linecap="square" stroke-linejoin="bevel" transform="matrix(1,0,0,1,-130,-49)"
font-family="Lucida Grande" font-size="13" font-weight="400" font-style="normal" 
>
<path vector-effect="non-scaling-stroke" fill-rule="evenodd" d="M24.5,0 C24.5,13.8071 13.531,25 0,25 C-13.531,25 -24.5,13.8071 -24.5,0 C-24.5,-13.8071 -13.531,-25 0,-25 C13.531,-25 24.5,-13.8071 24.5,0 "/>
</g>
</g>
<g fill="none" stroke="black" stroke-width="1" fill-rule="evenodd" stroke-linecap="square" stroke-linejoin="bevel" >

<g fill="#f0f0d2" fill-opacity="1" stroke="#000000" stroke-opacity="1" stroke-width="1" stroke-linecap="square" stroke-linejoin="bevel" transform="matrix(1,0,0,1,-273,-100)"
font-family="Lucida Grande" font-size="13" font-weight="400" font-style="normal" 
>
<path vector-effect="non-scaling-stroke" fill-rule="evenodd" d="M24.5,0 C24.5,13.8071 13.531,25 0,25 C-13.531,25 -24.5,13.8071 -24.5,0 C-24.5,-13.8071 -13.531,-25 0,-25 C13.531,-25 24.5,-13.8071 24.5,0 "/>
</g>
</g>
<g fill="none" stroke="black" stroke-width="1" fill-rule="evenodd" stroke-linecap="square" stroke-linejoin="bevel" >

<g fill="#f0f0d2" fill-opacity="1" stroke="#000000" stroke-opacity="1" stroke-width="1" stroke-linecap="square" stroke-linejoin="bevel" transform="matrix(1,0,0,1,-175,-141)"
font-family="Lucida Grande" font-size="13" font-weight="400" font-style="normal" 
>
<path vector-effect="non-scaling-stroke" fill-rule="evenodd" d="M24.5,0 C24.5,13.8071 13.531,25 0,25 C-13.531,25 -24.5,13.8071 -24.5,0 C-24.5,-13.8071 -13.531,-25 0,-25 C13.531,-25 24.5,-13.8071 24.5,0 "/>
</g>
</g>
<g fill="none" stroke="black" stroke-width="1" fill-rule="evenodd" stroke-linecap="square" stroke-linejoin="bevel" >

<g fill="#f0f0d2" fill-opacity="1" stroke="#000000" stroke-opacity="1" stroke-width="1" stroke-linecap="square" stroke-linejoin="bevel" transform="matrix(1,0,0,1,-111,-214)"
font-family="Lucida Grande" font-size="13" font-weight="400" font-style="normal" 
>
<path vector-effect="non-scaling-stroke" fill-rule="evenodd" d="M24.5,0 C24.5,13.8071 13.531,25 0,25 C-13.531,25 -24.5,13.8071 -24.5,0 C-24.5,-13.8071 -13.531,-25 0,-25 C13.531,-25 24.5,-13.8071 24.5,0 "/>
</g>
</g>
<g fill="none" stroke="black" stroke-width="1" fill-rule="evenodd" stroke-linecap="square" stroke-linejoin="bevel" >

<g fill="#f0f0d2" fill-opacity="1" stroke="#000000" stroke-opacity="1" stroke-width="1" stroke-linecap="square" stroke-linejoin="bevel" transform="matrix(1,0,0,1,-68,-312)"
font-family="Lucida Grande" font-size="13" font-weight="400" font-style="normal" 
>
<path vector-effect="non-scaling-stroke" fill-rule="evenodd" d="M24.5,0 C24.5,13.8071 13.531,25 0,25 C-13.531,25 -24.5,13.8071 -24.5,0 C-24.5,-13.8071 -13.531,-25 0,-25 C13.531,-25 24.5,-13.8071 24.5,0 "/>
</g>
</g>
<g fill="none" stroke="black" stroke-width="1" fill-rule="evenodd" stroke-linecap="square" stroke-linejoin="bevel" >

<g fill="#f0f0d2" fill-opacity="1" stroke="#000000" stroke-opacity="1" stroke-width="1" stroke-linecap="square" stroke-linejoin="bevel" transform="matrix(1,0,0,1,-169,-346)"
font-family="Lucida Grande" font-size="13" font-weight="400" font-style="normal" 
>
<path vector-effect="non-scaling-stroke" fill-rule="evenodd" d="M24.5,0 C24.5,13.8071 13.531,25 0,25 C-13.531,25 -24.5,13.8071 -24.5,0 C-24.5,-13.8071 -13.531,-25 0,-25 C13.531,-25 24.5,-13.8071 24.5,0 "/>
</g>
</g>
<g fill="none" stroke="black" stroke-width="1" fill-rule="evenodd" stroke-linecap="square" stroke-linejoin="bevel" >

<g fill="#f0f0d2" fill-opacity="1" stroke="#000000" stroke-opacity="1" stroke-width="1" stroke-linecap="square" stroke-linejoin="bevel" transform="matrix(1,0,0,1,-275,-376)"
font-family="Lucida Grande" font-size="13" font-weight="400" font-style="normal" 
>
<path vector-effect="non-scaling-stroke" fill-rule="evenodd" d="M24.5,0 C24.5,13.8071 13.531,25 0,25 C-13.531,25 -24.5,13.8071 -24.5,0 C-24.5,-13.8071 -13.531,-25 0,-25 C13.531,-25 24.5,-13.8071 24.5,0 "/>
</g>
</g>
<g fill="none" stroke="black" stroke-width="1" fill-rule="evenodd" stroke-linecap="square" stroke-linejoin="bevel" >

<g fill="#f0f0d2" fill-opacity="1" stroke="#000000" stroke-opacity="1" stroke-width="1" stroke-linecap="square" stroke-linejoin="bevel" transform="matrix(1,0,0,1,-384.5,-431)"
font-family="Lucida Grande" font-size="13" font-weight="400" font-style="normal" 
>
<path vector-effect="non-scaling-stroke" fill-rule="evenodd" d="M24.5,0 C24.5,13.8071 13.531,25 0,25 C-13.531,25 -24.5,13.8071 -24.5,0 C-24.5,-13.8071 -13.531,-25 0,-25 C13.531,-25 24.5,-13.8071 24.5,0 "/>
</g>
</g>
<!-- Dunnart description -->
    <dunnart:options flowSeparation="0.5" automaticGraphLayout="0" routingBuffer="4" rubberBandRouting="0" layoutBeautify="0" colourInterferingConnectors="0" penaliseCrossings="0" layoutMode="0" preventOverlaps="0" defaultIdealConnectorLength="1" segmentPenalty="50" layoutMethod="0" avoidBuffer="0" pageBoundaryConstraints="0"/>
    <dunnart:node width="49" cx="-384.5" cy="-431" height="50" type="org.dunnart.shapes.ellipse" id="1"/>
    <dunnart:node width="49" cx="-275" cy="-376" height="50" type="org.dunnart.shapes.ellipse" id="2"/>
    <dunnart:node width="49" cx="-169" cy="-346" height="50" type="org.dunnart.shapes.ellipse" id="3"/>
    <dunnart:node width="49" cx="-68" cy="-312" height="50" type="org.dunnart.shapes.ellipse" id="4"/>
    <dunnart:node width="49" cx="-111" cy="-214" height="50" type="org.dunnart.shapes.ellipse" id="5"/>
    <dunnart:node width="49" cx="-175" cy="-141" height="50" type="org.dunnart.shapes.ellipse" id="6"/>
    <dunnart:node width="49" cx="-273" cy="-100" height="50" type="org.dunnart.shapes.ellipse" id="7"/>
    <dunnart:node width="49" cx="-130" cy="-49" height="50" type="org.dunnart.shapes.ellipse" id="8"/>
    <dunnart:node width="49" cx="-105" cy="40" height="50" type="org.dunnart.shapes.ellipse" id="9"/>
    <dunnart:node width="49" cx="60" cy="-307" height="50" type="org.dunnart.shapes.ellipse" id="10"/>
    <dunnart:node width="49" cx="158" cy="-311" height="50" type="org.dunnart.shapes.ellipse" id="11"/>
    <dunnart:node width="49" cx="198" cy="-371" height="50" type="org.dunnart.shapes.ellipse" id="12"/>
    <dunnart:node width="49" cx="243" cy="-448" height="50" type="org.dunnart.shapes.ellipse" id="13"/>
    <dunnart:node width="49" cx="242" cy="-244" height="50" type="org.dunnart.shapes.ellipse" id="14"/>
    <dunnart:node width="49" cx="300" cy="-169" height="50" type="org.dunnart.shapes.ellipse" id="15"/>
    <dunnart:node dstX="-275" srcX="-384.5" dstY="-376" srcY="-431" srcID="1" type="connector" dstID="2" id="16"/>
    <dunnart:node dstX="-275" srcX="-169" dstY="-376" srcY="-346" srcID="3" type="connector" dstID="2" id="17"/>
    <dunnart:node dstX="-169" srcX="-68" dstY="-346" srcY="-312" srcID="4" type="connector" dstID="3" id="18"/>
    <dunnart:node dstX="-68" srcX="60" dstY="-312" srcY="-307" srcID="10" type="connector" dstID="4" id="19"/>
    <dunnart:node dstX="60" srcX="158" dstY="-307" srcY="-311" srcID="11" type="connector" dstID="10" id="20"/>
    <dunnart:node dstX="158" srcX="198" dstY="-311" srcY="-371" srcID="12" type="connector" dstID="11" id="21"/>
    <dunnart:node dstX="198" srcX="243" dstY="-371" srcY="-448" srcID="13" type="connector" dstID="12" id="22"/>
    <dunnart:node dstX="158" srcX="242" dstY="-311" srcY="-244" srcID="14" type="connector" dstID="11" id="23"/>
    <dunnart:node dstX="-68" srcX="-111" dstY="-312" srcY="-214" srcID="5" type="connector" dstID="4" id="24"/>
    <dunnart:node dstX="-111" srcX="-175" dstY="-214" srcY="-141" srcID="6" type="connector" dstID="5" id="25"/>
    <dunnart:node dstX="-175" srcX="-273" dstY="-141" srcY="-100" srcID="7" type="connector" dstID="6" id="26"/>
    <dunnart:node dstX="-175" srcX="-130" dstY="-141" srcY="-49" srcID="8" type="connector" dstID="6" id="27"/>
    <dunnart:node dstX="-130" srcX="-105" dstY="-49" srcY="40" srcID="9" type="connector" dstID="8" id="28"/>
    <dunnart:node dstX="242" srcX="300" dstY="-244" srcY="-169" srcID="15" type="connector" dstID="14" id="29"/>
</svg>
