<?xml version="1.0" encoding="UTF-8" standalone="no"?>
<svg width="0mm" height="0mm"
 xmlns:dunnart="http://www.dunnart.org/ns/dunnart"
 xmlns="http://www.w3.org/2000/svg" xmlns:xlink="http://www.w3.org/1999/xlink"  version="1.2" baseProfile="tiny">
<title>treeAndBCs3.svg</title>
<desc>This SVG file was saved from Dunnart.  http://www.dunnart.org/</desc>
<defs>
</defs>
<g fill="none" stroke="black" stroke-width="1" fill-rule="evenodd" stroke-linecap="square" stroke-linejoin="bevel" >

<g fill="none" stroke="#000000" stroke-opacity="1" stroke-width="1" stroke-linecap="square" stroke-linejoin="bevel" transform="matrix(1,0,0,1,114.236,157.376)"
font-family="Ubuntu" font-size="11" font-weight="400" font-style="normal" 
>
<path vector-effect="non-scaling-stroke" fill-rule="evenodd" d="M0,0 L-80.2685,-71.9029 L0,0"/>
</g>
</g>
<g fill="none" stroke="black" stroke-width="1" fill-rule="evenodd" stroke-linecap="square" stroke-linejoin="bevel" >

<g fill="none" stroke="#000000" stroke-opacity="1" stroke-width="1" stroke-linecap="square" stroke-linejoin="bevel" transform="matrix(1,0,0,1,114.236,157.376)"
font-family="Ubuntu" font-size="11" font-weight="400" font-style="normal" 
>
<path vector-effect="non-scaling-stroke" fill-rule="evenodd" d="M0,0 L51.1215,-95.3993 L0,0"/>
</g>
</g>
<g fill="none" stroke="black" stroke-width="1" fill-rule="evenodd" stroke-linecap="square" stroke-linejoin="bevel" >

<g fill="none" stroke="#000000" stroke-opacity="1" stroke-width="1" stroke-linecap="square" stroke-linejoin="bevel" transform="matrix(1,0,0,1,165.357,61.9764)"
font-family="Ubuntu" font-size="11" font-weight="400" font-style="normal" 
>
<path vector-effect="non-scaling-stroke" fill-rule="evenodd" d="M0,0 L-80.357,-81.6148 L0,0"/>
</g>
</g>
<g fill="none" stroke="black" stroke-width="1" fill-rule="evenodd" stroke-linecap="square" stroke-linejoin="bevel" >

<g fill="none" stroke="#000000" stroke-opacity="1" stroke-width="1" stroke-linecap="square" stroke-linejoin="bevel" transform="matrix(1,0,0,1,33.967,85.4727)"
font-family="Ubuntu" font-size="11" font-weight="400" font-style="normal" 
>
<path vector-effect="non-scaling-stroke" fill-rule="evenodd" d="M0,0 L51.033,-105.111 L0,0"/>
</g>
</g>
<g fill="none" stroke="black" stroke-width="1" fill-rule="evenodd" stroke-linecap="square" stroke-linejoin="bevel" >

<g fill="none" stroke="#000000" stroke-opacity="1" stroke-width="1" stroke-linecap="square" stroke-linejoin="bevel" transform="matrix(1,0,0,1,85.0001,-19.6384)"
font-family="Ubuntu" font-size="11" font-weight="400" font-style="normal" 
>
<path vector-effect="non-scaling-stroke" fill-rule="evenodd" d="M0,0 L-12.5579,-121.544 L0,0"/>
</g>
</g>
<g fill="none" stroke="black" stroke-width="1" fill-rule="evenodd" stroke-linecap="square" stroke-linejoin="bevel" >

<g fill="none" stroke="#000000" stroke-opacity="1" stroke-width="1" stroke-linecap="square" stroke-linejoin="bevel" transform="matrix(1,0,0,1,478.034,-355.71)"
font-family="Ubuntu" font-size="11" font-weight="400" font-style="normal" 
>
<path vector-effect="non-scaling-stroke" fill-rule="evenodd" d="M0,0 L-83.5141,-72.5872 L0,0"/>
</g>
</g>
<g fill="none" stroke="black" stroke-width="1" fill-rule="evenodd" stroke-linecap="square" stroke-linejoin="bevel" >

<g fill="none" stroke="#000000" stroke-opacity="1" stroke-width="1" stroke-linecap="square" stroke-linejoin="bevel" transform="matrix(1,0,0,1,487.497,-499.23)"
font-family="Ubuntu" font-size="11" font-weight="400" font-style="normal" 
>
<path vector-effect="non-scaling-stroke" fill-rule="evenodd" d="M0,0 L-92.9772,70.9328 L0,0"/>
</g>
</g>
<g fill="none" stroke="black" stroke-width="1" fill-rule="evenodd" stroke-linecap="square" stroke-linejoin="bevel" >

<g fill="none" stroke="#000000" stroke-opacity="1" stroke-width="1" stroke-linecap="square" stroke-linejoin="bevel" transform="matrix(1,0,0,1,244.843,-654.055)"
font-family="Ubuntu" font-size="11" font-weight="400" font-style="normal" 
>
<path vector-effect="non-scaling-stroke" fill-rule="evenodd" d="M0,0 L1.67476,112.698 L0,0"/>
</g>
</g>
<g fill="none" stroke="black" stroke-width="1" fill-rule="evenodd" stroke-linecap="square" stroke-linejoin="bevel" >

<g fill="none" stroke="#000000" stroke-opacity="1" stroke-width="1" stroke-linecap="square" stroke-linejoin="bevel" transform="matrix(1,0,0,1,394.52,-428.297)"
font-family="Ubuntu" font-size="11" font-weight="400" font-style="normal" 
>
<path vector-effect="non-scaling-stroke" fill-rule="evenodd" d="M0,0 L-126.652,3.01945 L0,0"/>
</g>
</g>
<g fill="none" stroke="black" stroke-width="1" fill-rule="evenodd" stroke-linecap="square" stroke-linejoin="bevel" >

<g fill="none" stroke="#000000" stroke-opacity="1" stroke-width="1" stroke-linecap="square" stroke-linejoin="bevel" transform="matrix(1,0,0,1,246.518,-541.357)"
font-family="Ubuntu" font-size="11" font-weight="400" font-style="normal" 
>
<path vector-effect="non-scaling-stroke" fill-rule="evenodd" d="M0,0 L21.3503,116.08 L0,0"/>
</g>
</g>
<g fill="none" stroke="black" stroke-width="1" fill-rule="evenodd" stroke-linecap="square" stroke-linejoin="bevel" >

<g fill="none" stroke="#000000" stroke-opacity="1" stroke-width="1" stroke-linecap="square" stroke-linejoin="bevel" transform="matrix(1,0,0,1,267.868,-425.278)"
font-family="Ubuntu" font-size="11" font-weight="400" font-style="normal" 
>
<path vector-effect="non-scaling-stroke" fill-rule="evenodd" d="M0,0 L-101.747,80.4949 L0,0"/>
</g>
</g>
<g fill="none" stroke="black" stroke-width="1" fill-rule="evenodd" stroke-linecap="square" stroke-linejoin="bevel" >

<g fill="none" stroke="#000000" stroke-opacity="1" stroke-width="1" stroke-linecap="square" stroke-linejoin="bevel" transform="matrix(1,0,0,1,166.121,-344.783)"
font-family="Ubuntu" font-size="11" font-weight="400" font-style="normal" 
>
<path vector-effect="non-scaling-stroke" fill-rule="evenodd" d="M0,0 L-102.003,79.4541 L0,0"/>
</g>
</g>
<g fill="none" stroke="black" stroke-width="1" fill-rule="evenodd" stroke-linecap="square" stroke-linejoin="bevel" >

<g fill="none" stroke="#000000" stroke-opacity="1" stroke-width="1" stroke-linecap="square" stroke-linejoin="bevel" transform="matrix(1,0,0,1,72.4422,-141.182)"
font-family="Ubuntu" font-size="11" font-weight="400" font-style="normal" 
>
<path vector-effect="non-scaling-stroke" fill-rule="evenodd" d="M0,0 L-8.32464,-124.146 L0,0"/>
</g>
</g>
<g fill="none" stroke="black" stroke-width="1" fill-rule="evenodd" stroke-linecap="square" stroke-linejoin="bevel" >

<g fill="none" stroke="#000000" stroke-opacity="1" stroke-width="1" stroke-linecap="square" stroke-linejoin="bevel" transform="matrix(1,0,0,1,64.1175,-265.329)"
font-family="Ubuntu" font-size="11" font-weight="400" font-style="normal" 
>
<path vector-effect="non-scaling-stroke" fill-rule="evenodd" d="M0,0 L-121.67,-30.7068 L0,0"/>
</g>
</g>
<g fill="none" stroke="black" stroke-width="1" fill-rule="evenodd" stroke-linecap="square" stroke-linejoin="bevel" >

<g fill="none" stroke="#000000" stroke-opacity="1" stroke-width="1" stroke-linecap="square" stroke-linejoin="bevel" transform="matrix(1,0,0,1,-57.5526,-296.036)"
font-family="Ubuntu" font-size="11" font-weight="400" font-style="normal" 
>
<path vector-effect="non-scaling-stroke" fill-rule="evenodd" d="M0,0 L-118.807,-35.6011 L0,0"/>
</g>
</g>
<g fill="none" stroke="black" stroke-width="1" fill-rule="evenodd" stroke-linecap="square" stroke-linejoin="bevel" >

<g fill="none" stroke="#000000" stroke-opacity="1" stroke-width="1" stroke-linecap="square" stroke-linejoin="bevel" transform="matrix(1,0,0,1,-240.4,-426.904)"
font-family="Ubuntu" font-size="11" font-weight="400" font-style="normal" 
>
<path vector-effect="non-scaling-stroke" fill-rule="evenodd" d="M0,0 L64.0408,95.2672 L0,0"/>
</g>
</g>
<g fill="none" stroke="black" stroke-width="1" fill-rule="evenodd" stroke-linecap="square" stroke-linejoin="bevel" >

<g fill="none" stroke="#000000" stroke-opacity="1" stroke-width="1" stroke-linecap="square" stroke-linejoin="bevel" transform="matrix(1,0,0,1,-289.128,-302.218)"
font-family="Ubuntu" font-size="11" font-weight="400" font-style="normal" 
>
<path vector-effect="non-scaling-stroke" fill-rule="evenodd" d="M0,0 L112.769,-29.4191 L0,0"/>
</g>
</g>
<g fill="none" stroke="black" stroke-width="1" fill-rule="evenodd" stroke-linecap="square" stroke-linejoin="bevel" >

<g fill="none" stroke="#000000" stroke-opacity="1" stroke-width="1" stroke-linecap="square" stroke-linejoin="bevel" transform="matrix(1,0,0,1,-240.4,-426.904)"
font-family="Ubuntu" font-size="11" font-weight="400" font-style="normal" 
>
<path vector-effect="non-scaling-stroke" fill-rule="evenodd" d="M0,0 L-103.679,31.7327 L0,0"/>
</g>
</g>
<g fill="none" stroke="black" stroke-width="1" fill-rule="evenodd" stroke-linecap="square" stroke-linejoin="bevel" >

<g fill="none" stroke="#000000" stroke-opacity="1" stroke-width="1" stroke-linecap="square" stroke-linejoin="bevel" transform="matrix(1,0,0,1,-344.079,-395.171)"
font-family="Ubuntu" font-size="11" font-weight="400" font-style="normal" 
>
<path vector-effect="non-scaling-stroke" fill-rule="evenodd" d="M0,0 L54.9506,92.9536 L0,0"/>
</g>
</g>
<g fill="none" stroke="black" stroke-width="1" fill-rule="evenodd" stroke-linecap="square" stroke-linejoin="bevel" >

<g fill="#f0f0d2" fill-opacity="1" stroke="#000000" stroke-opacity="1" stroke-width="1" stroke-linecap="square" stroke-linejoin="bevel" transform="matrix(1,0,0,1,478.034,-355.71)"
font-family="Ubuntu" font-size="11" font-weight="400" font-style="normal" 
>
<path vector-effect="non-scaling-stroke" fill-rule="evenodd" d="M26,0 C26,13.8071 14.3594,25 0,25 C-14.3594,25 -26,13.8071 -26,0 C-26,-13.8071 -14.3594,-25 0,-25 C14.3594,-25 26,-13.8071 26,0 "/>
</g>
</g>
<g fill="none" stroke="black" stroke-width="1" fill-rule="evenodd" stroke-linecap="square" stroke-linejoin="bevel" >

<g fill="#f0f0d2" fill-opacity="1" stroke="#000000" stroke-opacity="1" stroke-width="1" stroke-linecap="square" stroke-linejoin="bevel" transform="matrix(1,0,0,1,487.497,-499.23)"
font-family="Ubuntu" font-size="11" font-weight="400" font-style="normal" 
>
<path vector-effect="non-scaling-stroke" fill-rule="evenodd" d="M26,0 C26,13.8071 14.3594,25 0,25 C-14.3594,25 -26,13.8071 -26,0 C-26,-13.8071 -14.3594,-25 0,-25 C14.3594,-25 26,-13.8071 26,0 "/>
</g>
</g>
<g fill="none" stroke="black" stroke-width="1" fill-rule="evenodd" stroke-linecap="square" stroke-linejoin="bevel" >

<g fill="#f0f0d2" fill-opacity="1" stroke="#000000" stroke-opacity="1" stroke-width="1" stroke-linecap="square" stroke-linejoin="bevel" transform="matrix(1,0,0,1,394.52,-428.297)"
font-family="Ubuntu" font-size="11" font-weight="400" font-style="normal" 
>
<path vector-effect="non-scaling-stroke" fill-rule="evenodd" d="M26,0 C26,13.8071 14.3594,25 0,25 C-14.3594,25 -26,13.8071 -26,0 C-26,-13.8071 -14.3594,-25 0,-25 C14.3594,-25 26,-13.8071 26,0 "/>
</g>
</g>
<g fill="none" stroke="black" stroke-width="1" fill-rule="evenodd" stroke-linecap="square" stroke-linejoin="bevel" >

<g fill="#f0f0d2" fill-opacity="1" stroke="#000000" stroke-opacity="1" stroke-width="1" stroke-linecap="square" stroke-linejoin="bevel" transform="matrix(1,0,0,1,244.843,-654.055)"
font-family="Ubuntu" font-size="11" font-weight="400" font-style="normal" 
>
<path vector-effect="non-scaling-stroke" fill-rule="evenodd" d="M26,0 C26,13.8071 14.3594,25 0,25 C-14.3594,25 -26,13.8071 -26,0 C-26,-13.8071 -14.3594,-25 0,-25 C14.3594,-25 26,-13.8071 26,0 "/>
</g>
</g>
<g fill="none" stroke="black" stroke-width="1" fill-rule="evenodd" stroke-linecap="square" stroke-linejoin="bevel" >

<g fill="#f0f0d2" fill-opacity="1" stroke="#000000" stroke-opacity="1" stroke-width="1" stroke-linecap="square" stroke-linejoin="bevel" transform="matrix(1,0,0,1,246.518,-541.357)"
font-family="Ubuntu" font-size="11" font-weight="400" font-style="normal" 
>
<path vector-effect="non-scaling-stroke" fill-rule="evenodd" d="M26,0 C26,13.8071 14.3594,25 0,25 C-14.3594,25 -26,13.8071 -26,0 C-26,-13.8071 -14.3594,-25 0,-25 C14.3594,-25 26,-13.8071 26,0 "/>
</g>
</g>
<g fill="none" stroke="black" stroke-width="1" fill-rule="evenodd" stroke-linecap="square" stroke-linejoin="bevel" >

<g fill="#f0f0d2" fill-opacity="1" stroke="#000000" stroke-opacity="1" stroke-width="1" stroke-linecap="square" stroke-linejoin="bevel" transform="matrix(1,0,0,1,267.868,-425.278)"
font-family="Ubuntu" font-size="11" font-weight="400" font-style="normal" 
>
<path vector-effect="non-scaling-stroke" fill-rule="evenodd" d="M26,0 C26,13.8071 14.3594,25 0,25 C-14.3594,25 -26,13.8071 -26,0 C-26,-13.8071 -14.3594,-25 0,-25 C14.3594,-25 26,-13.8071 26,0 "/>
</g>
</g>
<g fill="none" stroke="black" stroke-width="1" fill-rule="evenodd" stroke-linecap="square" stroke-linejoin="bevel" >

<g fill="#f0f0d2" fill-opacity="1" stroke="#000000" stroke-opacity="1" stroke-width="1" stroke-linecap="square" stroke-linejoin="bevel" transform="matrix(1,0,0,1,166.121,-344.783)"
font-family="Ubuntu" font-size="11" font-weight="400" font-style="normal" 
>
<path vector-effect="non-scaling-stroke" fill-rule="evenodd" d="M26,0 C26,13.8071 14.3594,25 0,25 C-14.3594,25 -26,13.8071 -26,0 C-26,-13.8071 -14.3594,-25 0,-25 C14.3594,-25 26,-13.8071 26,0 "/>
</g>
</g>
<g fill="none" stroke="black" stroke-width="1" fill-rule="evenodd" stroke-linecap="square" stroke-linejoin="bevel" >

<g fill="#f0f0d2" fill-opacity="1" stroke="#000000" stroke-opacity="1" stroke-width="1" stroke-linecap="square" stroke-linejoin="bevel" transform="matrix(1,0,0,1,165.357,61.9764)"
font-family="Ubuntu" font-size="11" font-weight="400" font-style="normal" 
>
<path vector-effect="non-scaling-stroke" fill-rule="evenodd" d="M26,0 C26,13.8071 14.3594,25 0,25 C-14.3594,25 -26,13.8071 -26,0 C-26,-13.8071 -14.3594,-25 0,-25 C14.3594,-25 26,-13.8071 26,0 "/>
</g>
</g>
<g fill="none" stroke="black" stroke-width="1" fill-rule="evenodd" stroke-linecap="square" stroke-linejoin="bevel" >

<g fill="#f0f0d2" fill-opacity="1" stroke="#000000" stroke-opacity="1" stroke-width="1" stroke-linecap="square" stroke-linejoin="bevel" transform="matrix(1,0,0,1,114.236,157.376)"
font-family="Ubuntu" font-size="11" font-weight="400" font-style="normal" 
>
<path vector-effect="non-scaling-stroke" fill-rule="evenodd" d="M26,0 C26,13.8071 14.3594,25 0,25 C-14.3594,25 -26,13.8071 -26,0 C-26,-13.8071 -14.3594,-25 0,-25 C14.3594,-25 26,-13.8071 26,0 "/>
</g>
</g>
<g fill="none" stroke="black" stroke-width="1" fill-rule="evenodd" stroke-linecap="square" stroke-linejoin="bevel" >

<g fill="#f0f0d2" fill-opacity="1" stroke="#000000" stroke-opacity="1" stroke-width="1" stroke-linecap="square" stroke-linejoin="bevel" transform="matrix(1,0,0,1,33.967,85.4727)"
font-family="Ubuntu" font-size="11" font-weight="400" font-style="normal" 
>
<path vector-effect="non-scaling-stroke" fill-rule="evenodd" d="M26,0 C26,13.8071 14.3594,25 0,25 C-14.3594,25 -26,13.8071 -26,0 C-26,-13.8071 -14.3594,-25 0,-25 C14.3594,-25 26,-13.8071 26,0 "/>
</g>
</g>
<g fill="none" stroke="black" stroke-width="1" fill-rule="evenodd" stroke-linecap="square" stroke-linejoin="bevel" >

<g fill="#f0f0d2" fill-opacity="1" stroke="#000000" stroke-opacity="1" stroke-width="1" stroke-linecap="square" stroke-linejoin="bevel" transform="matrix(1,0,0,1,85.0001,-19.6384)"
font-family="Ubuntu" font-size="11" font-weight="400" font-style="normal" 
>
<path vector-effect="non-scaling-stroke" fill-rule="evenodd" d="M26,0 C26,13.8071 14.3594,25 0,25 C-14.3594,25 -26,13.8071 -26,0 C-26,-13.8071 -14.3594,-25 0,-25 C14.3594,-25 26,-13.8071 26,0 "/>
</g>
</g>
<g fill="none" stroke="black" stroke-width="1" fill-rule="evenodd" stroke-linecap="square" stroke-linejoin="bevel" >

<g fill="#f0f0d2" fill-opacity="1" stroke="#000000" stroke-opacity="1" stroke-width="1" stroke-linecap="square" stroke-linejoin="bevel" transform="matrix(1,0,0,1,72.4422,-141.182)"
font-family="Ubuntu" font-size="11" font-weight="400" font-style="normal" 
>
<path vector-effect="non-scaling-stroke" fill-rule="evenodd" d="M26,0 C26,13.8071 14.3594,25 0,25 C-14.3594,25 -26,13.8071 -26,0 C-26,-13.8071 -14.3594,-25 0,-25 C14.3594,-25 26,-13.8071 26,0 "/>
</g>
</g>
<g fill="none" stroke="black" stroke-width="1" fill-rule="evenodd" stroke-linecap="square" stroke-linejoin="bevel" >

<g fill="#f0f0d2" fill-opacity="1" stroke="#000000" stroke-opacity="1" stroke-width="1" stroke-linecap="square" stroke-linejoin="bevel" transform="matrix(1,0,0,1,64.1175,-265.329)"
font-family="Ubuntu" font-size="11" font-weight="400" font-style="normal" 
>
<path vector-effect="non-scaling-stroke" fill-rule="evenodd" d="M26,0 C26,13.8071 14.3594,25 0,25 C-14.3594,25 -26,13.8071 -26,0 C-26,-13.8071 -14.3594,-25 0,-25 C14.3594,-25 26,-13.8071 26,0 "/>
</g>
</g>
<g fill="none" stroke="black" stroke-width="1" fill-rule="evenodd" stroke-linecap="square" stroke-linejoin="bevel" >

<g fill="#f0f0d2" fill-opacity="1" stroke="#000000" stroke-opacity="1" stroke-width="1" stroke-linecap="square" stroke-linejoin="bevel" transform="matrix(1,0,0,1,-57.5526,-296.036)"
font-family="Ubuntu" font-size="11" font-weight="400" font-style="normal" 
>
<path vector-effect="non-scaling-stroke" fill-rule="evenodd" d="M26,0 C26,13.8071 14.3594,25 0,25 C-14.3594,25 -26,13.8071 -26,0 C-26,-13.8071 -14.3594,-25 0,-25 C14.3594,-25 26,-13.8071 26,0 "/>
</g>
</g>
<g fill="none" stroke="black" stroke-width="1" fill-rule="evenodd" stroke-linecap="square" stroke-linejoin="bevel" >

<g fill="#f0f0d2" fill-opacity="1" stroke="#000000" stroke-opacity="1" stroke-width="1" stroke-linecap="square" stroke-linejoin="bevel" transform="matrix(1,0,0,1,-176.359,-331.637)"
font-family="Ubuntu" font-size="11" font-weight="400" font-style="normal" 
>
<path vector-effect="non-scaling-stroke" fill-rule="evenodd" d="M26,0 C26,13.8071 14.3594,25 0,25 C-14.3594,25 -26,13.8071 -26,0 C-26,-13.8071 -14.3594,-25 0,-25 C14.3594,-25 26,-13.8071 26,0 "/>
</g>
</g>
<g fill="none" stroke="black" stroke-width="1" fill-rule="evenodd" stroke-linecap="square" stroke-linejoin="bevel" >

<g fill="#f0f0d2" fill-opacity="1" stroke="#000000" stroke-opacity="1" stroke-width="1" stroke-linecap="square" stroke-linejoin="bevel" transform="matrix(1,0,0,1,-240.4,-426.904)"
font-family="Ubuntu" font-size="11" font-weight="400" font-style="normal" 
>
<path vector-effect="non-scaling-stroke" fill-rule="evenodd" d="M26,0 C26,13.8071 14.3594,25 0,25 C-14.3594,25 -26,13.8071 -26,0 C-26,-13.8071 -14.3594,-25 0,-25 C14.3594,-25 26,-13.8071 26,0 "/>
</g>
</g>
<g fill="none" stroke="black" stroke-width="1" fill-rule="evenodd" stroke-linecap="square" stroke-linejoin="bevel" >

<g fill="#f0f0d2" fill-opacity="1" stroke="#000000" stroke-opacity="1" stroke-width="1" stroke-linecap="square" stroke-linejoin="bevel" transform="matrix(1,0,0,1,-289.128,-302.218)"
font-family="Ubuntu" font-size="11" font-weight="400" font-style="normal" 
>
<path vector-effect="non-scaling-stroke" fill-rule="evenodd" d="M26,0 C26,13.8071 14.3594,25 0,25 C-14.3594,25 -26,13.8071 -26,0 C-26,-13.8071 -14.3594,-25 0,-25 C14.3594,-25 26,-13.8071 26,0 "/>
</g>
</g>
<g fill="none" stroke="black" stroke-width="1" fill-rule="evenodd" stroke-linecap="square" stroke-linejoin="bevel" >

<g fill="#f0f0d2" fill-opacity="1" stroke="#000000" stroke-opacity="1" stroke-width="1" stroke-linecap="square" stroke-linejoin="bevel" transform="matrix(1,0,0,1,-344.079,-395.171)"
font-family="Ubuntu" font-size="11" font-weight="400" font-style="normal" 
>
<path vector-effect="non-scaling-stroke" fill-rule="evenodd" d="M26,0 C26,13.8071 14.3594,25 0,25 C-14.3594,25 -26,13.8071 -26,0 C-26,-13.8071 -14.3594,-25 0,-25 C14.3594,-25 26,-13.8071 26,0 "/>
</g>
</g>
<!-- Dunnart description -->
    <dunnart:options flowSeparation="0.5" automaticGraphLayout="1" routingBuffer="4" rubberBandRouting="0" layoutBeautify="0" colourInterferingConnectors="0" penaliseCrossings="0" layoutMode="0" preventOverlaps="0" defaultIdealConnectorLength="1" segmentPenalty="50" layoutMethod="0" avoidBuffer="0" pageBoundaryConstraints="0"/>
    <dunnart:node width="52" cx="-344.079" cy="-395.171" height="50" type="org.dunnart.shapes.ellipse" id="1"/>
    <dunnart:node width="52" cx="-289.128" cy="-302.218" height="50" type="org.dunnart.shapes.ellipse" id="2"/>
    <dunnart:node width="52" cx="-240.4" cy="-426.904" height="50" type="org.dunnart.shapes.ellipse" id="3"/>
    <dunnart:node width="52" cx="-176.359" cy="-331.637" height="50" type="org.dunnart.shapes.ellipse" id="4"/>
    <dunnart:node width="52" cx="-57.5526" cy="-296.036" height="50" type="org.dunnart.shapes.ellipse" id="5"/>
    <dunnart:node width="52" cx="64.1175" cy="-265.329" height="50" type="org.dunnart.shapes.ellipse" id="6"/>
    <dunnart:node width="52" cx="72.4422" cy="-141.182" height="50" type="org.dunnart.shapes.ellipse" id="7"/>
    <dunnart:node width="52" cx="85.0001" cy="-19.6384" height="50" type="org.dunnart.shapes.ellipse" id="8"/>
    <dunnart:node width="52" cx="33.967" cy="85.4727" height="50" type="org.dunnart.shapes.ellipse" id="9"/>
    <dunnart:node width="52" cx="114.236" cy="157.376" height="50" type="org.dunnart.shapes.ellipse" id="10"/>
    <dunnart:node width="52" cx="165.357" cy="61.9764" height="50" type="org.dunnart.shapes.ellipse" id="11"/>
    <dunnart:node width="52" cx="166.121" cy="-344.783" height="50" type="org.dunnart.shapes.ellipse" id="12"/>
    <dunnart:node width="52" cx="267.868" cy="-425.278" height="50" type="org.dunnart.shapes.ellipse" id="13"/>
    <dunnart:node width="52" cx="246.518" cy="-541.357" height="50" type="org.dunnart.shapes.ellipse" id="14"/>
    <dunnart:node width="52" cx="244.843" cy="-654.055" height="50" type="org.dunnart.shapes.ellipse" id="15"/>
    <dunnart:node width="52" cx="394.52" cy="-428.297" height="50" type="org.dunnart.shapes.ellipse" id="16"/>
    <dunnart:node width="52" cx="487.497" cy="-499.23" height="50" type="org.dunnart.shapes.ellipse" id="17"/>
    <dunnart:node width="52" cx="478.034" cy="-355.71" height="50" type="org.dunnart.shapes.ellipse" id="18"/>
    <dunnart:node dstX="-289.128" srcX="-344.079" dstY="-302.218" srcY="-395.171" srcID="1" type="connector" dstID="2" id="19"/>
    <dunnart:node dstX="-344.079" srcX="-240.4" dstY="-395.171" srcY="-426.904" srcID="3" type="connector" dstID="1" id="20"/>
    <dunnart:node dstX="-176.359" srcX="-289.128" dstY="-331.637" srcY="-302.218" srcID="2" type="connector" dstID="4" id="21"/>
    <dunnart:node dstX="-176.359" srcX="-240.4" dstY="-331.637" srcY="-426.904" srcID="3" type="connector" dstID="4" id="22"/>
    <dunnart:node dstX="-176.359" srcX="-57.5526" dstY="-331.637" srcY="-296.036" srcID="5" type="connector" dstID="4" id="23"/>
    <dunnart:node dstX="-57.5526" srcX="64.1175" dstY="-296.036" srcY="-265.329" srcID="6" type="connector" dstID="5" id="24"/>
    <dunnart:node dstX="64.1175" srcX="72.4422" dstY="-265.329" srcY="-141.182" srcID="7" type="connector" dstID="6" id="25"/>
    <dunnart:node dstX="64.1175" srcX="166.121" dstY="-265.329" srcY="-344.783" srcID="12" type="connector" dstID="6" id="26"/>
    <dunnart:node dstX="166.121" srcX="267.868" dstY="-344.783" srcY="-425.278" srcID="13" type="connector" dstID="12" id="27"/>
    <dunnart:node dstX="267.868" srcX="246.518" dstY="-425.278" srcY="-541.357" srcID="14" type="connector" dstID="13" id="28"/>
    <dunnart:node dstX="267.868" srcX="394.52" dstY="-425.278" srcY="-428.297" srcID="16" type="connector" dstID="13" id="29"/>
    <dunnart:node dstX="246.518" srcX="244.843" dstY="-541.357" srcY="-654.055" srcID="15" type="connector" dstID="14" id="30"/>
    <dunnart:node dstX="394.52" srcX="487.497" dstY="-428.297" srcY="-499.23" srcID="17" type="connector" dstID="16" id="32"/>
    <dunnart:node dstX="394.52" srcX="478.034" dstY="-428.297" srcY="-355.71" srcID="18" type="connector" dstID="16" id="33"/>
    <dunnart:node dstX="72.4422" srcX="85.0001" dstY="-141.182" srcY="-19.6384" srcID="8" type="connector" dstID="7" id="34"/>
    <dunnart:node dstX="85.0001" srcX="33.967" dstY="-19.6384" srcY="85.4727" srcID="9" type="connector" dstID="8" id="35"/>
    <dunnart:node dstX="85.0001" srcX="165.357" dstY="-19.6384" srcY="61.9764" srcID="11" type="connector" dstID="8" id="36"/>
    <dunnart:node dstX="165.357" srcX="114.236" dstY="61.9764" srcY="157.376" srcID="10" type="connector" dstID="11" id="37"/>
    <dunnart:node dstX="33.967" srcX="114.236" dstY="85.4727" srcY="157.376" srcID="10" type="connector" dstID="9" id="38"/>
</svg>
