<?xml version="1.0" encoding="UTF-8" standalone="no"?>
<svg width="0mm" height="0mm"
 xmlns:dunnart="http://www.dunnart.org/ns/dunnart"
 xmlns="http://www.w3.org/2000/svg" xmlns:xlink="http://www.w3.org/1999/xlink"  version="1.2" baseProfile="tiny">
<title>treeAndBCs3.svg</title>
<desc>This SVG file was saved from Dunnart.  http://www.dunnart.org/</desc>
<defs>
</defs>
<g fill="none" stroke="black" stroke-width="1" fill-rule="evenodd" stroke-linecap="square" stroke-linejoin="bevel" >

<g fill="none" stroke="#000000" stroke-opacity="1" stroke-width="1" stroke-linecap="square" stroke-linejoin="bevel" transform="matrix(1,0,0,1,244,13)"
font-family="Lucida Grande" font-size="13" font-weight="400" font-style="normal" 
>
<path vector-effect="non-scaling-stroke" fill-rule="evenodd" d="M0,0 L-98,-19 L0,0"/>
</g>
</g>
<g fill="none" stroke="black" stroke-width="1" fill-rule="evenodd" stroke-linecap="square" stroke-linejoin="bevel" >

<g fill="none" stroke="#000000" stroke-opacity="1" stroke-width="1" stroke-linecap="square" stroke-linejoin="bevel" transform="matrix(1,0,0,1,244,13)"
font-family="Lucida Grande" font-size="13" font-weight="400" font-style="normal" 
>
<path vector-effect="non-scaling-stroke" fill-rule="evenodd" d="M0,0 L25,-91 L0,0"/>
</g>
</g>
<g fill="none" stroke="black" stroke-width="1" fill-rule="evenodd" stroke-linecap="square" stroke-linejoin="bevel" >

<g fill="none" stroke="#000000" stroke-opacity="1" stroke-width="1" stroke-linecap="square" stroke-linejoin="bevel" transform="matrix(1,0,0,1,269,-78)"
font-family="Lucida Grande" font-size="13" font-weight="400" font-style="normal" 
>
<path vector-effect="non-scaling-stroke" fill-rule="evenodd" d="M0,0 L-97,-13 L0,0"/>
</g>
</g>
<g fill="none" stroke="black" stroke-width="1" fill-rule="evenodd" stroke-linecap="square" stroke-linejoin="bevel" >

<g fill="none" stroke="#000000" stroke-opacity="1" stroke-width="1" stroke-linecap="square" stroke-linejoin="bevel" transform="matrix(1,0,0,1,146,-6)"
font-family="Lucida Grande" font-size="13" font-weight="400" font-style="normal" 
>
<path vector-effect="non-scaling-stroke" fill-rule="evenodd" d="M0,0 L26,-85 L0,0"/>
</g>
</g>
<g fill="none" stroke="black" stroke-width="1" fill-rule="evenodd" stroke-linecap="square" stroke-linejoin="bevel" >

<g fill="none" stroke="#000000" stroke-opacity="1" stroke-width="1" stroke-linecap="square" stroke-linejoin="bevel" transform="matrix(1,0,0,1,172,-91)"
font-family="Lucida Grande" font-size="13" font-weight="400" font-style="normal" 
>
<path vector-effect="non-scaling-stroke" fill-rule="evenodd" d="M0,0 L-62,-86 L0,0"/>
</g>
</g>
<g fill="none" stroke="black" stroke-width="1" fill-rule="evenodd" stroke-linecap="square" stroke-linejoin="bevel" >

<g fill="none" stroke="#000000" stroke-opacity="1" stroke-width="1" stroke-linecap="square" stroke-linejoin="bevel" transform="matrix(1,0,0,1,357,-294)"
font-family="Lucida Grande" font-size="13" font-weight="400" font-style="normal" 
>
<path vector-effect="non-scaling-stroke" fill-rule="evenodd" d="M0,0 L-71,-51 L0,0"/>
</g>
</g>
<g fill="none" stroke="black" stroke-width="1" fill-rule="evenodd" stroke-linecap="square" stroke-linejoin="bevel" >

<g fill="none" stroke="#000000" stroke-opacity="1" stroke-width="1" stroke-linecap="square" stroke-linejoin="bevel" transform="matrix(1,0,0,1,348,-401)"
font-family="Lucida Grande" font-size="13" font-weight="400" font-style="normal" 
>
<path vector-effect="non-scaling-stroke" fill-rule="evenodd" d="M0,0 L-62,56 L0,0"/>
</g>
</g>
<g fill="none" stroke="black" stroke-width="1" fill-rule="evenodd" stroke-linecap="square" stroke-linejoin="bevel" >

<g fill="none" stroke="#000000" stroke-opacity="1" stroke-width="1" stroke-linecap="square" stroke-linejoin="bevel" transform="matrix(1,0,0,1,216,-496)"
font-family="Lucida Grande" font-size="13" font-weight="400" font-style="normal" 
>
<path vector-effect="non-scaling-stroke" fill-rule="evenodd" d="M0,0 L-48,62 L0,0"/>
</g>
</g>
<g fill="none" stroke="black" stroke-width="1" fill-rule="evenodd" stroke-linecap="square" stroke-linejoin="bevel" >

<g fill="none" stroke="#000000" stroke-opacity="1" stroke-width="1" stroke-linecap="square" stroke-linejoin="bevel" transform="matrix(1,0,0,1,286,-345)"
font-family="Lucida Grande" font-size="13" font-weight="400" font-style="normal" 
>
<path vector-effect="non-scaling-stroke" fill-rule="evenodd" d="M0,0 L-117,-1 L0,0"/>
</g>
</g>
<g fill="none" stroke="black" stroke-width="1" fill-rule="evenodd" stroke-linecap="square" stroke-linejoin="bevel" >

<g fill="none" stroke="#000000" stroke-opacity="1" stroke-width="1" stroke-linecap="square" stroke-linejoin="bevel" transform="matrix(1,0,0,1,168,-434)"
font-family="Lucida Grande" font-size="13" font-weight="400" font-style="normal" 
>
<path vector-effect="non-scaling-stroke" fill-rule="evenodd" d="M0,0 L1,88 L0,0"/>
</g>
</g>
<g fill="none" stroke="black" stroke-width="1" fill-rule="evenodd" stroke-linecap="square" stroke-linejoin="bevel" >

<g fill="none" stroke="#000000" stroke-opacity="1" stroke-width="1" stroke-linecap="square" stroke-linejoin="bevel" transform="matrix(1,0,0,1,169,-346)"
font-family="Lucida Grande" font-size="13" font-weight="400" font-style="normal" 
>
<path vector-effect="non-scaling-stroke" fill-rule="evenodd" d="M0,0 L-52,48 L0,0"/>
</g>
</g>
<g fill="none" stroke="black" stroke-width="1" fill-rule="evenodd" stroke-linecap="square" stroke-linejoin="bevel" >

<g fill="none" stroke="#000000" stroke-opacity="1" stroke-width="1" stroke-linecap="square" stroke-linejoin="bevel" transform="matrix(1,0,0,1,117,-298)"
font-family="Lucida Grande" font-size="13" font-weight="400" font-style="normal" 
>
<path vector-effect="non-scaling-stroke" fill-rule="evenodd" d="M0,0 L-72,54 L0,0"/>
</g>
</g>
<g fill="none" stroke="black" stroke-width="1" fill-rule="evenodd" stroke-linecap="square" stroke-linejoin="bevel" >

<g fill="none" stroke="#000000" stroke-opacity="1" stroke-width="1" stroke-linecap="square" stroke-linejoin="bevel" transform="matrix(1,0,0,1,110,-177)"
font-family="Lucida Grande" font-size="13" font-weight="400" font-style="normal" 
>
<path vector-effect="non-scaling-stroke" fill-rule="evenodd" d="M0,0 L-65,-67 L0,0"/>
</g>
</g>
<g fill="none" stroke="black" stroke-width="1" fill-rule="evenodd" stroke-linecap="square" stroke-linejoin="bevel" >

<g fill="none" stroke="#000000" stroke-opacity="1" stroke-width="1" stroke-linecap="square" stroke-linejoin="bevel" transform="matrix(1,0,0,1,45,-244)"
font-family="Lucida Grande" font-size="13" font-weight="400" font-style="normal" 
>
<path vector-effect="non-scaling-stroke" fill-rule="evenodd" d="M0,0 L-85,-73 L0,0"/>
</g>
</g>
<g fill="none" stroke="black" stroke-width="1" fill-rule="evenodd" stroke-linecap="square" stroke-linejoin="bevel" >

<g fill="none" stroke="#000000" stroke-opacity="1" stroke-width="1" stroke-linecap="square" stroke-linejoin="bevel" transform="matrix(1,0,0,1,-40,-317)"
font-family="Lucida Grande" font-size="13" font-weight="400" font-style="normal" 
>
<path vector-effect="non-scaling-stroke" fill-rule="evenodd" d="M0,0 L-92,-44 L0,0"/>
</g>
</g>
<g fill="none" stroke="black" stroke-width="1" fill-rule="evenodd" stroke-linecap="square" stroke-linejoin="bevel" >

<g fill="none" stroke="#000000" stroke-opacity="1" stroke-width="1" stroke-linecap="square" stroke-linejoin="bevel" transform="matrix(1,0,0,1,-163,-484)"
font-family="Lucida Grande" font-size="13" font-weight="400" font-style="normal" 
>
<path vector-effect="non-scaling-stroke" fill-rule="evenodd" d="M0,0 L31,123 L0,0"/>
</g>
</g>
<g fill="none" stroke="black" stroke-width="1" fill-rule="evenodd" stroke-linecap="square" stroke-linejoin="bevel" >

<g fill="none" stroke="#000000" stroke-opacity="1" stroke-width="1" stroke-linecap="square" stroke-linejoin="bevel" transform="matrix(1,0,0,1,-289,-318)"
font-family="Lucida Grande" font-size="13" font-weight="400" font-style="normal" 
>
<path vector-effect="non-scaling-stroke" fill-rule="evenodd" d="M0,0 L157,-43 L0,0"/>
</g>
</g>
<g fill="none" stroke="black" stroke-width="1" fill-rule="evenodd" stroke-linecap="square" stroke-linejoin="bevel" >

<g fill="none" stroke="#000000" stroke-opacity="1" stroke-width="1" stroke-linecap="square" stroke-linejoin="bevel" transform="matrix(1,0,0,1,-163,-484)"
font-family="Lucida Grande" font-size="13" font-weight="400" font-style="normal" 
>
<path vector-effect="non-scaling-stroke" fill-rule="evenodd" d="M0,0 L-147,39 L0,0"/>
</g>
</g>
<g fill="none" stroke="black" stroke-width="1" fill-rule="evenodd" stroke-linecap="square" stroke-linejoin="bevel" >

<g fill="none" stroke="#000000" stroke-opacity="1" stroke-width="1" stroke-linecap="square" stroke-linejoin="bevel" transform="matrix(1,0,0,1,-310,-445)"
font-family="Lucida Grande" font-size="13" font-weight="400" font-style="normal" 
>
<path vector-effect="non-scaling-stroke" fill-rule="evenodd" d="M0,0 L21,127 L0,0"/>
</g>
</g>
<g fill="none" stroke="black" stroke-width="1" fill-rule="evenodd" stroke-linecap="square" stroke-linejoin="bevel" >

<g fill="#f0f0d2" fill-opacity="1" stroke="#000000" stroke-opacity="1" stroke-width="1" stroke-linecap="square" stroke-linejoin="bevel" transform="matrix(1,0,0,1,357,-294)"
font-family="Lucida Grande" font-size="13" font-weight="400" font-style="normal" 
>
<path vector-effect="non-scaling-stroke" fill-rule="evenodd" d="M26,0 C26,13.8071 14.3594,25 0,25 C-14.3594,25 -26,13.8071 -26,0 C-26,-13.8071 -14.3594,-25 0,-25 C14.3594,-25 26,-13.8071 26,0 "/>
</g>
</g>
<g fill="none" stroke="black" stroke-width="1" fill-rule="evenodd" stroke-linecap="square" stroke-linejoin="bevel" >

<g fill="#f0f0d2" fill-opacity="1" stroke="#000000" stroke-opacity="1" stroke-width="1" stroke-linecap="square" stroke-linejoin="bevel" transform="matrix(1,0,0,1,348,-401)"
font-family="Lucida Grande" font-size="13" font-weight="400" font-style="normal" 
>
<path vector-effect="non-scaling-stroke" fill-rule="evenodd" d="M26,0 C26,13.8071 14.3594,25 0,25 C-14.3594,25 -26,13.8071 -26,0 C-26,-13.8071 -14.3594,-25 0,-25 C14.3594,-25 26,-13.8071 26,0 "/>
</g>
</g>
<g fill="none" stroke="black" stroke-width="1" fill-rule="evenodd" stroke-linecap="square" stroke-linejoin="bevel" >

<g fill="#f0f0d2" fill-opacity="1" stroke="#000000" stroke-opacity="1" stroke-width="1" stroke-linecap="square" stroke-linejoin="bevel" transform="matrix(1,0,0,1,286,-345)"
font-family="Lucida Grande" font-size="13" font-weight="400" font-style="normal" 
>
<path vector-effect="non-scaling-stroke" fill-rule="evenodd" d="M26,0 C26,13.8071 14.3594,25 0,25 C-14.3594,25 -26,13.8071 -26,0 C-26,-13.8071 -14.3594,-25 0,-25 C14.3594,-25 26,-13.8071 26,0 "/>
</g>
</g>
<g fill="none" stroke="black" stroke-width="1" fill-rule="evenodd" stroke-linecap="square" stroke-linejoin="bevel" >

<g fill="#f0f0d2" fill-opacity="1" stroke="#000000" stroke-opacity="1" stroke-width="1" stroke-linecap="square" stroke-linejoin="bevel" transform="matrix(1,0,0,1,216,-496)"
font-family="Lucida Grande" font-size="13" font-weight="400" font-style="normal" 
>
<path vector-effect="non-scaling-stroke" fill-rule="evenodd" d="M26,0 C26,13.8071 14.3594,25 0,25 C-14.3594,25 -26,13.8071 -26,0 C-26,-13.8071 -14.3594,-25 0,-25 C14.3594,-25 26,-13.8071 26,0 "/>
</g>
</g>
<g fill="none" stroke="black" stroke-width="1" fill-rule="evenodd" stroke-linecap="square" stroke-linejoin="bevel" >

<g fill="#f0f0d2" fill-opacity="1" stroke="#000000" stroke-opacity="1" stroke-width="1" stroke-linecap="square" stroke-linejoin="bevel" transform="matrix(1,0,0,1,168,-434)"
font-family="Lucida Grande" font-size="13" font-weight="400" font-style="normal" 
>
<path vector-effect="non-scaling-stroke" fill-rule="evenodd" d="M26,0 C26,13.8071 14.3594,25 0,25 C-14.3594,25 -26,13.8071 -26,0 C-26,-13.8071 -14.3594,-25 0,-25 C14.3594,-25 26,-13.8071 26,0 "/>
</g>
</g>
<g fill="none" stroke="black" stroke-width="1" fill-rule="evenodd" stroke-linecap="square" stroke-linejoin="bevel" >

<g fill="#f0f0d2" fill-opacity="1" stroke="#000000" stroke-opacity="1" stroke-width="1" stroke-linecap="square" stroke-linejoin="bevel" transform="matrix(1,0,0,1,169,-346)"
font-family="Lucida Grande" font-size="13" font-weight="400" font-style="normal" 
>
<path vector-effect="non-scaling-stroke" fill-rule="evenodd" d="M26,0 C26,13.8071 14.3594,25 0,25 C-14.3594,25 -26,13.8071 -26,0 C-26,-13.8071 -14.3594,-25 0,-25 C14.3594,-25 26,-13.8071 26,0 "/>
</g>
</g>
<g fill="none" stroke="black" stroke-width="1" fill-rule="evenodd" stroke-linecap="square" stroke-linejoin="bevel" >

<g fill="#f0f0d2" fill-opacity="1" stroke="#000000" stroke-opacity="1" stroke-width="1" stroke-linecap="square" stroke-linejoin="bevel" transform="matrix(1,0,0,1,117,-298)"
font-family="Lucida Grande" font-size="13" font-weight="400" font-style="normal" 
>
<path vector-effect="non-scaling-stroke" fill-rule="evenodd" d="M26,0 C26,13.8071 14.3594,25 0,25 C-14.3594,25 -26,13.8071 -26,0 C-26,-13.8071 -14.3594,-25 0,-25 C14.3594,-25 26,-13.8071 26,0 "/>
</g>
</g>
<g fill="none" stroke="black" stroke-width="1" fill-rule="evenodd" stroke-linecap="square" stroke-linejoin="bevel" >

<g fill="#f0f0d2" fill-opacity="1" stroke="#000000" stroke-opacity="1" stroke-width="1" stroke-linecap="square" stroke-linejoin="bevel" transform="matrix(1,0,0,1,269,-78)"
font-family="Lucida Grande" font-size="13" font-weight="400" font-style="normal" 
>
<path vector-effect="non-scaling-stroke" fill-rule="evenodd" d="M26,0 C26,13.8071 14.3594,25 0,25 C-14.3594,25 -26,13.8071 -26,0 C-26,-13.8071 -14.3594,-25 0,-25 C14.3594,-25 26,-13.8071 26,0 "/>
</g>
</g>
<g fill="none" stroke="black" stroke-width="1" fill-rule="evenodd" stroke-linecap="square" stroke-linejoin="bevel" >

<g fill="#f0f0d2" fill-opacity="1" stroke="#000000" stroke-opacity="1" stroke-width="1" stroke-linecap="square" stroke-linejoin="bevel" transform="matrix(1,0,0,1,244,13)"
font-family="Lucida Grande" font-size="13" font-weight="400" font-style="normal" 
>
<path vector-effect="non-scaling-stroke" fill-rule="evenodd" d="M26,0 C26,13.8071 14.3594,25 0,25 C-14.3594,25 -26,13.8071 -26,0 C-26,-13.8071 -14.3594,-25 0,-25 C14.3594,-25 26,-13.8071 26,0 "/>
</g>
</g>
<g fill="none" stroke="black" stroke-width="1" fill-rule="evenodd" stroke-linecap="square" stroke-linejoin="bevel" >

<g fill="#f0f0d2" fill-opacity="1" stroke="#000000" stroke-opacity="1" stroke-width="1" stroke-linecap="square" stroke-linejoin="bevel" transform="matrix(1,0,0,1,146,-6)"
font-family="Lucida Grande" font-size="13" font-weight="400" font-style="normal" 
>
<path vector-effect="non-scaling-stroke" fill-rule="evenodd" d="M26,0 C26,13.8071 14.3594,25 0,25 C-14.3594,25 -26,13.8071 -26,0 C-26,-13.8071 -14.3594,-25 0,-25 C14.3594,-25 26,-13.8071 26,0 "/>
</g>
</g>
<g fill="none" stroke="black" stroke-width="1" fill-rule="evenodd" stroke-linecap="square" stroke-linejoin="bevel" >

<g fill="#f0f0d2" fill-opacity="1" stroke="#000000" stroke-opacity="1" stroke-width="1" stroke-linecap="square" stroke-linejoin="bevel" transform="matrix(1,0,0,1,172,-91)"
font-family="Lucida Grande" font-size="13" font-weight="400" font-style="normal" 
>
<path vector-effect="non-scaling-stroke" fill-rule="evenodd" d="M26,0 C26,13.8071 14.3594,25 0,25 C-14.3594,25 -26,13.8071 -26,0 C-26,-13.8071 -14.3594,-25 0,-25 C14.3594,-25 26,-13.8071 26,0 "/>
</g>
</g>
<g fill="none" stroke="black" stroke-width="1" fill-rule="evenodd" stroke-linecap="square" stroke-linejoin="bevel" >

<g fill="#f0f0d2" fill-opacity="1" stroke="#000000" stroke-opacity="1" stroke-width="1" stroke-linecap="square" stroke-linejoin="bevel" transform="matrix(1,0,0,1,110,-177)"
font-family="Lucida Grande" font-size="13" font-weight="400" font-style="normal" 
>
<path vector-effect="non-scaling-stroke" fill-rule="evenodd" d="M26,0 C26,13.8071 14.3594,25 0,25 C-14.3594,25 -26,13.8071 -26,0 C-26,-13.8071 -14.3594,-25 0,-25 C14.3594,-25 26,-13.8071 26,0 "/>
</g>
</g>
<g fill="none" stroke="black" stroke-width="1" fill-rule="evenodd" stroke-linecap="square" stroke-linejoin="bevel" >

<g fill="#f0f0d2" fill-opacity="1" stroke="#000000" stroke-opacity="1" stroke-width="1" stroke-linecap="square" stroke-linejoin="bevel" transform="matrix(1,0,0,1,45,-244)"
font-family="Lucida Grande" font-size="13" font-weight="400" font-style="normal" 
>
<path vector-effect="non-scaling-stroke" fill-rule="evenodd" d="M26,0 C26,13.8071 14.3594,25 0,25 C-14.3594,25 -26,13.8071 -26,0 C-26,-13.8071 -14.3594,-25 0,-25 C14.3594,-25 26,-13.8071 26,0 "/>
</g>
</g>
<g fill="none" stroke="black" stroke-width="1" fill-rule="evenodd" stroke-linecap="square" stroke-linejoin="bevel" >

<g fill="#f0f0d2" fill-opacity="1" stroke="#000000" stroke-opacity="1" stroke-width="1" stroke-linecap="square" stroke-linejoin="bevel" transform="matrix(1,0,0,1,-40,-317)"
font-family="Lucida Grande" font-size="13" font-weight="400" font-style="normal" 
>
<path vector-effect="non-scaling-stroke" fill-rule="evenodd" d="M26,0 C26,13.8071 14.3594,25 0,25 C-14.3594,25 -26,13.8071 -26,0 C-26,-13.8071 -14.3594,-25 0,-25 C14.3594,-25 26,-13.8071 26,0 "/>
</g>
</g>
<g fill="none" stroke="black" stroke-width="1" fill-rule="evenodd" stroke-linecap="square" stroke-linejoin="bevel" >

<g fill="#f0f0d2" fill-opacity="1" stroke="#000000" stroke-opacity="1" stroke-width="1" stroke-linecap="square" stroke-linejoin="bevel" transform="matrix(1,0,0,1,-132,-361)"
font-family="Lucida Grande" font-size="13" font-weight="400" font-style="normal" 
>
<path vector-effect="non-scaling-stroke" fill-rule="evenodd" d="M26,0 C26,13.8071 14.3594,25 0,25 C-14.3594,25 -26,13.8071 -26,0 C-26,-13.8071 -14.3594,-25 0,-25 C14.3594,-25 26,-13.8071 26,0 "/>
</g>
</g>
<g fill="none" stroke="black" stroke-width="1" fill-rule="evenodd" stroke-linecap="square" stroke-linejoin="bevel" >

<g fill="#f0f0d2" fill-opacity="1" stroke="#000000" stroke-opacity="1" stroke-width="1" stroke-linecap="square" stroke-linejoin="bevel" transform="matrix(1,0,0,1,-163,-484)"
font-family="Lucida Grande" font-size="13" font-weight="400" font-style="normal" 
>
<path vector-effect="non-scaling-stroke" fill-rule="evenodd" d="M26,0 C26,13.8071 14.3594,25 0,25 C-14.3594,25 -26,13.8071 -26,0 C-26,-13.8071 -14.3594,-25 0,-25 C14.3594,-25 26,-13.8071 26,0 "/>
</g>
</g>
<g fill="none" stroke="black" stroke-width="1" fill-rule="evenodd" stroke-linecap="square" stroke-linejoin="bevel" >

<g fill="#f0f0d2" fill-opacity="1" stroke="#000000" stroke-opacity="1" stroke-width="1" stroke-linecap="square" stroke-linejoin="bevel" transform="matrix(1,0,0,1,-289,-318)"
font-family="Lucida Grande" font-size="13" font-weight="400" font-style="normal" 
>
<path vector-effect="non-scaling-stroke" fill-rule="evenodd" d="M26,0 C26,13.8071 14.3594,25 0,25 C-14.3594,25 -26,13.8071 -26,0 C-26,-13.8071 -14.3594,-25 0,-25 C14.3594,-25 26,-13.8071 26,0 "/>
</g>
</g>
<g fill="none" stroke="black" stroke-width="1" fill-rule="evenodd" stroke-linecap="square" stroke-linejoin="bevel" >

<g fill="#f0f0d2" fill-opacity="1" stroke="#000000" stroke-opacity="1" stroke-width="1" stroke-linecap="square" stroke-linejoin="bevel" transform="matrix(1,0,0,1,-310,-445)"
font-family="Lucida Grande" font-size="13" font-weight="400" font-style="normal" 
>
<path vector-effect="non-scaling-stroke" fill-rule="evenodd" d="M26,0 C26,13.8071 14.3594,25 0,25 C-14.3594,25 -26,13.8071 -26,0 C-26,-13.8071 -14.3594,-25 0,-25 C14.3594,-25 26,-13.8071 26,0 "/>
</g>
</g>
<!-- Dunnart description -->
    <dunnart:options flowSeparation="0.5" automaticGraphLayout="0" routingBuffer="4" rubberBandRouting="0" layoutBeautify="0" colourInterferingConnectors="0" penaliseCrossings="0" layoutMode="0" preventOverlaps="0" defaultIdealConnectorLength="1" segmentPenalty="50" layoutMethod="0" avoidBuffer="0" pageBoundaryConstraints="0"/>
    <dunnart:node width="52" cx="-310" cy="-445" height="50" type="org.dunnart.shapes.ellipse" id="1"/>
    <dunnart:node width="52" cx="-289" cy="-318" height="50" type="org.dunnart.shapes.ellipse" id="2"/>
    <dunnart:node width="52" cx="-163" cy="-484" height="50" type="org.dunnart.shapes.ellipse" id="3"/>
    <dunnart:node width="52" cx="-132" cy="-361" height="50" type="org.dunnart.shapes.ellipse" id="4"/>
    <dunnart:node width="52" cx="-40" cy="-317" height="50" type="org.dunnart.shapes.ellipse" id="5"/>
    <dunnart:node width="52" cx="45" cy="-244" height="50" type="org.dunnart.shapes.ellipse" id="6"/>
    <dunnart:node width="52" cx="110" cy="-177" height="50" type="org.dunnart.shapes.ellipse" id="7"/>
    <dunnart:node width="52" cx="172" cy="-91" height="50" type="org.dunnart.shapes.ellipse" id="8"/>
    <dunnart:node width="52" cx="146" cy="-6" height="50" type="org.dunnart.shapes.ellipse" id="9"/>
    <dunnart:node width="52" cx="244" cy="13" height="50" type="org.dunnart.shapes.ellipse" id="10"/>
    <dunnart:node width="52" cx="269" cy="-78" height="50" type="org.dunnart.shapes.ellipse" id="11"/>
    <dunnart:node width="52" cx="117" cy="-298" height="50" type="org.dunnart.shapes.ellipse" id="12"/>
    <dunnart:node width="52" cx="169" cy="-346" height="50" type="org.dunnart.shapes.ellipse" id="13"/>
    <dunnart:node width="52" cx="168" cy="-434" height="50" type="org.dunnart.shapes.ellipse" id="14"/>
    <dunnart:node width="52" cx="216" cy="-496" height="50" type="org.dunnart.shapes.ellipse" id="15"/>
    <dunnart:node width="52" cx="286" cy="-345" height="50" type="org.dunnart.shapes.ellipse" id="16"/>
    <dunnart:node width="52" cx="348" cy="-401" height="50" type="org.dunnart.shapes.ellipse" id="17"/>
    <dunnart:node width="52" cx="357" cy="-294" height="50" type="org.dunnart.shapes.ellipse" id="18"/>
    <dunnart:node dstX="-289" srcX="-310" dstY="-318" srcY="-445" srcID="1" type="connector" dstID="2" id="19"/>
    <dunnart:node dstX="-310" srcX="-163" dstY="-445" srcY="-484" srcID="3" type="connector" dstID="1" id="20"/>
    <dunnart:node dstX="-132" srcX="-289" dstY="-361" srcY="-318" srcID="2" type="connector" dstID="4" id="21"/>
    <dunnart:node dstX="-132" srcX="-163" dstY="-361" srcY="-484" srcID="3" type="connector" dstID="4" id="22"/>
    <dunnart:node dstX="-132" srcX="-40" dstY="-361" srcY="-317" srcID="5" type="connector" dstID="4" id="23"/>
    <dunnart:node dstX="-40" srcX="45" dstY="-317" srcY="-244" srcID="6" type="connector" dstID="5" id="24"/>
    <dunnart:node dstX="45" srcX="110" dstY="-244" srcY="-177" srcID="7" type="connector" dstID="6" id="25"/>
    <dunnart:node dstX="45" srcX="117" dstY="-244" srcY="-298" srcID="12" type="connector" dstID="6" id="26"/>
    <dunnart:node dstX="117" srcX="169" dstY="-298" srcY="-346" srcID="13" type="connector" dstID="12" id="27"/>
    <dunnart:node dstX="169" srcX="168" dstY="-346" srcY="-434" srcID="14" type="connector" dstID="13" id="28"/>
    <dunnart:node dstX="169" srcX="286" dstY="-346" srcY="-345" srcID="16" type="connector" dstID="13" id="29"/>
    <dunnart:node dstX="168" srcX="216" dstY="-434" srcY="-496" srcID="15" type="connector" dstID="14" id="30"/>
    <dunnart:node dstX="286" srcX="348" dstY="-345" srcY="-401" srcID="17" type="connector" dstID="16" id="32"/>
    <dunnart:node dstX="286" srcX="357" dstY="-345" srcY="-294" srcID="18" type="connector" dstID="16" id="33"/>
    <dunnart:node dstX="110" srcX="172" dstY="-177" srcY="-91" srcID="8" type="connector" dstID="7" id="34"/>
    <dunnart:node dstX="172" srcX="146" dstY="-91" srcY="-6" srcID="9" type="connector" dstID="8" id="35"/>
    <dunnart:node dstX="172" srcX="269" dstY="-91" srcY="-78" srcID="11" type="connector" dstID="8" id="36"/>
    <dunnart:node dstX="269" srcX="244" dstY="-78" srcY="13" srcID="10" type="connector" dstID="11" id="37"/>
    <dunnart:node dstX="146" srcX="244" dstY="-6" srcY="13" srcID="10" type="connector" dstID="9" id="38"/>
</svg>
