<?xml version="1.0" encoding="UTF-8" standalone="no"?>
<svg width="0mm" height="0mm"
 xmlns:dunnart="http://www.dunnart.org/ns/dunnart"
 xmlns="http://www.w3.org/2000/svg" xmlns:xlink="http://www.w3.org/1999/xlink"  version="1.2" baseProfile="tiny">
<title>v59BC.svg</title>
<desc>This SVG file was saved from Dunnart.  http://www.dunnart.org/</desc>
<defs>
</defs>
<g fill="none" stroke="black" stroke-width="1" fill-rule="evenodd" stroke-linecap="square" stroke-linejoin="bevel" >

<g fill="none" stroke="#000000" stroke-opacity="1" stroke-width="1" stroke-linecap="square" stroke-linejoin="bevel" transform="matrix(1,0,0,1,884.565,362.265)"
font-family="Ubuntu" font-size="11" font-weight="400" font-style="normal" 
>
<path vector-effect="non-scaling-stroke" fill-rule="evenodd" d="M0,0 L0,-38.4345 C0,-40.9345 -2.5,-43.4345 -5,-43.4345 L-66.08,-43.4345 C-68.58,-43.4345 -71.08,-45.9345 -71.08,-48.4345 L-71.08,-86.869 L-71.08,-48.4345 C-71.08,-45.9345 -68.58,-43.4345 -66.08,-43.4345 L-5,-43.4345 C-2.5,-43.4345 0,-40.9345 0,-38.4345 L0,0"/>
</g>
</g>
<g fill="none" stroke="black" stroke-width="1" fill-rule="evenodd" stroke-linecap="square" stroke-linejoin="bevel" >

<g fill="none" stroke="#000000" stroke-opacity="1" stroke-width="1" stroke-linecap="square" stroke-linejoin="bevel" transform="matrix(1,0,0,1,319.968,291.85)"
font-family="Ubuntu" font-size="11" font-weight="400" font-style="normal" 
>
<path vector-effect="non-scaling-stroke" fill-rule="evenodd" d="M0,0 L0,-49.2033 C0,-51.7033 -2.5,-54.2033 -5,-54.2033 L-23.492,-54.2033 C-25.992,-54.2033 -28.492,-56.7033 -28.492,-59.2033 L-28.492,-108.407 L-28.492,-59.2033 C-28.492,-56.7033 -25.992,-54.2033 -23.492,-54.2033 L-5,-54.2033 C-2.5,-54.2033 0,-51.7033 0,-49.2033 L0,0"/>
</g>
</g>
<g fill="none" stroke="black" stroke-width="1" fill-rule="evenodd" stroke-linecap="square" stroke-linejoin="bevel" >

<g fill="none" stroke="#000000" stroke-opacity="1" stroke-width="1" stroke-linecap="square" stroke-linejoin="bevel" transform="matrix(1,0,0,1,542.825,175.625)"
font-family="Ubuntu" font-size="11" font-weight="400" font-style="normal" 
>
<path vector-effect="non-scaling-stroke" fill-rule="evenodd" d="M0,0 L0,-37.5491 C0,-40.0491 -2.5,-42.5491 -5,-42.5491 L-68.05,-42.5491 C-70.55,-42.5491 -73.05,-45.0491 -73.05,-47.5491 L-73.05,-85.0983 L-73.05,-47.5491 C-73.05,-45.0491 -70.55,-42.5491 -68.05,-42.5491 L-5,-42.5491 C-2.5,-42.5491 0,-40.0491 0,-37.5491 L0,0"/>
</g>
</g>
<g fill="none" stroke="black" stroke-width="1" fill-rule="evenodd" stroke-linecap="square" stroke-linejoin="bevel" >

<g fill="none" stroke="#000000" stroke-opacity="1" stroke-width="1" stroke-linecap="square" stroke-linejoin="bevel" transform="matrix(1,0,0,1,737.635,487.473)"
font-family="Ubuntu" font-size="11" font-weight="400" font-style="normal" 
>
<path vector-effect="non-scaling-stroke" fill-rule="evenodd" d="M0,0 L0,-38.5585 C0,-41.0585 -2.5,-43.5585 -5,-43.5585 L-65.6,-43.5585 C-68.1,-43.5585 -70.6,-46.0585 -70.6,-48.5585 L-70.6,-87.117 L-70.6,-48.5585 C-70.6,-46.0585 -68.1,-43.5585 -65.6,-43.5585 L-5,-43.5585 C-2.5,-43.5585 0,-41.0585 0,-38.5585 L0,0"/>
</g>
</g>
<g fill="none" stroke="black" stroke-width="1" fill-rule="evenodd" stroke-linecap="square" stroke-linejoin="bevel" >

<g fill="none" stroke="#000000" stroke-opacity="1" stroke-width="1" stroke-linecap="square" stroke-linejoin="bevel" transform="matrix(1,0,0,1,890.145,179.352)"
font-family="Ubuntu" font-size="11" font-weight="400" font-style="normal" 
>
<path vector-effect="non-scaling-stroke" fill-rule="evenodd" d="M0,0 L37.06,0 C39.56,0 42.06,2.5 42.06,5 L42.06,63.1894 C42.06,65.6894 44.56,68.1894 47.06,68.1894 L84.12,68.1894 L47.06,68.1894 C44.56,68.1894 42.06,65.6894 42.06,63.1894 L42.06,5 C42.06,2.5 39.56,0 37.06,0 L0,0"/>
</g>
</g>
<g fill="none" stroke="black" stroke-width="1" fill-rule="evenodd" stroke-linecap="square" stroke-linejoin="bevel" >

<g fill="none" stroke="#000000" stroke-opacity="1" stroke-width="1" stroke-linecap="square" stroke-linejoin="bevel" transform="matrix(1,0,0,1,847.755,468.19)"
font-family="Ubuntu" font-size="11" font-weight="400" font-style="normal" 
>
<path vector-effect="non-scaling-stroke" fill-rule="evenodd" d="M0,0 L0,-47.9625 C0,-50.4625 2.5,-52.9625 5,-52.9625 L31.81,-52.9625 C34.31,-52.9625 36.81,-55.4625 36.81,-57.9625 L36.81,-105.925 L36.81,-57.9625 C36.81,-55.4625 34.31,-52.9625 31.81,-52.9625 L5,-52.9625 C2.5,-52.9625 0,-50.4625 0,-47.9625 L0,0"/>
</g>
</g>
<g fill="none" stroke="black" stroke-width="1" fill-rule="evenodd" stroke-linecap="square" stroke-linejoin="bevel" >

<g fill="none" stroke="#000000" stroke-opacity="1" stroke-width="1" stroke-linecap="square" stroke-linejoin="bevel" transform="matrix(1,0,0,1,667.035,400.356)"
font-family="Ubuntu" font-size="11" font-weight="400" font-style="normal" 
>
<path vector-effect="non-scaling-stroke" fill-rule="evenodd" d="M0,0 L0,-47.927 C0,-50.427 2.5,-52.927 5,-52.927 L32.33,-52.927 C34.83,-52.927 37.33,-55.427 37.33,-57.927 L37.33,-105.854 L37.33,-57.927 C37.33,-55.427 34.83,-52.927 32.33,-52.927 L5,-52.927 C2.5,-52.927 0,-50.427 0,-47.927 L0,0"/>
</g>
</g>
<g fill="none" stroke="black" stroke-width="1" fill-rule="evenodd" stroke-linecap="square" stroke-linejoin="bevel" >

<g fill="none" stroke="#000000" stroke-opacity="1" stroke-width="1" stroke-linecap="square" stroke-linejoin="bevel" transform="matrix(1,0,0,1,422.372,337.386)"
font-family="Ubuntu" font-size="11" font-weight="400" font-style="normal" 
>
<path vector-effect="non-scaling-stroke" fill-rule="evenodd" d="M0,0 L-46.202,0 C-48.702,0 -51.202,-2.5 -51.202,-5 L-51.202,-40.536 C-51.202,-43.036 -53.702,-45.536 -56.202,-45.536 L-102.404,-45.536 L-56.202,-45.536 C-53.702,-45.536 -51.202,-43.036 -51.202,-40.536 L-51.202,-5 C-51.202,-2.5 -48.702,0 -46.202,0 L0,0"/>
</g>
</g>
<g fill="none" stroke="black" stroke-width="1" fill-rule="evenodd" stroke-linecap="square" stroke-linejoin="bevel" >

<g fill="none" stroke="#000000" stroke-opacity="1" stroke-width="1" stroke-linecap="square" stroke-linejoin="bevel" transform="matrix(1,0,0,1,737.635,487.473)"
font-family="Ubuntu" font-size="11" font-weight="400" font-style="normal" 
>
<path vector-effect="non-scaling-stroke" fill-rule="evenodd" d="M0,0 L50.06,0 C52.56,0 55.06,-2.5 55.06,-5 L55.06,-14.283 C55.06,-16.783 57.56,-19.283 60.06,-19.283 L110.12,-19.283 L60.06,-19.283 C57.56,-19.283 55.06,-16.783 55.06,-14.283 L55.06,-5 C55.06,-2.5 52.56,0 50.06,0 L0,0"/>
</g>
</g>
<g fill="none" stroke="black" stroke-width="1" fill-rule="evenodd" stroke-linecap="square" stroke-linejoin="bevel" >

<g fill="none" stroke="#000000" stroke-opacity="1" stroke-width="1" stroke-linecap="square" stroke-linejoin="bevel" transform="matrix(1,0,0,1,974.265,247.541)"
font-family="Ubuntu" font-size="11" font-weight="400" font-style="normal" 
>
<path vector-effect="non-scaling-stroke" fill-rule="evenodd" d="M0,0 L0,-37.0585 C0,-39.5585 2.5,-42.0585 5,-42.0585 L63.19,-42.0585 C65.69,-42.0585 68.19,-44.5585 68.19,-47.0585 L68.19,-84.117 L68.19,-47.0585 C68.19,-44.5585 65.69,-42.0585 63.19,-42.0585 L5,-42.0585 C2.5,-42.0585 0,-39.5585 0,-37.0585 L0,0"/>
</g>
</g>
<g fill="none" stroke="black" stroke-width="1" fill-rule="evenodd" stroke-linecap="square" stroke-linejoin="bevel" >

<g fill="none" stroke="#000000" stroke-opacity="1" stroke-width="1" stroke-linecap="square" stroke-linejoin="bevel" transform="matrix(1,0,0,1,704.365,294.502)"
font-family="Ubuntu" font-size="11" font-weight="400" font-style="normal" 
>
<path vector-effect="non-scaling-stroke" fill-rule="evenodd" d="M0,0 L0,-41.8046 C0,-44.3046 2.5,-46.8046 5,-46.8046 L34.84,-46.8046 C37.34,-46.8046 39.84,-49.3046 39.84,-51.8046 L39.84,-93.6092 L39.84,-51.8046 C39.84,-49.3046 37.34,-46.8046 34.84,-46.8046 L5,-46.8046 C2.5,-46.8046 0,-44.3046 0,-41.8046 L0,0"/>
</g>
</g>
<g fill="none" stroke="black" stroke-width="1" fill-rule="evenodd" stroke-linecap="square" stroke-linejoin="bevel" >

<g fill="none" stroke="#000000" stroke-opacity="1" stroke-width="1" stroke-linecap="square" stroke-linejoin="bevel" transform="matrix(1,0,0,1,1042.45,163.424)"
font-family="Ubuntu" font-size="11" font-weight="400" font-style="normal" 
>
<path vector-effect="non-scaling-stroke" fill-rule="evenodd" d="M0,0 L-37.06,0 C-39.56,0 -42.06,-2.5 -42.06,-5 L-42.06,-63.1894 C-42.06,-65.6894 -44.56,-68.1894 -47.06,-68.1894 L-84.12,-68.1894 L-47.06,-68.1894 C-44.56,-68.1894 -42.06,-65.6894 -42.06,-63.1894 L-42.06,-5 C-42.06,-2.5 -39.56,0 -37.06,0 L0,0"/>
</g>
</g>
<g fill="none" stroke="black" stroke-width="1" fill-rule="evenodd" stroke-linecap="square" stroke-linejoin="bevel" >

<g fill="none" stroke="#000000" stroke-opacity="1" stroke-width="1" stroke-linecap="square" stroke-linejoin="bevel" transform="matrix(1,0,0,1,422.372,337.386)"
font-family="Ubuntu" font-size="11" font-weight="400" font-style="normal" 
>
<path vector-effect="non-scaling-stroke" fill-rule="evenodd" d="M0,0 L44.6715,0 C47.1715,0 49.6715,-2.5 49.6715,-5 L49.6715,-46.735 C49.6715,-49.235 52.1715,-51.735 54.6715,-51.735 L99.343,-51.735 L54.6715,-51.735 C52.1715,-51.735 49.6715,-49.235 49.6715,-46.735 L49.6715,-5 C49.6715,-2.5 47.1715,0 44.6715,0 L0,0"/>
</g>
</g>
<g fill="none" stroke="black" stroke-width="1" fill-rule="evenodd" stroke-linecap="square" stroke-linejoin="bevel" >

<g fill="none" stroke="#000000" stroke-opacity="1" stroke-width="1" stroke-linecap="square" stroke-linejoin="bevel" transform="matrix(1,0,0,1,291.476,183.443)"
font-family="Ubuntu" font-size="11" font-weight="400" font-style="normal" 
>
<path vector-effect="non-scaling-stroke" fill-rule="evenodd" d="M0,0 L0,-39.9926 C0,-42.4926 2.5,-44.9926 5,-44.9926 L61.527,-44.9926 C64.027,-44.9926 66.527,-47.4926 66.527,-49.9926 L66.527,-89.9852 L66.527,-49.9926 C66.527,-47.4926 64.027,-44.9926 61.527,-44.9926 L5,-44.9926 C2.5,-44.9926 0,-42.4926 0,-39.9926 L0,0"/>
</g>
</g>
<g fill="none" stroke="black" stroke-width="1" fill-rule="evenodd" stroke-linecap="square" stroke-linejoin="bevel" >

<g fill="none" stroke="#000000" stroke-opacity="1" stroke-width="1" stroke-linecap="square" stroke-linejoin="bevel" transform="matrix(1,0,0,1,521.715,285.651)"
font-family="Ubuntu" font-size="11" font-weight="400" font-style="normal" 
>
<path vector-effect="non-scaling-stroke" fill-rule="evenodd" d="M0,0 L0,-50.0127 C0,-52.5127 2.5,-55.0127 5,-55.0127 L16.11,-55.0127 C18.61,-55.0127 21.11,-57.5127 21.11,-60.0127 L21.11,-110.025 L21.11,-60.0127 C21.11,-57.5127 18.61,-55.0127 16.11,-55.0127 L5,-55.0127 C2.5,-55.0127 0,-52.5127 0,-50.0127 L0,0"/>
</g>
</g>
<g fill="none" stroke="black" stroke-width="1" fill-rule="evenodd" stroke-linecap="square" stroke-linejoin="bevel" >

<g fill="none" stroke="#000000" stroke-opacity="1" stroke-width="1" stroke-linecap="square" stroke-linejoin="bevel" transform="matrix(1,0,0,1,890.145,179.352)"
font-family="Ubuntu" font-size="11" font-weight="400" font-style="normal" 
>
<path vector-effect="non-scaling-stroke" fill-rule="evenodd" d="M0,0 L0,-37.0585 C0,-39.5585 2.5,-42.0585 5,-42.0585 L63.19,-42.0585 C65.69,-42.0585 68.19,-44.5585 68.19,-47.0585 L68.19,-84.117 L68.19,-47.0585 C68.19,-44.5585 65.69,-42.0585 63.19,-42.0585 L5,-42.0585 C2.5,-42.0585 0,-39.5585 0,-37.0585 L0,0"/>
</g>
</g>
<g fill="none" stroke="black" stroke-width="1" fill-rule="evenodd" stroke-linecap="square" stroke-linejoin="bevel" >

<g fill="none" stroke="#000000" stroke-opacity="1" stroke-width="1" stroke-linecap="square" stroke-linejoin="bevel" transform="matrix(1,0,0,1,744.205,200.893)"
font-family="Ubuntu" font-size="11" font-weight="400" font-style="normal" 
>
<path vector-effect="non-scaling-stroke" fill-rule="evenodd" d="M0,0 L0,32.2516 C0,34.7516 2.5,37.2516 5,37.2516 L64.28,37.2516 C66.78,37.2516 69.28,39.7516 69.28,42.2516 L69.28,74.5032 L69.28,42.2516 C69.28,39.7516 66.78,37.2516 64.28,37.2516 L5,37.2516 C2.5,37.2516 0,34.7516 0,32.2516 L0,0"/>
</g>
</g>
<g fill="none" stroke="black" stroke-width="1" fill-rule="evenodd" stroke-linecap="square" stroke-linejoin="bevel" >

<g fill="none" stroke="#000000" stroke-opacity="1" stroke-width="1" stroke-linecap="square" stroke-linejoin="bevel" transform="matrix(1,0,0,1,358.003,93.4581)"
font-family="Ubuntu" font-size="11" font-weight="400" font-style="normal" 
>
<path vector-effect="non-scaling-stroke" fill-rule="evenodd" d="M0,0 L50.886,0 C53.386,0 55.886,-0.73275 55.886,-1.4655 C55.886,-2.19825 58.386,-2.931 60.886,-2.931 L111.772,-2.931 L60.886,-2.931 C58.386,-2.931 55.886,-2.19825 55.886,-1.4655 C55.886,-0.73275 53.386,0 50.886,0 L0,0"/>
</g>
</g>
<g fill="none" stroke="black" stroke-width="1" fill-rule="evenodd" stroke-linecap="square" stroke-linejoin="bevel" >

<g fill="none" stroke="#000000" stroke-opacity="1" stroke-width="1" stroke-linecap="square" stroke-linejoin="bevel" transform="matrix(1,0,0,1,704.365,294.502)"
font-family="Ubuntu" font-size="11" font-weight="400" font-style="normal" 
>
<path vector-effect="non-scaling-stroke" fill-rule="evenodd" d="M0,0 L49.56,0 C52.06,0 54.56,-2.5 54.56,-5 L54.56,-14.106 C54.56,-16.606 57.06,-19.106 59.56,-19.106 L109.12,-19.106 L59.56,-19.106 C57.06,-19.106 54.56,-16.606 54.56,-14.106 L54.56,-5 C54.56,-2.5 52.06,0 49.56,0 L0,0"/>
</g>
</g>
<g fill="none" stroke="black" stroke-width="1" fill-rule="evenodd" stroke-linecap="square" stroke-linejoin="bevel" >

<g fill="#00c000" fill-opacity="1" stroke="#000000" stroke-opacity="1" stroke-width="1" stroke-linecap="square" stroke-linejoin="bevel" transform="matrix(1,0,0,1,974.265,247.541)"
font-family="Ubuntu" font-size="11" font-weight="400" font-style="normal" 
>
<path vector-effect="non-scaling-stroke" fill-rule="evenodd" d="M15,0 C15,8.28427 8.28427,15 0,15 C-8.28427,15 -15,8.28427 -15,0 C-15,-8.28427 -8.28427,-15 0,-15 C8.28427,-15 15,-8.28427 15,0 "/>
</g>

<g fill="#00c000" fill-opacity="1" stroke="#000000" stroke-opacity="1" stroke-width="1" stroke-linecap="square" stroke-linejoin="bevel" transform="matrix(1,0,0,1,974.265,247.541)"
font-family="DejaVu Sans" font-size="11" font-weight="400" font-style="normal" 
>
<text fill="#000000" fill-opacity="1" stroke="none" xml:space="preserve" x="-6.98438" y="3.5" font-family="DejaVu Sans" font-size="11" font-weight="400" font-style="normal" 
 >12</text>
</g>
</g>
<g fill="none" stroke="black" stroke-width="1" fill-rule="evenodd" stroke-linecap="square" stroke-linejoin="bevel" >

<g fill="#00c000" fill-opacity="1" stroke="#000000" stroke-opacity="1" stroke-width="1" stroke-linecap="square" stroke-linejoin="bevel" transform="matrix(1,0,0,1,542.825,175.625)"
font-family="Ubuntu" font-size="11" font-weight="400" font-style="normal" 
>
<path vector-effect="non-scaling-stroke" fill-rule="evenodd" d="M15,0 C15,8.28427 8.28427,15 0,15 C-8.28427,15 -15,8.28427 -15,0 C-15,-8.28427 -8.28427,-15 0,-15 C8.28427,-15 15,-8.28427 15,0 "/>
</g>

<g fill="#00c000" fill-opacity="1" stroke="#000000" stroke-opacity="1" stroke-width="1" stroke-linecap="square" stroke-linejoin="bevel" transform="matrix(1,0,0,1,542.825,175.625)"
font-family="DejaVu Sans" font-size="11" font-weight="400" font-style="normal" 
>
<text fill="#000000" fill-opacity="1" stroke="none" xml:space="preserve" x="-3.48438" y="3.5" font-family="DejaVu Sans" font-size="11" font-weight="400" font-style="normal" 
 >4</text>
</g>
</g>
<g fill="none" stroke="black" stroke-width="1" fill-rule="evenodd" stroke-linecap="square" stroke-linejoin="bevel" >

<g fill="#0000c0" fill-opacity="1" stroke="#000000" stroke-opacity="1" stroke-width="1" stroke-linecap="square" stroke-linejoin="bevel" transform="matrix(1,0,0,1,958.335,95.2345)"
font-family="Ubuntu" font-size="11" font-weight="400" font-style="normal" 
>
<path vector-effect="non-scaling-stroke" fill-rule="evenodd" d="M15,0 C15,8.28427 8.28427,15 0,15 C-8.28427,15 -15,8.28427 -15,0 C-15,-8.28427 -8.28427,-15 0,-15 C8.28427,-15 15,-8.28427 15,0 "/>
</g>
</g>
<g fill="none" stroke="black" stroke-width="1" fill-rule="evenodd" stroke-linecap="square" stroke-linejoin="bevel" >

<g fill="#00c000" fill-opacity="1" stroke="#000000" stroke-opacity="1" stroke-width="1" stroke-linecap="square" stroke-linejoin="bevel" transform="matrix(1,0,0,1,890.145,179.352)"
font-family="Ubuntu" font-size="11" font-weight="400" font-style="normal" 
>
<path vector-effect="non-scaling-stroke" fill-rule="evenodd" d="M15,0 C15,8.28427 8.28427,15 0,15 C-8.28427,15 -15,8.28427 -15,0 C-15,-8.28427 -8.28427,-15 0,-15 C8.28427,-15 15,-8.28427 15,0 "/>
</g>

<g fill="#00c000" fill-opacity="1" stroke="#000000" stroke-opacity="1" stroke-width="1" stroke-linecap="square" stroke-linejoin="bevel" transform="matrix(1,0,0,1,890.145,179.352)"
font-family="DejaVu Sans" font-size="11" font-weight="400" font-style="normal" 
>
<text fill="#000000" fill-opacity="1" stroke="none" xml:space="preserve" x="-3.48438" y="3.5" font-family="DejaVu Sans" font-size="11" font-weight="400" font-style="normal" 
 >6</text>
</g>
</g>
<g fill="none" stroke="black" stroke-width="1" fill-rule="evenodd" stroke-linecap="square" stroke-linejoin="bevel" >

<g fill="#00c000" fill-opacity="1" stroke="#000000" stroke-opacity="1" stroke-width="1" stroke-linecap="square" stroke-linejoin="bevel" transform="matrix(1,0,0,1,667.035,400.356)"
font-family="Ubuntu" font-size="11" font-weight="400" font-style="normal" 
>
<path vector-effect="non-scaling-stroke" fill-rule="evenodd" d="M15,0 C15,8.28427 8.28427,15 0,15 C-8.28427,15 -15,8.28427 -15,0 C-15,-8.28427 -8.28427,-15 0,-15 C8.28427,-15 15,-8.28427 15,0 "/>
</g>

<g fill="#00c000" fill-opacity="1" stroke="#000000" stroke-opacity="1" stroke-width="1" stroke-linecap="square" stroke-linejoin="bevel" transform="matrix(1,0,0,1,667.035,400.356)"
font-family="DejaVu Sans" font-size="11" font-weight="400" font-style="normal" 
>
<text fill="#000000" fill-opacity="1" stroke="none" xml:space="preserve" x="-3.48438" y="3.5" font-family="DejaVu Sans" font-size="11" font-weight="400" font-style="normal" 
 >9</text>
</g>
</g>
<g fill="none" stroke="black" stroke-width="1" fill-rule="evenodd" stroke-linecap="square" stroke-linejoin="bevel" >

<g fill="#0000c0" fill-opacity="1" stroke="#000000" stroke-opacity="1" stroke-width="1" stroke-linecap="square" stroke-linejoin="bevel" transform="matrix(1,0,0,1,744.205,200.893)"
font-family="Ubuntu" font-size="11" font-weight="400" font-style="normal" 
>
<path vector-effect="non-scaling-stroke" fill-rule="evenodd" d="M15,0 C15,8.28427 8.28427,15 0,15 C-8.28427,15 -15,8.28427 -15,0 C-15,-8.28427 -8.28427,-15 0,-15 C8.28427,-15 15,-8.28427 15,0 "/>
</g>
</g>
<g fill="none" stroke="black" stroke-width="1" fill-rule="evenodd" stroke-linecap="square" stroke-linejoin="bevel" >

<g fill="#00c000" fill-opacity="1" stroke="#000000" stroke-opacity="1" stroke-width="1" stroke-linecap="square" stroke-linejoin="bevel" transform="matrix(1,0,0,1,358.003,93.4581)"
font-family="Ubuntu" font-size="11" font-weight="400" font-style="normal" 
>
<path vector-effect="non-scaling-stroke" fill-rule="evenodd" d="M15,0 C15,8.28427 8.28427,15 0,15 C-8.28427,15 -15,8.28427 -15,0 C-15,-8.28427 -8.28427,-15 0,-15 C8.28427,-15 15,-8.28427 15,0 "/>
</g>

<g fill="#00c000" fill-opacity="1" stroke="#000000" stroke-opacity="1" stroke-width="1" stroke-linecap="square" stroke-linejoin="bevel" transform="matrix(1,0,0,1,358.003,93.4581)"
font-family="DejaVu Sans" font-size="11" font-weight="400" font-style="normal" 
>
<text fill="#000000" fill-opacity="1" stroke="none" xml:space="preserve" x="-3.48438" y="3.5" font-family="DejaVu Sans" font-size="11" font-weight="400" font-style="normal" 
 >0</text>
</g>
</g>
<g fill="none" stroke="black" stroke-width="1" fill-rule="evenodd" stroke-linecap="square" stroke-linejoin="bevel" >

<g fill="#00c000" fill-opacity="1" stroke="#000000" stroke-opacity="1" stroke-width="1" stroke-linecap="square" stroke-linejoin="bevel" transform="matrix(1,0,0,1,1042.45,163.424)"
font-family="Ubuntu" font-size="11" font-weight="400" font-style="normal" 
>
<path vector-effect="non-scaling-stroke" fill-rule="evenodd" d="M15,0 C15,8.28427 8.28427,15 0,15 C-8.28427,15 -15,8.28427 -15,0 C-15,-8.28427 -8.28427,-15 0,-15 C8.28427,-15 15,-8.28427 15,0 "/>
</g>

<g fill="#00c000" fill-opacity="1" stroke="#000000" stroke-opacity="1" stroke-width="1" stroke-linecap="square" stroke-linejoin="bevel" transform="matrix(1,0,0,1,1042.45,163.424)"
font-family="DejaVu Sans" font-size="11" font-weight="400" font-style="normal" 
>
<text fill="#000000" fill-opacity="1" stroke="none" xml:space="preserve" x="-6.98438" y="3.5" font-family="DejaVu Sans" font-size="11" font-weight="400" font-style="normal" 
 >13</text>
</g>
</g>
<g fill="none" stroke="black" stroke-width="1" fill-rule="evenodd" stroke-linecap="square" stroke-linejoin="bevel" >

<g fill="#0000c0" fill-opacity="1" stroke="#000000" stroke-opacity="1" stroke-width="1" stroke-linecap="square" stroke-linejoin="bevel" transform="matrix(1,0,0,1,469.775,90.5271)"
font-family="Ubuntu" font-size="11" font-weight="400" font-style="normal" 
>
<path vector-effect="non-scaling-stroke" fill-rule="evenodd" d="M15,0 C15,8.28427 8.28427,15 0,15 C-8.28427,15 -15,8.28427 -15,0 C-15,-8.28427 -8.28427,-15 0,-15 C8.28427,-15 15,-8.28427 15,0 "/>
</g>
</g>
<g fill="none" stroke="black" stroke-width="1" fill-rule="evenodd" stroke-linecap="square" stroke-linejoin="bevel" >

<g fill="#00c000" fill-opacity="1" stroke="#000000" stroke-opacity="1" stroke-width="1" stroke-linecap="square" stroke-linejoin="bevel" transform="matrix(1,0,0,1,521.715,285.651)"
font-family="Ubuntu" font-size="11" font-weight="400" font-style="normal" 
>
<path vector-effect="non-scaling-stroke" fill-rule="evenodd" d="M15,0 C15,8.28427 8.28427,15 0,15 C-8.28427,15 -15,8.28427 -15,0 C-15,-8.28427 -8.28427,-15 0,-15 C8.28427,-15 15,-8.28427 15,0 "/>
</g>

<g fill="#00c000" fill-opacity="1" stroke="#000000" stroke-opacity="1" stroke-width="1" stroke-linecap="square" stroke-linejoin="bevel" transform="matrix(1,0,0,1,521.715,285.651)"
font-family="DejaVu Sans" font-size="11" font-weight="400" font-style="normal" 
>
<text fill="#000000" fill-opacity="1" stroke="none" xml:space="preserve" x="-3.48438" y="3.5" font-family="DejaVu Sans" font-size="11" font-weight="400" font-style="normal" 
 >1</text>
</g>
</g>
<g fill="none" stroke="black" stroke-width="1" fill-rule="evenodd" stroke-linecap="square" stroke-linejoin="bevel" >

<g fill="#00c000" fill-opacity="1" stroke="#000000" stroke-opacity="1" stroke-width="1" stroke-linecap="square" stroke-linejoin="bevel" transform="matrix(1,0,0,1,737.635,487.473)"
font-family="Ubuntu" font-size="11" font-weight="400" font-style="normal" 
>
<path vector-effect="non-scaling-stroke" fill-rule="evenodd" d="M15,0 C15,8.28427 8.28427,15 0,15 C-8.28427,15 -15,8.28427 -15,0 C-15,-8.28427 -8.28427,-15 0,-15 C8.28427,-15 15,-8.28427 15,0 "/>
</g>

<g fill="#00c000" fill-opacity="1" stroke="#000000" stroke-opacity="1" stroke-width="1" stroke-linecap="square" stroke-linejoin="bevel" transform="matrix(1,0,0,1,737.635,487.473)"
font-family="DejaVu Sans" font-size="11" font-weight="400" font-style="normal" 
>
<text fill="#000000" fill-opacity="1" stroke="none" xml:space="preserve" x="-3.48438" y="3.5" font-family="DejaVu Sans" font-size="11" font-weight="400" font-style="normal" 
 >6</text>
</g>
</g>
<g fill="none" stroke="black" stroke-width="1" fill-rule="evenodd" stroke-linecap="square" stroke-linejoin="bevel" >

<g fill="#0000c0" fill-opacity="1" stroke="#000000" stroke-opacity="1" stroke-width="1" stroke-linecap="square" stroke-linejoin="bevel" transform="matrix(1,0,0,1,813.485,275.396)"
font-family="Ubuntu" font-size="11" font-weight="400" font-style="normal" 
>
<path vector-effect="non-scaling-stroke" fill-rule="evenodd" d="M15,0 C15,8.28427 8.28427,15 0,15 C-8.28427,15 -15,8.28427 -15,0 C-15,-8.28427 -8.28427,-15 0,-15 C8.28427,-15 15,-8.28427 15,0 "/>
</g>
</g>
<g fill="none" stroke="black" stroke-width="1" fill-rule="evenodd" stroke-linecap="square" stroke-linejoin="bevel" >

<g fill="#00c000" fill-opacity="1" stroke="#000000" stroke-opacity="1" stroke-width="1" stroke-linecap="square" stroke-linejoin="bevel" transform="matrix(1,0,0,1,884.565,362.265)"
font-family="Ubuntu" font-size="11" font-weight="400" font-style="normal" 
>
<path vector-effect="non-scaling-stroke" fill-rule="evenodd" d="M15,0 C15,8.28427 8.28427,15 0,15 C-8.28427,15 -15,8.28427 -15,0 C-15,-8.28427 -8.28427,-15 0,-15 C8.28427,-15 15,-8.28427 15,0 "/>
</g>

<g fill="#00c000" fill-opacity="1" stroke="#000000" stroke-opacity="1" stroke-width="1" stroke-linecap="square" stroke-linejoin="bevel" transform="matrix(1,0,0,1,884.565,362.265)"
font-family="DejaVu Sans" font-size="11" font-weight="400" font-style="normal" 
>
<text fill="#000000" fill-opacity="1" stroke="none" xml:space="preserve" x="-3.48438" y="3.5" font-family="DejaVu Sans" font-size="11" font-weight="400" font-style="normal" 
 >8</text>
</g>
</g>
<g fill="none" stroke="black" stroke-width="1" fill-rule="evenodd" stroke-linecap="square" stroke-linejoin="bevel" >

<g fill="#00c000" fill-opacity="1" stroke="#000000" stroke-opacity="1" stroke-width="1" stroke-linecap="square" stroke-linejoin="bevel" transform="matrix(1,0,0,1,291.476,183.443)"
font-family="Ubuntu" font-size="11" font-weight="400" font-style="normal" 
>
<path vector-effect="non-scaling-stroke" fill-rule="evenodd" d="M15,0 C15,8.28427 8.28427,15 0,15 C-8.28427,15 -15,8.28427 -15,0 C-15,-8.28427 -8.28427,-15 0,-15 C8.28427,-15 15,-8.28427 15,0 "/>
</g>

<g fill="#00c000" fill-opacity="1" stroke="#000000" stroke-opacity="1" stroke-width="1" stroke-linecap="square" stroke-linejoin="bevel" transform="matrix(1,0,0,1,291.476,183.443)"
font-family="DejaVu Sans" font-size="11" font-weight="400" font-style="normal" 
>
<text fill="#000000" fill-opacity="1" stroke="none" xml:space="preserve" x="-3.48438" y="3.5" font-family="DejaVu Sans" font-size="11" font-weight="400" font-style="normal" 
 >2</text>
</g>
</g>
<g fill="none" stroke="black" stroke-width="1" fill-rule="evenodd" stroke-linecap="square" stroke-linejoin="bevel" >

<g fill="#00c000" fill-opacity="1" stroke="#000000" stroke-opacity="1" stroke-width="1" stroke-linecap="square" stroke-linejoin="bevel" transform="matrix(1,0,0,1,847.755,468.19)"
font-family="Ubuntu" font-size="11" font-weight="400" font-style="normal" 
>
<path vector-effect="non-scaling-stroke" fill-rule="evenodd" d="M15,0 C15,8.28427 8.28427,15 0,15 C-8.28427,15 -15,8.28427 -15,0 C-15,-8.28427 -8.28427,-15 0,-15 C8.28427,-15 15,-8.28427 15,0 "/>
</g>

<g fill="#00c000" fill-opacity="1" stroke="#000000" stroke-opacity="1" stroke-width="1" stroke-linecap="square" stroke-linejoin="bevel" transform="matrix(1,0,0,1,847.755,468.19)"
font-family="DejaVu Sans" font-size="11" font-weight="400" font-style="normal" 
>
<text fill="#000000" fill-opacity="1" stroke="none" xml:space="preserve" x="-6.98438" y="3.5" font-family="DejaVu Sans" font-size="11" font-weight="400" font-style="normal" 
 >11</text>
</g>
</g>
<g fill="none" stroke="black" stroke-width="1" fill-rule="evenodd" stroke-linecap="square" stroke-linejoin="bevel" >

<g fill="#00c000" fill-opacity="1" stroke="#000000" stroke-opacity="1" stroke-width="1" stroke-linecap="square" stroke-linejoin="bevel" transform="matrix(1,0,0,1,319.968,291.85)"
font-family="Ubuntu" font-size="11" font-weight="400" font-style="normal" 
>
<path vector-effect="non-scaling-stroke" fill-rule="evenodd" d="M15,0 C15,8.28427 8.28427,15 0,15 C-8.28427,15 -15,8.28427 -15,0 C-15,-8.28427 -8.28427,-15 0,-15 C8.28427,-15 15,-8.28427 15,0 "/>
</g>

<g fill="#00c000" fill-opacity="1" stroke="#000000" stroke-opacity="1" stroke-width="1" stroke-linecap="square" stroke-linejoin="bevel" transform="matrix(1,0,0,1,319.968,291.85)"
font-family="DejaVu Sans" font-size="11" font-weight="400" font-style="normal" 
>
<text fill="#000000" fill-opacity="1" stroke="none" xml:space="preserve" x="-3.48438" y="3.5" font-family="DejaVu Sans" font-size="11" font-weight="400" font-style="normal" 
 >5</text>
</g>
</g>
<g fill="none" stroke="black" stroke-width="1" fill-rule="evenodd" stroke-linecap="square" stroke-linejoin="bevel" >

<g fill="#00c000" fill-opacity="1" stroke="#000000" stroke-opacity="1" stroke-width="1" stroke-linecap="square" stroke-linejoin="bevel" transform="matrix(1,0,0,1,704.365,294.502)"
font-family="Ubuntu" font-size="11" font-weight="400" font-style="normal" 
>
<path vector-effect="non-scaling-stroke" fill-rule="evenodd" d="M15,0 C15,8.28427 8.28427,15 0,15 C-8.28427,15 -15,8.28427 -15,0 C-15,-8.28427 -8.28427,-15 0,-15 C8.28427,-15 15,-8.28427 15,0 "/>
</g>

<g fill="#00c000" fill-opacity="1" stroke="#000000" stroke-opacity="1" stroke-width="1" stroke-linecap="square" stroke-linejoin="bevel" transform="matrix(1,0,0,1,704.365,294.502)"
font-family="DejaVu Sans" font-size="11" font-weight="400" font-style="normal" 
>
<text fill="#000000" fill-opacity="1" stroke="none" xml:space="preserve" x="-6.98438" y="3.5" font-family="DejaVu Sans" font-size="11" font-weight="400" font-style="normal" 
 >10</text>
</g>
</g>
<g fill="none" stroke="black" stroke-width="1" fill-rule="evenodd" stroke-linecap="square" stroke-linejoin="bevel" >

<g fill="#00c000" fill-opacity="1" stroke="#000000" stroke-opacity="1" stroke-width="1" stroke-linecap="square" stroke-linejoin="bevel" transform="matrix(1,0,0,1,422.372,337.386)"
font-family="Ubuntu" font-size="11" font-weight="400" font-style="normal" 
>
<path vector-effect="non-scaling-stroke" fill-rule="evenodd" d="M15,0 C15,8.28427 8.28427,15 0,15 C-8.28427,15 -15,8.28427 -15,0 C-15,-8.28427 -8.28427,-15 0,-15 C8.28427,-15 15,-8.28427 15,0 "/>
</g>

<g fill="#00c000" fill-opacity="1" stroke="#000000" stroke-opacity="1" stroke-width="1" stroke-linecap="square" stroke-linejoin="bevel" transform="matrix(1,0,0,1,422.372,337.386)"
font-family="DejaVu Sans" font-size="11" font-weight="400" font-style="normal" 
>
<text fill="#000000" fill-opacity="1" stroke="none" xml:space="preserve" x="-3.48438" y="3.5" font-family="DejaVu Sans" font-size="11" font-weight="400" font-style="normal" 
 >3</text>
</g>
</g>
<!-- Dunnart description -->
    <dunnart:options flowSeparation="0.5" automaticGraphLayout="0" routingBuffer="4" rubberBandRouting="0" layoutBeautify="0" colourInterferingConnectors="0" penaliseCrossings="0" layoutMode="0" preventOverlaps="0" defaultIdealConnectorLength="1" segmentPenalty="50" layoutMethod="0" avoidBuffer="1.05112e-245" pageBoundaryConstraints="0"/>
    <dunnart:node width="30" cx="422.372" cy="337.386" height="30" fillColour="00c000ff" type="org.dunnart.shapes.ellipse" id="2" label="3"/>
    <dunnart:node width="30" cx="704.365" cy="294.502" height="30" fillColour="00c000ff" type="org.dunnart.shapes.ellipse" id="3" label="10"/>
    <dunnart:node width="30" cx="319.968" cy="291.85" height="30" fillColour="00c000ff" type="org.dunnart.shapes.ellipse" id="4" label="5"/>
    <dunnart:node width="30" cx="847.755" cy="468.19" height="30" fillColour="00c000ff" type="org.dunnart.shapes.ellipse" id="8" label="11"/>
    <dunnart:node width="30" cx="291.476" cy="183.443" height="30" fillColour="00c000ff" type="org.dunnart.shapes.ellipse" id="17" label="2"/>
    <dunnart:node width="30" cx="884.565" cy="362.265" height="30" fillColour="00c000ff" type="org.dunnart.shapes.ellipse" id="18" label="8"/>
    <dunnart:node width="30" cx="813.485" cy="275.396" height="30" fillColour="0000c0ff" type="org.dunnart.shapes.ellipse" id="19"/>
    <dunnart:node width="30" cx="737.635" cy="487.473" height="30" fillColour="00c000ff" type="org.dunnart.shapes.ellipse" id="25" label="6"/>
    <dunnart:node width="30" cx="521.715" cy="285.651" height="30" fillColour="00c000ff" type="org.dunnart.shapes.ellipse" id="26" label="1"/>
    <dunnart:node width="30" cx="469.775" cy="90.5271" height="30" fillColour="0000c0ff" type="org.dunnart.shapes.ellipse" id="27"/>
    <dunnart:node width="30" cx="1042.45" cy="163.424" height="30" fillColour="00c000ff" type="org.dunnart.shapes.ellipse" id="29" label="13"/>
    <dunnart:node width="30" cx="358.003" cy="93.4581" height="30" fillColour="00c000ff" type="org.dunnart.shapes.ellipse" id="30" label="0"/>
    <dunnart:node width="30" cx="744.205" cy="200.893" height="30" fillColour="0000c0ff" type="org.dunnart.shapes.ellipse" id="31"/>
    <dunnart:node width="30" cx="667.035" cy="400.356" height="30" fillColour="00c000ff" type="org.dunnart.shapes.ellipse" id="32" label="9"/>
    <dunnart:node width="30" cx="890.145" cy="179.352" height="30" fillColour="00c000ff" type="org.dunnart.shapes.ellipse" id="33" label="6"/>
    <dunnart:node width="30" cx="958.335" cy="95.2345" height="30" fillColour="0000c0ff" type="org.dunnart.shapes.ellipse" id="34"/>
    <dunnart:node width="30" cx="542.825" cy="175.625" height="30" fillColour="00c000ff" type="org.dunnart.shapes.ellipse" id="35" label="4"/>
    <dunnart:node width="30" cx="974.265" cy="247.541" height="30" fillColour="00c000ff" type="org.dunnart.shapes.ellipse" id="36" label="12"/>
    <dunnart:node dstX="813.485" srcX="704.365" dstY="275.396" srcY="294.502" routingType="orthogonal" srcID="3" type="connector" dstID="19" id="1"/>
    <dunnart:node dstX="469.775" srcX="358.003" dstY="90.5271" srcY="93.4581" routingType="orthogonal" srcID="30" type="connector" dstID="27" id="5"/>
    <dunnart:node dstX="813.485" srcX="744.205" dstY="275.396" srcY="200.893" routingType="orthogonal" srcID="31" type="connector" dstID="19" id="6"/>
    <dunnart:node dstX="958.335" srcX="890.145" dstY="95.2345" srcY="179.352" routingType="orthogonal" srcID="33" type="connector" dstID="34" id="7"/>
    <dunnart:node dstX="542.825" srcX="521.715" dstY="175.625" srcY="285.651" routingType="orthogonal" srcID="26" type="connector" dstID="35" id="9"/>
    <dunnart:node dstX="358.003" srcX="291.476" dstY="93.4581" srcY="183.443" routingType="orthogonal" srcID="17" type="connector" dstID="30" id="10"/>
    <dunnart:node dstX="521.715" srcX="422.372" dstY="285.651" srcY="337.386" routingType="orthogonal" srcID="2" type="connector" dstID="26" id="11"/>
    <dunnart:node dstX="958.335" srcX="1042.45" dstY="95.2345" srcY="163.424" routingType="orthogonal" srcID="29" type="connector" dstID="34" id="12"/>
    <dunnart:node dstX="744.205" srcX="704.365" dstY="200.893" srcY="294.502" routingType="orthogonal" srcID="3" type="connector" dstID="31" id="13"/>
    <dunnart:node dstX="1042.45" srcX="974.265" dstY="163.424" srcY="247.541" routingType="orthogonal" srcID="36" type="connector" dstID="29" id="14"/>
    <dunnart:node dstX="847.755" srcX="737.635" dstY="468.19" srcY="487.473" routingType="orthogonal" srcID="25" type="connector" dstID="8" id="15"/>
    <dunnart:node dstX="319.968" srcX="422.372" dstY="291.85" srcY="337.386" routingType="orthogonal" srcID="2" type="connector" dstID="4" id="16"/>
    <dunnart:node dstX="704.365" srcX="667.035" dstY="294.502" srcY="400.356" routingType="orthogonal" srcID="32" type="connector" dstID="3" id="20"/>
    <dunnart:node dstX="884.565" srcX="847.755" dstY="362.265" srcY="468.19" routingType="orthogonal" srcID="8" type="connector" dstID="18" id="21"/>
    <dunnart:node dstX="974.265" srcX="890.145" dstY="247.541" srcY="179.352" routingType="orthogonal" srcID="33" type="connector" dstID="36" id="22"/>
    <dunnart:node dstX="667.035" srcX="737.635" dstY="400.356" srcY="487.473" routingType="orthogonal" srcID="25" type="connector" dstID="32" id="23"/>
    <dunnart:node dstX="469.775" srcX="542.825" dstY="90.5271" srcY="175.625" routingType="orthogonal" srcID="35" type="connector" dstID="27" id="24"/>
    <dunnart:node dstX="291.476" srcX="319.968" dstY="183.443" srcY="291.85" routingType="orthogonal" srcID="4" type="connector" dstID="17" id="28"/>
    <dunnart:node dstX="813.485" srcX="884.565" dstY="275.396" srcY="362.265" routingType="orthogonal" srcID="18" type="connector" dstID="19" id="37"/>
</svg>
