<?xml version="1.0" encoding="UTF-8" standalone="no"?>
<svg width="0mm" height="0mm"
 xmlns:dunnart="http://www.dunnart.org/ns/dunnart"
 xmlns="http://www.w3.org/2000/svg" xmlns:xlink="http://www.w3.org/1999/xlink"  version="1.2" baseProfile="tiny">
<title>v72BC.svg</title>
<desc>This SVG file was saved from Dunnart.  http://www.dunnart.org/</desc>
<defs>
</defs>
<g fill="none" stroke="black" stroke-width="1" fill-rule="evenodd" stroke-linecap="square" stroke-linejoin="bevel" >

<g fill="none" stroke="#000000" stroke-opacity="1" stroke-width="1" stroke-linecap="square" stroke-linejoin="bevel" transform="matrix(1,0,0,1,507.706,500.049)"
font-family="Ubuntu" font-size="11" font-weight="400" font-style="normal" 
>
<path vector-effect="non-scaling-stroke" fill-rule="evenodd" d="M0,0 L0,48.1305 C0,50.6305 -2.5,53.1305 -5,53.1305 L-40.068,53.1305 C-42.568,53.1305 -45.068,55.6305 -45.068,58.1305 L-45.068,106.261 L-45.068,58.1305 C-45.068,55.6305 -42.568,53.1305 -40.068,53.1305 L-5,53.1305 C-2.5,53.1305 0,50.6305 0,48.1305 L0,0"/>
</g>
</g>
<g fill="none" stroke="black" stroke-width="1" fill-rule="evenodd" stroke-linecap="square" stroke-linejoin="bevel" >

<g fill="none" stroke="#000000" stroke-opacity="1" stroke-width="1" stroke-linecap="square" stroke-linejoin="bevel" transform="matrix(1,0,0,1,191.554,295.017)"
font-family="Ubuntu" font-size="11" font-weight="400" font-style="normal" 
>
<path vector-effect="non-scaling-stroke" fill-rule="evenodd" d="M0,0 L-53.1646,0 C-55.6646,0 -58.1646,0.38325 -58.1646,0.7665 C-58.1646,1.14975 -60.6646,1.533 -63.1646,1.533 L-116.329,1.533 L-63.1646,1.533 C-60.6646,1.533 -58.1646,1.14975 -58.1646,0.7665 C-58.1646,0.38325 -55.6646,0 -53.1646,0 L0,0"/>
</g>
</g>
<g fill="none" stroke="black" stroke-width="1" fill-rule="evenodd" stroke-linecap="square" stroke-linejoin="bevel" >

<g fill="none" stroke="#000000" stroke-opacity="1" stroke-width="1" stroke-linecap="square" stroke-linejoin="bevel" transform="matrix(1,0,0,1,32.834,401.308)"
font-family="Ubuntu" font-size="11" font-weight="400" font-style="normal" 
>
<path vector-effect="non-scaling-stroke" fill-rule="evenodd" d="M0,0 L0,-47.379 C0,-49.879 2.5,-52.379 5,-52.379 L37.391,-52.379 C39.891,-52.379 42.391,-54.879 42.391,-57.379 L42.391,-104.758 L42.391,-57.379 C42.391,-54.879 39.891,-52.379 37.391,-52.379 L5,-52.379 C2.5,-52.379 0,-49.879 0,-47.379 L0,0"/>
</g>
</g>
<g fill="none" stroke="black" stroke-width="1" fill-rule="evenodd" stroke-linecap="square" stroke-linejoin="bevel" >

<g fill="none" stroke="#000000" stroke-opacity="1" stroke-width="1" stroke-linecap="square" stroke-linejoin="bevel" transform="matrix(1,0,0,1,112.282,481.019)"
font-family="Ubuntu" font-size="11" font-weight="400" font-style="normal" 
>
<path vector-effect="non-scaling-stroke" fill-rule="evenodd" d="M0,0 L0,-34.8555 C0,-37.3555 -2.5,-39.8555 -5,-39.8555 L-74.4483,-39.8555 C-76.9483,-39.8555 -79.4483,-42.3555 -79.4483,-44.8555 L-79.4483,-79.711 L-79.4483,-44.8555 C-79.4483,-42.3555 -76.9483,-39.8555 -74.4483,-39.8555 L-5,-39.8555 C-2.5,-39.8555 0,-37.3555 0,-34.8555 L0,0"/>
</g>
</g>
<g fill="none" stroke="black" stroke-width="1" fill-rule="evenodd" stroke-linecap="square" stroke-linejoin="bevel" >

<g fill="none" stroke="#000000" stroke-opacity="1" stroke-width="1" stroke-linecap="square" stroke-linejoin="bevel" transform="matrix(1,0,0,1,230.503,474.146)"
font-family="Ubuntu" font-size="11" font-weight="400" font-style="normal" 
>
<path vector-effect="non-scaling-stroke" fill-rule="evenodd" d="M0,0 L-54.1105,0 C-56.6105,0 -59.1105,1.71825 -59.1105,3.4365 C-59.1105,5.15475 -61.6105,6.873 -64.1105,6.873 L-118.221,6.873 L-64.1105,6.873 C-61.6105,6.873 -59.1105,5.15475 -59.1105,3.4365 C-59.1105,1.71825 -56.6105,0 -54.1105,0 L0,0"/>
</g>
</g>
<g fill="none" stroke="black" stroke-width="1" fill-rule="evenodd" stroke-linecap="square" stroke-linejoin="bevel" >

<g fill="none" stroke="#000000" stroke-opacity="1" stroke-width="1" stroke-linecap="square" stroke-linejoin="bevel" transform="matrix(1,0,0,1,298.985,357.371)"
font-family="Ubuntu" font-size="11" font-weight="400" font-style="normal" 
>
<path vector-effect="non-scaling-stroke" fill-rule="evenodd" d="M0,0 L0,53.3875 C0,55.8875 -2.5,58.3875 -5,58.3875 L-63.4816,58.3875 C-65.9816,58.3875 -68.4816,60.8875 -68.4816,63.3875 L-68.4816,116.775 L-68.4816,63.3875 C-68.4816,60.8875 -65.9816,58.3875 -63.4816,58.3875 L-5,58.3875 C-2.5,58.3875 0,55.8875 0,53.3875 L0,0"/>
</g>
</g>
<g fill="none" stroke="black" stroke-width="1" fill-rule="evenodd" stroke-linecap="square" stroke-linejoin="bevel" >

<g fill="none" stroke="#000000" stroke-opacity="1" stroke-width="1" stroke-linecap="square" stroke-linejoin="bevel" transform="matrix(1,0,0,1,354.304,235.213)"
font-family="Ubuntu" font-size="11" font-weight="400" font-style="normal" 
>
<path vector-effect="non-scaling-stroke" fill-rule="evenodd" d="M0,0 L0,56.079 C0,58.579 -2.5,61.079 -5,61.079 L-50.319,61.079 C-52.819,61.079 -55.319,63.579 -55.319,66.079 L-55.319,122.158 L-55.319,66.079 C-55.319,63.579 -52.819,61.079 -50.319,61.079 L-5,61.079 C-2.5,61.079 0,58.579 0,56.079 L0,0"/>
</g>
</g>
<g fill="none" stroke="black" stroke-width="1" fill-rule="evenodd" stroke-linecap="square" stroke-linejoin="bevel" >

<g fill="none" stroke="#000000" stroke-opacity="1" stroke-width="1" stroke-linecap="square" stroke-linejoin="bevel" transform="matrix(1,0,0,1,298.985,357.371)"
font-family="Ubuntu" font-size="11" font-weight="400" font-style="normal" 
>
<path vector-effect="non-scaling-stroke" fill-rule="evenodd" d="M0,0 L-48.7154,0 C-51.2154,0 -53.7154,-2.5 -53.7154,-5 L-53.7154,-57.354 C-53.7154,-59.854 -56.2154,-62.354 -58.7154,-62.354 L-107.431,-62.354 L-58.7154,-62.354 C-56.2154,-62.354 -53.7154,-59.854 -53.7154,-57.354 L-53.7154,-5 C-53.7154,-2.5 -51.2154,0 -48.7154,0 L0,0"/>
</g>
</g>
<g fill="none" stroke="black" stroke-width="1" fill-rule="evenodd" stroke-linecap="square" stroke-linejoin="bevel" >

<g fill="none" stroke="#000000" stroke-opacity="1" stroke-width="1" stroke-linecap="square" stroke-linejoin="bevel" transform="matrix(1,0,0,1,298.985,357.371)"
font-family="Ubuntu" font-size="11" font-weight="400" font-style="normal" 
>
<path vector-effect="non-scaling-stroke" fill-rule="evenodd" d="M0,0 L50.7085,0 C53.2085,0 55.7085,2.5 55.7085,5 L55.7085,56.658 C55.7085,59.158 58.2085,61.658 60.7085,61.658 L111.417,61.658 L60.7085,61.658 C58.2085,61.658 55.7085,59.158 55.7085,56.658 L55.7085,5 C55.7085,2.5 53.2085,0 50.7085,0 L0,0"/>
</g>
</g>
<g fill="none" stroke="black" stroke-width="1" fill-rule="evenodd" stroke-linecap="square" stroke-linejoin="bevel" >

<g fill="none" stroke="#000000" stroke-opacity="1" stroke-width="1" stroke-linecap="square" stroke-linejoin="bevel" transform="matrix(1,0,0,1,410.402,419.029)"
font-family="Ubuntu" font-size="11" font-weight="400" font-style="normal" 
>
<path vector-effect="non-scaling-stroke" fill-rule="evenodd" d="M0,0 L43.652,0 C46.152,0 48.652,2.5 48.652,5 L48.652,76.02 C48.652,78.52 51.152,81.02 53.652,81.02 L97.304,81.02 L53.652,81.02 C51.152,81.02 48.652,78.52 48.652,76.02 L48.652,5 C48.652,2.5 46.152,0 43.652,0 L0,0"/>
</g>
</g>
<g fill="none" stroke="black" stroke-width="1" fill-rule="evenodd" stroke-linecap="square" stroke-linejoin="bevel" >

<g fill="none" stroke="#000000" stroke-opacity="1" stroke-width="1" stroke-linecap="square" stroke-linejoin="bevel" transform="matrix(1,0,0,1,507.706,500.049)"
font-family="Ubuntu" font-size="11" font-weight="400" font-style="normal" 
>
<path vector-effect="non-scaling-stroke" fill-rule="evenodd" d="M0,0 L54.555,0 C57.055,0 59.555,-2.5 59.555,-5 L59.555,-15.478 C59.555,-17.978 62.055,-20.478 64.555,-20.478 L119.11,-20.478 L64.555,-20.478 C62.055,-20.478 59.555,-17.978 59.555,-15.478 L59.555,-5 C59.555,-2.5 57.055,0 54.555,0 L0,0"/>
</g>
</g>
<g fill="none" stroke="black" stroke-width="1" fill-rule="evenodd" stroke-linecap="square" stroke-linejoin="bevel" >

<g fill="none" stroke="#000000" stroke-opacity="1" stroke-width="1" stroke-linecap="square" stroke-linejoin="bevel" transform="matrix(1,0,0,1,626.816,479.571)"
font-family="Ubuntu" font-size="11" font-weight="400" font-style="normal" 
>
<path vector-effect="non-scaling-stroke" fill-rule="evenodd" d="M0,0 L41.114,0 C43.614,0 46.114,-2.5 46.114,-5 L46.114,-71.037 C46.114,-73.537 48.614,-76.037 51.114,-76.037 L92.228,-76.037 L51.114,-76.037 C48.614,-76.037 46.114,-73.537 46.114,-71.037 L46.114,-5 C46.114,-2.5 43.614,0 41.114,0 L0,0"/>
</g>
</g>
<g fill="none" stroke="black" stroke-width="1" fill-rule="evenodd" stroke-linecap="square" stroke-linejoin="bevel" >

<g fill="none" stroke="#000000" stroke-opacity="1" stroke-width="1" stroke-linecap="square" stroke-linejoin="bevel" transform="matrix(1,0,0,1,649.692,96.2302)"
font-family="Ubuntu" font-size="11" font-weight="400" font-style="normal" 
>
<path vector-effect="non-scaling-stroke" fill-rule="evenodd" d="M0,0 L38.0965,0 C40.5965,0 43.0965,2.5 43.0965,5 L43.0965,76.4298 C43.0965,78.9298 45.5965,81.4298 48.0965,81.4298 L86.193,81.4298 L48.0965,81.4298 C45.5965,81.4298 43.0965,78.9298 43.0965,76.4298 L43.0965,5 C43.0965,2.5 40.5965,0 38.0965,0 L0,0"/>
</g>
</g>
<g fill="none" stroke="black" stroke-width="1" fill-rule="evenodd" stroke-linecap="square" stroke-linejoin="bevel" >

<g fill="none" stroke="#000000" stroke-opacity="1" stroke-width="1" stroke-linecap="square" stroke-linejoin="bevel" transform="matrix(1,0,0,1,532.578,77.5677)"
font-family="Ubuntu" font-size="11" font-weight="400" font-style="normal" 
>
<path vector-effect="non-scaling-stroke" fill-rule="evenodd" d="M0,0 L53.557,0 C56.057,0 58.557,2.5 58.557,5 L58.557,13.6625 C58.557,16.1625 61.057,18.6625 63.557,18.6625 L117.114,18.6625 L63.557,18.6625 C61.057,18.6625 58.557,16.1625 58.557,13.6625 L58.557,5 C58.557,2.5 56.057,0 53.557,0 L0,0"/>
</g>
</g>
<g fill="none" stroke="black" stroke-width="1" fill-rule="evenodd" stroke-linecap="square" stroke-linejoin="bevel" >

<g fill="none" stroke="#000000" stroke-opacity="1" stroke-width="1" stroke-linecap="square" stroke-linejoin="bevel" transform="matrix(1,0,0,1,424.945,131.261)"
font-family="Ubuntu" font-size="11" font-weight="400" font-style="normal" 
>
<path vector-effect="non-scaling-stroke" fill-rule="evenodd" d="M0,0 L48.8165,0 C51.3165,0 53.8165,-2.5 53.8165,-5 L53.8165,-48.6933 C53.8165,-51.1933 56.3165,-53.6933 58.8165,-53.6933 L107.633,-53.6933 L58.8165,-53.6933 C56.3165,-53.6933 53.8165,-51.1933 53.8165,-48.6933 L53.8165,-5 C53.8165,-2.5 51.3165,0 48.8165,0 L0,0"/>
</g>
</g>
<g fill="none" stroke="black" stroke-width="1" fill-rule="evenodd" stroke-linecap="square" stroke-linejoin="bevel" >

<g fill="none" stroke="#000000" stroke-opacity="1" stroke-width="1" stroke-linecap="square" stroke-linejoin="bevel" transform="matrix(1,0,0,1,354.304,235.213)"
font-family="Ubuntu" font-size="11" font-weight="400" font-style="normal" 
>
<path vector-effect="non-scaling-stroke" fill-rule="evenodd" d="M0,0 L0,-46.976 C0,-49.476 2.5,-51.976 5,-51.976 L65.641,-51.976 C68.141,-51.976 70.641,-54.476 70.641,-56.976 L70.641,-103.952 L70.641,-56.976 C70.641,-54.476 68.141,-51.976 65.641,-51.976 L5,-51.976 C2.5,-51.976 0,-49.476 0,-46.976 L0,0"/>
</g>
</g>
<g fill="none" stroke="black" stroke-width="1" fill-rule="evenodd" stroke-linecap="square" stroke-linejoin="bevel" >

<g fill="none" stroke="#000000" stroke-opacity="1" stroke-width="1" stroke-linecap="square" stroke-linejoin="bevel" transform="matrix(1,0,0,1,763.166,292.61)"
font-family="Ubuntu" font-size="11" font-weight="400" font-style="normal" 
>
<path vector-effect="non-scaling-stroke" fill-rule="evenodd" d="M0,0 L0,50.462 C0,52.962 -2.5,55.462 -5,55.462 L-39.122,55.462 C-41.622,55.462 -44.122,57.962 -44.122,60.462 L-44.122,110.924 L-44.122,60.462 C-44.122,57.962 -41.622,55.462 -39.122,55.462 L-5,55.462 C-2.5,55.462 0,52.962 0,50.462 L0,0"/>
</g>
</g>
<g fill="none" stroke="black" stroke-width="1" fill-rule="evenodd" stroke-linecap="square" stroke-linejoin="bevel" >

<g fill="none" stroke="#000000" stroke-opacity="1" stroke-width="1" stroke-linecap="square" stroke-linejoin="bevel" transform="matrix(1,0,0,1,259.702,591.809)"
font-family="Ubuntu" font-size="11" font-weight="400" font-style="normal" 
>
<path vector-effect="non-scaling-stroke" fill-rule="evenodd" d="M0,0 L44.0729,0 C46.5729,0 49.0729,2.5 49.0729,5 L49.0729,51.112 C49.0729,53.612 51.5729,56.112 54.0729,56.112 L98.1458,56.112 L54.0729,56.112 C51.5729,56.112 49.0729,53.612 49.0729,51.112 L49.0729,5 C49.0729,2.5 46.5729,0 44.0729,0 L0,0"/>
</g>
</g>
<g fill="none" stroke="black" stroke-width="1" fill-rule="evenodd" stroke-linecap="square" stroke-linejoin="bevel" >

<g fill="none" stroke="#000000" stroke-opacity="1" stroke-width="1" stroke-linecap="square" stroke-linejoin="bevel" transform="matrix(1,0,0,1,735.885,177.66)"
font-family="Ubuntu" font-size="11" font-weight="400" font-style="normal" 
>
<path vector-effect="non-scaling-stroke" fill-rule="evenodd" d="M0,0 L0,52.475 C0,54.975 2.5,57.475 5,57.475 L22.281,57.475 C24.781,57.475 27.281,59.975 27.281,62.475 L27.281,114.95 L27.281,62.475 C27.281,59.975 24.781,57.475 22.281,57.475 L5,57.475 C2.5,57.475 0,54.975 0,52.475 L0,0"/>
</g>
</g>
<g fill="none" stroke="black" stroke-width="1" fill-rule="evenodd" stroke-linecap="square" stroke-linejoin="bevel" >

<g fill="none" stroke="#000000" stroke-opacity="1" stroke-width="1" stroke-linecap="square" stroke-linejoin="bevel" transform="matrix(1,0,0,1,230.503,474.146)"
font-family="Ubuntu" font-size="11" font-weight="400" font-style="normal" 
>
<path vector-effect="non-scaling-stroke" fill-rule="evenodd" d="M0,0 L0,53.8315 C0,56.3315 2.5,58.8315 5,58.8315 L24.1988,58.8315 C26.6988,58.8315 29.1988,61.3315 29.1988,63.8315 L29.1988,117.663 L29.1988,63.8315 C29.1988,61.3315 26.6988,58.8315 24.1988,58.8315 L5,58.8315 C2.5,58.8315 0,56.3315 0,53.8315 L0,0"/>
</g>
</g>
<g fill="none" stroke="black" stroke-width="1" fill-rule="evenodd" stroke-linecap="square" stroke-linejoin="bevel" >

<g fill="none" stroke="#000000" stroke-opacity="1" stroke-width="1" stroke-linecap="square" stroke-linejoin="bevel" transform="matrix(1,0,0,1,462.638,606.31)"
font-family="Ubuntu" font-size="11" font-weight="400" font-style="normal" 
>
<path vector-effect="non-scaling-stroke" fill-rule="evenodd" d="M0,0 L-47.395,0 C-49.895,0 -52.395,2.5 -52.395,5 L-52.395,36.611 C-52.395,39.111 -54.895,41.611 -57.395,41.611 L-104.79,41.611 L-57.395,41.611 C-54.895,41.611 -52.395,39.111 -52.395,36.611 L-52.395,5 C-52.395,2.5 -49.895,0 -47.395,0 L0,0"/>
</g>
</g>
<g fill="none" stroke="black" stroke-width="1" fill-rule="evenodd" stroke-linecap="square" stroke-linejoin="bevel" >

<g fill="#00c000" fill-opacity="1" stroke="#000000" stroke-opacity="1" stroke-width="1" stroke-linecap="square" stroke-linejoin="bevel" transform="matrix(1,0,0,1,424.945,131.261)"
font-family="Ubuntu" font-size="11" font-weight="400" font-style="normal" 
>
<path vector-effect="non-scaling-stroke" fill-rule="evenodd" d="M15,0 C15,8.28427 8.28427,15 0,15 C-8.28427,15 -15,8.28427 -15,0 C-15,-8.28427 -8.28427,-15 0,-15 C8.28427,-15 15,-8.28427 15,0 "/>
</g>

<g fill="#00c000" fill-opacity="1" stroke="#000000" stroke-opacity="1" stroke-width="1" stroke-linecap="square" stroke-linejoin="bevel" transform="matrix(1,0,0,1,424.945,131.261)"
font-family="DejaVu Sans" font-size="11" font-weight="400" font-style="normal" 
>
<text fill="#000000" fill-opacity="1" stroke="none" xml:space="preserve" x="-3.48438" y="3.5" font-family="DejaVu Sans" font-size="11" font-weight="400" font-style="normal" 
 >5</text>
</g>
</g>
<g fill="none" stroke="black" stroke-width="1" fill-rule="evenodd" stroke-linecap="square" stroke-linejoin="bevel" >

<g fill="#00c000" fill-opacity="1" stroke="#000000" stroke-opacity="1" stroke-width="1" stroke-linecap="square" stroke-linejoin="bevel" transform="matrix(1,0,0,1,112.282,481.019)"
font-family="Ubuntu" font-size="11" font-weight="400" font-style="normal" 
>
<path vector-effect="non-scaling-stroke" fill-rule="evenodd" d="M15,0 C15,8.28427 8.28427,15 0,15 C-8.28427,15 -15,8.28427 -15,0 C-15,-8.28427 -8.28427,-15 0,-15 C8.28427,-15 15,-8.28427 15,0 "/>
</g>

<g fill="#00c000" fill-opacity="1" stroke="#000000" stroke-opacity="1" stroke-width="1" stroke-linecap="square" stroke-linejoin="bevel" transform="matrix(1,0,0,1,112.282,481.019)"
font-family="DejaVu Sans" font-size="11" font-weight="400" font-style="normal" 
>
<text fill="#000000" fill-opacity="1" stroke="none" xml:space="preserve" x="-3.48438" y="3.5" font-family="DejaVu Sans" font-size="11" font-weight="400" font-style="normal" 
 >7</text>
</g>
</g>
<g fill="none" stroke="black" stroke-width="1" fill-rule="evenodd" stroke-linecap="square" stroke-linejoin="bevel" >

<g fill="#0000c0" fill-opacity="1" stroke="#000000" stroke-opacity="1" stroke-width="1" stroke-linecap="square" stroke-linejoin="bevel" transform="matrix(1,0,0,1,410.402,419.029)"
font-family="Ubuntu" font-size="11" font-weight="400" font-style="normal" 
>
<path vector-effect="non-scaling-stroke" fill-rule="evenodd" d="M15,0 C15,8.28427 8.28427,15 0,15 C-8.28427,15 -15,8.28427 -15,0 C-15,-8.28427 -8.28427,-15 0,-15 C8.28427,-15 15,-8.28427 15,0 "/>
</g>
</g>
<g fill="none" stroke="black" stroke-width="1" fill-rule="evenodd" stroke-linecap="square" stroke-linejoin="bevel" >

<g fill="#00c000" fill-opacity="1" stroke="#000000" stroke-opacity="1" stroke-width="1" stroke-linecap="square" stroke-linejoin="bevel" transform="matrix(1,0,0,1,532.578,77.5677)"
font-family="Ubuntu" font-size="11" font-weight="400" font-style="normal" 
>
<path vector-effect="non-scaling-stroke" fill-rule="evenodd" d="M15,0 C15,8.28427 8.28427,15 0,15 C-8.28427,15 -15,8.28427 -15,0 C-15,-8.28427 -8.28427,-15 0,-15 C8.28427,-15 15,-8.28427 15,0 "/>
</g>

<g fill="#00c000" fill-opacity="1" stroke="#000000" stroke-opacity="1" stroke-width="1" stroke-linecap="square" stroke-linejoin="bevel" transform="matrix(1,0,0,1,532.578,77.5677)"
font-family="DejaVu Sans" font-size="11" font-weight="400" font-style="normal" 
>
<text fill="#000000" fill-opacity="1" stroke="none" xml:space="preserve" x="-3.48438" y="3.5" font-family="DejaVu Sans" font-size="11" font-weight="400" font-style="normal" 
 >6</text>
</g>
</g>
<g fill="none" stroke="black" stroke-width="1" fill-rule="evenodd" stroke-linecap="square" stroke-linejoin="bevel" >

<g fill="#00c000" fill-opacity="1" stroke="#000000" stroke-opacity="1" stroke-width="1" stroke-linecap="square" stroke-linejoin="bevel" transform="matrix(1,0,0,1,354.304,235.213)"
font-family="Ubuntu" font-size="11" font-weight="400" font-style="normal" 
>
<path vector-effect="non-scaling-stroke" fill-rule="evenodd" d="M15,0 C15,8.28427 8.28427,15 0,15 C-8.28427,15 -15,8.28427 -15,0 C-15,-8.28427 -8.28427,-15 0,-15 C8.28427,-15 15,-8.28427 15,0 "/>
</g>

<g fill="#00c000" fill-opacity="1" stroke="#000000" stroke-opacity="1" stroke-width="1" stroke-linecap="square" stroke-linejoin="bevel" transform="matrix(1,0,0,1,354.304,235.213)"
font-family="DejaVu Sans" font-size="11" font-weight="400" font-style="normal" 
>
<text fill="#000000" fill-opacity="1" stroke="none" xml:space="preserve" x="-6.98438" y="3.5" font-family="DejaVu Sans" font-size="11" font-weight="400" font-style="normal" 
 >10</text>
</g>
</g>
<g fill="none" stroke="black" stroke-width="1" fill-rule="evenodd" stroke-linecap="square" stroke-linejoin="bevel" >

<g fill="#0000c0" fill-opacity="1" stroke="#000000" stroke-opacity="1" stroke-width="1" stroke-linecap="square" stroke-linejoin="bevel" transform="matrix(1,0,0,1,507.706,500.049)"
font-family="Ubuntu" font-size="11" font-weight="400" font-style="normal" 
>
<path vector-effect="non-scaling-stroke" fill-rule="evenodd" d="M15,0 C15,8.28427 8.28427,15 0,15 C-8.28427,15 -15,8.28427 -15,0 C-15,-8.28427 -8.28427,-15 0,-15 C8.28427,-15 15,-8.28427 15,0 "/>
</g>
</g>
<g fill="none" stroke="black" stroke-width="1" fill-rule="evenodd" stroke-linecap="square" stroke-linejoin="bevel" >

<g fill="#0000c0" fill-opacity="1" stroke="#000000" stroke-opacity="1" stroke-width="1" stroke-linecap="square" stroke-linejoin="bevel" transform="matrix(1,0,0,1,298.985,357.371)"
font-family="Ubuntu" font-size="11" font-weight="400" font-style="normal" 
>
<path vector-effect="non-scaling-stroke" fill-rule="evenodd" d="M15,0 C15,8.28427 8.28427,15 0,15 C-8.28427,15 -15,8.28427 -15,0 C-15,-8.28427 -8.28427,-15 0,-15 C8.28427,-15 15,-8.28427 15,0 "/>
</g>
</g>
<g fill="none" stroke="black" stroke-width="1" fill-rule="evenodd" stroke-linecap="square" stroke-linejoin="bevel" >

<g fill="#0000c0" fill-opacity="1" stroke="#000000" stroke-opacity="1" stroke-width="1" stroke-linecap="square" stroke-linejoin="bevel" transform="matrix(1,0,0,1,32.834,401.308)"
font-family="Ubuntu" font-size="11" font-weight="400" font-style="normal" 
>
<path vector-effect="non-scaling-stroke" fill-rule="evenodd" d="M15,0 C15,8.28427 8.28427,15 0,15 C-8.28427,15 -15,8.28427 -15,0 C-15,-8.28427 -8.28427,-15 0,-15 C8.28427,-15 15,-8.28427 15,0 "/>
</g>
</g>
<g fill="none" stroke="black" stroke-width="1" fill-rule="evenodd" stroke-linecap="square" stroke-linejoin="bevel" >

<g fill="#0000c0" fill-opacity="1" stroke="#000000" stroke-opacity="1" stroke-width="1" stroke-linecap="square" stroke-linejoin="bevel" transform="matrix(1,0,0,1,357.848,647.921)"
font-family="Ubuntu" font-size="11" font-weight="400" font-style="normal" 
>
<path vector-effect="non-scaling-stroke" fill-rule="evenodd" d="M15,0 C15,8.28427 8.28427,15 0,15 C-8.28427,15 -15,8.28427 -15,0 C-15,-8.28427 -8.28427,-15 0,-15 C8.28427,-15 15,-8.28427 15,0 "/>
</g>
</g>
<g fill="none" stroke="black" stroke-width="1" fill-rule="evenodd" stroke-linecap="square" stroke-linejoin="bevel" >

<g fill="#0000c0" fill-opacity="1" stroke="#000000" stroke-opacity="1" stroke-width="1" stroke-linecap="square" stroke-linejoin="bevel" transform="matrix(1,0,0,1,763.166,292.61)"
font-family="Ubuntu" font-size="11" font-weight="400" font-style="normal" 
>
<path vector-effect="non-scaling-stroke" fill-rule="evenodd" d="M15,0 C15,8.28427 8.28427,15 0,15 C-8.28427,15 -15,8.28427 -15,0 C-15,-8.28427 -8.28427,-15 0,-15 C8.28427,-15 15,-8.28427 15,0 "/>
</g>
</g>
<g fill="none" stroke="black" stroke-width="1" fill-rule="evenodd" stroke-linecap="square" stroke-linejoin="bevel" >

<g fill="#00c000" fill-opacity="1" stroke="#000000" stroke-opacity="1" stroke-width="1" stroke-linecap="square" stroke-linejoin="bevel" transform="matrix(1,0,0,1,735.885,177.66)"
font-family="Ubuntu" font-size="11" font-weight="400" font-style="normal" 
>
<path vector-effect="non-scaling-stroke" fill-rule="evenodd" d="M15,0 C15,8.28427 8.28427,15 0,15 C-8.28427,15 -15,8.28427 -15,0 C-15,-8.28427 -8.28427,-15 0,-15 C8.28427,-15 15,-8.28427 15,0 "/>
</g>

<g fill="#00c000" fill-opacity="1" stroke="#000000" stroke-opacity="1" stroke-width="1" stroke-linecap="square" stroke-linejoin="bevel" transform="matrix(1,0,0,1,735.885,177.66)"
font-family="DejaVu Sans" font-size="11" font-weight="400" font-style="normal" 
>
<text fill="#000000" fill-opacity="1" stroke="none" xml:space="preserve" x="-3.48438" y="3.5" font-family="DejaVu Sans" font-size="11" font-weight="400" font-style="normal" 
 >8</text>
</g>
</g>
<g fill="none" stroke="black" stroke-width="1" fill-rule="evenodd" stroke-linecap="square" stroke-linejoin="bevel" >

<g fill="#00c000" fill-opacity="1" stroke="#000000" stroke-opacity="1" stroke-width="1" stroke-linecap="square" stroke-linejoin="bevel" transform="matrix(1,0,0,1,191.554,295.017)"
font-family="Ubuntu" font-size="11" font-weight="400" font-style="normal" 
>
<path vector-effect="non-scaling-stroke" fill-rule="evenodd" d="M15,0 C15,8.28427 8.28427,15 0,15 C-8.28427,15 -15,8.28427 -15,0 C-15,-8.28427 -8.28427,-15 0,-15 C8.28427,-15 15,-8.28427 15,0 "/>
</g>

<g fill="#00c000" fill-opacity="1" stroke="#000000" stroke-opacity="1" stroke-width="1" stroke-linecap="square" stroke-linejoin="bevel" transform="matrix(1,0,0,1,191.554,295.017)"
font-family="DejaVu Sans" font-size="11" font-weight="400" font-style="normal" 
>
<text fill="#000000" fill-opacity="1" stroke="none" xml:space="preserve" x="-3.48438" y="3.5" font-family="DejaVu Sans" font-size="11" font-weight="400" font-style="normal" 
 >0</text>
</g>
</g>
<g fill="none" stroke="black" stroke-width="1" fill-rule="evenodd" stroke-linecap="square" stroke-linejoin="bevel" >

<g fill="#00c000" fill-opacity="1" stroke="#000000" stroke-opacity="1" stroke-width="1" stroke-linecap="square" stroke-linejoin="bevel" transform="matrix(1,0,0,1,259.702,591.809)"
font-family="Ubuntu" font-size="11" font-weight="400" font-style="normal" 
>
<path vector-effect="non-scaling-stroke" fill-rule="evenodd" d="M15,0 C15,8.28427 8.28427,15 0,15 C-8.28427,15 -15,8.28427 -15,0 C-15,-8.28427 -8.28427,-15 0,-15 C8.28427,-15 15,-8.28427 15,0 "/>
</g>

<g fill="#00c000" fill-opacity="1" stroke="#000000" stroke-opacity="1" stroke-width="1" stroke-linecap="square" stroke-linejoin="bevel" transform="matrix(1,0,0,1,259.702,591.809)"
font-family="DejaVu Sans" font-size="11" font-weight="400" font-style="normal" 
>
<text fill="#000000" fill-opacity="1" stroke="none" xml:space="preserve" x="-3.48438" y="3.5" font-family="DejaVu Sans" font-size="11" font-weight="400" font-style="normal" 
 >3</text>
</g>
</g>
<g fill="none" stroke="black" stroke-width="1" fill-rule="evenodd" stroke-linecap="square" stroke-linejoin="bevel" >

<g fill="#0000c0" fill-opacity="1" stroke="#000000" stroke-opacity="1" stroke-width="1" stroke-linecap="square" stroke-linejoin="bevel" transform="matrix(1,0,0,1,719.044,403.534)"
font-family="Ubuntu" font-size="11" font-weight="400" font-style="normal" 
>
<path vector-effect="non-scaling-stroke" fill-rule="evenodd" d="M15,0 C15,8.28427 8.28427,15 0,15 C-8.28427,15 -15,8.28427 -15,0 C-15,-8.28427 -8.28427,-15 0,-15 C8.28427,-15 15,-8.28427 15,0 "/>
</g>
</g>
<g fill="none" stroke="black" stroke-width="1" fill-rule="evenodd" stroke-linecap="square" stroke-linejoin="bevel" >

<g fill="#00c000" fill-opacity="1" stroke="#000000" stroke-opacity="1" stroke-width="1" stroke-linecap="square" stroke-linejoin="bevel" transform="matrix(1,0,0,1,230.503,474.146)"
font-family="Ubuntu" font-size="11" font-weight="400" font-style="normal" 
>
<path vector-effect="non-scaling-stroke" fill-rule="evenodd" d="M15,0 C15,8.28427 8.28427,15 0,15 C-8.28427,15 -15,8.28427 -15,0 C-15,-8.28427 -8.28427,-15 0,-15 C8.28427,-15 15,-8.28427 15,0 "/>
</g>

<g fill="#00c000" fill-opacity="1" stroke="#000000" stroke-opacity="1" stroke-width="1" stroke-linecap="square" stroke-linejoin="bevel" transform="matrix(1,0,0,1,230.503,474.146)"
font-family="DejaVu Sans" font-size="11" font-weight="400" font-style="normal" 
>
<text fill="#000000" fill-opacity="1" stroke="none" xml:space="preserve" x="-3.48438" y="3.5" font-family="DejaVu Sans" font-size="11" font-weight="400" font-style="normal" 
 >1</text>
</g>
</g>
<g fill="none" stroke="black" stroke-width="1" fill-rule="evenodd" stroke-linecap="square" stroke-linejoin="bevel" >

<g fill="#0000c0" fill-opacity="1" stroke="#000000" stroke-opacity="1" stroke-width="1" stroke-linecap="square" stroke-linejoin="bevel" transform="matrix(1,0,0,1,75.225,296.55)"
font-family="Ubuntu" font-size="11" font-weight="400" font-style="normal" 
>
<path vector-effect="non-scaling-stroke" fill-rule="evenodd" d="M15,0 C15,8.28427 8.28427,15 0,15 C-8.28427,15 -15,8.28427 -15,0 C-15,-8.28427 -8.28427,-15 0,-15 C8.28427,-15 15,-8.28427 15,0 "/>
</g>
</g>
<g fill="none" stroke="black" stroke-width="1" fill-rule="evenodd" stroke-linecap="square" stroke-linejoin="bevel" >

<g fill="#00c000" fill-opacity="1" stroke="#000000" stroke-opacity="1" stroke-width="1" stroke-linecap="square" stroke-linejoin="bevel" transform="matrix(1,0,0,1,462.638,606.31)"
font-family="Ubuntu" font-size="11" font-weight="400" font-style="normal" 
>
<path vector-effect="non-scaling-stroke" fill-rule="evenodd" d="M15,0 C15,8.28427 8.28427,15 0,15 C-8.28427,15 -15,8.28427 -15,0 C-15,-8.28427 -8.28427,-15 0,-15 C8.28427,-15 15,-8.28427 15,0 "/>
</g>

<g fill="#00c000" fill-opacity="1" stroke="#000000" stroke-opacity="1" stroke-width="1" stroke-linecap="square" stroke-linejoin="bevel" transform="matrix(1,0,0,1,462.638,606.31)"
font-family="DejaVu Sans" font-size="11" font-weight="400" font-style="normal" 
>
<text fill="#000000" fill-opacity="1" stroke="none" xml:space="preserve" x="-3.48438" y="3.5" font-family="DejaVu Sans" font-size="11" font-weight="400" font-style="normal" 
 >9</text>
</g>
</g>
<g fill="none" stroke="black" stroke-width="1" fill-rule="evenodd" stroke-linecap="square" stroke-linejoin="bevel" >

<g fill="#00c000" fill-opacity="1" stroke="#000000" stroke-opacity="1" stroke-width="1" stroke-linecap="square" stroke-linejoin="bevel" transform="matrix(1,0,0,1,649.692,96.2302)"
font-family="Ubuntu" font-size="11" font-weight="400" font-style="normal" 
>
<path vector-effect="non-scaling-stroke" fill-rule="evenodd" d="M15,0 C15,8.28427 8.28427,15 0,15 C-8.28427,15 -15,8.28427 -15,0 C-15,-8.28427 -8.28427,-15 0,-15 C8.28427,-15 15,-8.28427 15,0 "/>
</g>

<g fill="#00c000" fill-opacity="1" stroke="#000000" stroke-opacity="1" stroke-width="1" stroke-linecap="square" stroke-linejoin="bevel" transform="matrix(1,0,0,1,649.692,96.2302)"
font-family="DejaVu Sans" font-size="11" font-weight="400" font-style="normal" 
>
<text fill="#000000" fill-opacity="1" stroke="none" xml:space="preserve" x="-3.48438" y="3.5" font-family="DejaVu Sans" font-size="11" font-weight="400" font-style="normal" 
 >2</text>
</g>
</g>
<g fill="none" stroke="black" stroke-width="1" fill-rule="evenodd" stroke-linecap="square" stroke-linejoin="bevel" >

<g fill="#00c000" fill-opacity="1" stroke="#000000" stroke-opacity="1" stroke-width="1" stroke-linecap="square" stroke-linejoin="bevel" transform="matrix(1,0,0,1,626.816,479.571)"
font-family="Ubuntu" font-size="11" font-weight="400" font-style="normal" 
>
<path vector-effect="non-scaling-stroke" fill-rule="evenodd" d="M15,0 C15,8.28427 8.28427,15 0,15 C-8.28427,15 -15,8.28427 -15,0 C-15,-8.28427 -8.28427,-15 0,-15 C8.28427,-15 15,-8.28427 15,0 "/>
</g>

<g fill="#00c000" fill-opacity="1" stroke="#000000" stroke-opacity="1" stroke-width="1" stroke-linecap="square" stroke-linejoin="bevel" transform="matrix(1,0,0,1,626.816,479.571)"
font-family="DejaVu Sans" font-size="11" font-weight="400" font-style="normal" 
>
<text fill="#000000" fill-opacity="1" stroke="none" xml:space="preserve" x="-3.48438" y="3.5" font-family="DejaVu Sans" font-size="11" font-weight="400" font-style="normal" 
 >4</text>
</g>
</g>
<!-- Dunnart description -->
    <dunnart:options flowSeparation="0.5" automaticGraphLayout="0" routingBuffer="4" rubberBandRouting="0" layoutBeautify="0" colourInterferingConnectors="0" penaliseCrossings="0" layoutMode="0" preventOverlaps="0" defaultIdealConnectorLength="1" segmentPenalty="50" layoutMethod="0" avoidBuffer="5.28455e-308" pageBoundaryConstraints="0"/>
    <dunnart:node width="30" cx="626.816" cy="479.571" height="30" fillColour="00c000ff" type="org.dunnart.shapes.ellipse" id="1" label="4"/>
    <dunnart:node width="30" cx="649.692" cy="96.2302" height="30" fillColour="00c000ff" type="org.dunnart.shapes.ellipse" id="5" label="2"/>
    <dunnart:node width="30" cx="462.638" cy="606.31" height="30" fillColour="00c000ff" type="org.dunnart.shapes.ellipse" id="14" label="9"/>
    <dunnart:node width="30" cx="75.225" cy="296.55" height="30" fillColour="0000c0ff" type="org.dunnart.shapes.ellipse" id="15"/>
    <dunnart:node width="30" cx="230.503" cy="474.146" height="30" fillColour="00c000ff" type="org.dunnart.shapes.ellipse" id="17" label="1"/>
    <dunnart:node width="30" cx="719.044" cy="403.534" height="30" fillColour="0000c0ff" type="org.dunnart.shapes.ellipse" id="19"/>
    <dunnart:node width="30" cx="259.702" cy="591.809" height="30" fillColour="00c000ff" type="org.dunnart.shapes.ellipse" id="21" label="3"/>
    <dunnart:node width="30" cx="191.554" cy="295.017" height="30" fillColour="00c000ff" type="org.dunnart.shapes.ellipse" id="23" label="0"/>
    <dunnart:node width="30" cx="735.885" cy="177.66" height="30" fillColour="00c000ff" type="org.dunnart.shapes.ellipse" id="25" label="8"/>
    <dunnart:node width="30" cx="763.166" cy="292.61" height="30" fillColour="0000c0ff" type="org.dunnart.shapes.ellipse" id="26"/>
    <dunnart:node width="30" cx="357.848" cy="647.921" height="30" fillColour="0000c0ff" type="org.dunnart.shapes.ellipse" id="28"/>
    <dunnart:node width="30" cx="32.834" cy="401.308" height="30" fillColour="0000c0ff" type="org.dunnart.shapes.ellipse" id="30"/>
    <dunnart:node width="30" cx="298.985" cy="357.371" height="30" fillColour="0000c0ff" type="org.dunnart.shapes.ellipse" id="32"/>
    <dunnart:node width="30" cx="507.706" cy="500.049" height="30" fillColour="0000c0ff" type="org.dunnart.shapes.ellipse" id="34"/>
    <dunnart:node width="30" cx="354.304" cy="235.213" height="30" fillColour="00c000ff" type="org.dunnart.shapes.ellipse" id="35" label="10"/>
    <dunnart:node width="30" cx="532.578" cy="77.5677" height="30" fillColour="00c000ff" type="org.dunnart.shapes.ellipse" id="37" label="6"/>
    <dunnart:node width="30" cx="410.402" cy="419.029" height="30" fillColour="0000c0ff" type="org.dunnart.shapes.ellipse" id="38"/>
    <dunnart:node width="30" cx="112.282" cy="481.019" height="30" fillColour="00c000ff" type="org.dunnart.shapes.ellipse" id="39" label="7"/>
    <dunnart:node width="30" cx="424.945" cy="131.261" height="30" fillColour="00c000ff" type="org.dunnart.shapes.ellipse" id="40" label="5"/>
    <dunnart:node dstX="357.848" srcX="462.638" dstY="647.921" srcY="606.31" routingType="orthogonal" srcID="14" type="connector" dstID="28" id="2"/>
    <dunnart:node dstX="259.702" srcX="230.503" dstY="591.809" srcY="474.146" routingType="orthogonal" srcID="17" type="connector" dstID="21" id="3"/>
    <dunnart:node dstX="763.166" srcX="735.885" dstY="292.61" srcY="177.66" routingType="orthogonal" srcID="25" type="connector" dstID="26" id="4"/>
    <dunnart:node dstX="357.848" srcX="259.702" dstY="647.921" srcY="591.809" routingType="orthogonal" srcID="21" type="connector" dstID="28" id="6"/>
    <dunnart:node dstX="719.044" srcX="763.166" dstY="403.534" srcY="292.61" routingType="orthogonal" srcID="26" type="connector" dstID="19" id="7"/>
    <dunnart:node dstX="424.945" srcX="354.304" dstY="131.261" srcY="235.213" routingType="orthogonal" srcID="35" type="connector" dstID="40" id="8"/>
    <dunnart:node dstX="532.578" srcX="424.945" dstY="77.5677" srcY="131.261" routingType="orthogonal" srcID="40" type="connector" dstID="37" id="9"/>
    <dunnart:node dstX="649.692" srcX="532.578" dstY="96.2302" srcY="77.5677" routingType="orthogonal" srcID="37" type="connector" dstID="5" id="10"/>
    <dunnart:node dstX="735.885" srcX="649.692" dstY="177.66" srcY="96.2302" routingType="orthogonal" srcID="5" type="connector" dstID="25" id="11"/>
    <dunnart:node dstX="719.044" srcX="626.816" dstY="403.534" srcY="479.571" routingType="orthogonal" srcID="1" type="connector" dstID="19" id="12"/>
    <dunnart:node dstX="626.816" srcX="507.706" dstY="479.571" srcY="500.049" routingType="orthogonal" srcID="34" type="connector" dstID="1" id="13"/>
    <dunnart:node dstX="507.706" srcX="410.402" dstY="500.049" srcY="419.029" routingType="orthogonal" srcID="38" type="connector" dstID="34" id="16"/>
    <dunnart:node dstX="410.402" srcX="298.985" dstY="419.029" srcY="357.371" routingType="orthogonal" srcID="32" type="connector" dstID="38" id="18"/>
    <dunnart:node dstX="191.554" srcX="298.985" dstY="295.017" srcY="357.371" routingType="orthogonal" srcID="32" type="connector" dstID="23" id="20"/>
    <dunnart:node dstX="298.985" srcX="354.304" dstY="357.371" srcY="235.213" routingType="orthogonal" srcID="35" type="connector" dstID="32" id="22"/>
    <dunnart:node dstX="230.503" srcX="298.985" dstY="474.146" srcY="357.371" routingType="orthogonal" srcID="32" type="connector" dstID="17" id="24"/>
    <dunnart:node dstX="112.282" srcX="230.503" dstY="481.019" srcY="474.146" routingType="orthogonal" srcID="17" type="connector" dstID="39" id="27"/>
    <dunnart:node dstX="32.834" srcX="112.282" dstY="401.308" srcY="481.019" routingType="orthogonal" srcID="39" type="connector" dstID="30" id="29"/>
    <dunnart:node dstX="75.225" srcX="32.834" dstY="296.55" srcY="401.308" routingType="orthogonal" srcID="30" type="connector" dstID="15" id="31"/>
    <dunnart:node dstX="75.225" srcX="191.554" dstY="296.55" srcY="295.017" routingType="orthogonal" srcID="23" type="connector" dstID="15" id="33"/>
    <dunnart:node dstX="462.638" srcX="507.706" dstY="606.31" srcY="500.049" routingType="orthogonal" srcID="34" type="connector" dstID="14" id="36"/>
</svg>
