<?xml version="1.0" encoding="UTF-8" standalone="no"?>
<svg width="0mm" height="0mm"
 xmlns:dunnart="http://www.dunnart.org/ns/dunnart"
 xmlns="http://www.w3.org/2000/svg" xmlns:xlink="http://www.w3.org/1999/xlink"  version="1.2" baseProfile="tiny">
<title>two_nodes.svg</title>
<desc>This SVG file was saved from Dunnart.  http://www.dunnart.org/</desc>
<defs>
</defs>
<g fill="none" stroke="black" stroke-width="1" fill-rule="evenodd" stroke-linecap="square" stroke-linejoin="bevel" >

<g fill="#f0f0d2" fill-opacity="1" stroke="#000000" stroke-opacity="1" stroke-width="1" stroke-linecap="square" stroke-linejoin="bevel" transform="matrix(1,0,0,1,-58.5,-252)"
font-family="Ubuntu" font-size="11" font-weight="400" font-style="normal" 
>
<path vector-effect="non-scaling-stroke" fill-rule="evenodd" d="M-58.5,-15 C-58.5,-20.5228 -54.0228,-25 -48.5,-25 L48.5,-25 C54.0228,-25 58.5,-20.5228 58.5,-15 L58.5,15 C58.5,20.5228 54.0228,25 48.5,25 L-48.5,25 C-54.0228,25 -58.5,20.5228 -58.5,15 L-58.5,-15"/>
</g>

<g fill="#f0f0d2" fill-opacity="1" stroke="#000000" stroke-opacity="1" stroke-width="1" stroke-linecap="square" stroke-linejoin="bevel" transform="matrix(1,0,0,1,-58.5,-252)"
font-family="DejaVu Sans" font-size="11" font-weight="400" font-style="normal" 
>
<text fill="#000000" fill-opacity="1" stroke="none" xml:space="preserve" x="-33.3125" y="3.5" font-family="DejaVu Sans" font-size="11" font-weight="400" font-style="normal" 
 >roundedBox</text>
</g>
</g>
<g fill="none" stroke="black" stroke-width="1" fill-rule="evenodd" stroke-linecap="square" stroke-linejoin="bevel" >

<g fill="#f0f0d2" fill-opacity="1" stroke="#000000" stroke-opacity="1" stroke-width="1" stroke-linecap="square" stroke-linejoin="bevel" transform="matrix(1,0,0,1,-236,-256)"
font-family="Ubuntu" font-size="11" font-weight="400" font-style="normal" 
>
<path vector-effect="non-scaling-stroke" fill-rule="evenodd" d="M25,0 C25,13.8071 13.8071,25 0,25 C-13.8071,25 -25,13.8071 -25,0 C-25,-13.8071 -13.8071,-25 0,-25 C13.8071,-25 25,-13.8071 25,0 "/>
</g>

<g fill="#f0f0d2" fill-opacity="1" stroke="#000000" stroke-opacity="1" stroke-width="1" stroke-linecap="square" stroke-linejoin="bevel" transform="matrix(1,0,0,1,-236,-256)"
font-family="DejaVu Sans" font-size="11" font-weight="400" font-style="normal" 
>
<text fill="#000000" fill-opacity="1" stroke="none" xml:space="preserve" x="-14.7344" y="3.5" font-family="DejaVu Sans" font-size="11" font-weight="400" font-style="normal" 
 >circle</text>
</g>
</g>
<!-- Dunnart description -->
    <dunnart:options flowSeparation="0.5" automaticGraphLayout="0" routingBuffer="4" rubberBandRouting="0" layoutBeautify="0" colourInterferingConnectors="0" penaliseCrossings="0" layoutMode="0" preventOverlaps="0" defaultIdealConnectorLength="1" segmentPenalty="50" layoutMethod="0" avoidBuffer="-1.16702e-46" pageBoundaryConstraints="0"/>
    <dunnart:node width="70" cx="-236" cy="-256" height="50" type="org.sbgn.pd.01SimpleChemEPN" id="1" label="circle"/>
    <dunnart:node width="117" cx="-58.5" cy="-252" height="50" type="org.sbgn.pd.02MacromolEPN" id="2" label="roundedBox"/>
</svg>
